<mxfile host="app.diagrams.net" modified="2021-11-21T21:48:20.595Z" agent="5.0 (Windows NT 10.0; WOW64) AppleWebKit/537.36 (KHTML, like Gecko) Chrome/96.0.4664.45 Safari/537.36" etag="OO9x6lVGFi6JyVmiSXvO" version="15.8.3" type="github">
  <diagram name="Page-1" id="929967ad-93f9-6ef4-fab6-5d389245f69c">
    <mxGraphModel dx="4063" dy="2014" grid="1" gridSize="10" guides="1" tooltips="1" connect="1" arrows="1" fold="1" page="1" pageScale="1.5" pageWidth="1169" pageHeight="826" background="none" math="0" shadow="0">
      <root>
        <mxCell id="0" style=";html=1;" />
        <mxCell id="1" style=";html=1;" parent="0" />
        <mxCell id="1672d66443f91eb5-1" value="&lt;p style=&quot;margin: 4px 0px 0px 10px ; text-align: left ; font-size: 14px&quot;&gt;&lt;b style=&quot;font-size: 14px&quot;&gt;bdd&lt;/b&gt; [Internal Block Diagram] Diagrama de contexto&lt;/p&gt;" style="html=1;strokeWidth=1;shape=mxgraph.sysml.package;html=1;overflow=fill;whiteSpace=wrap;fillColor=none;gradientColor=none;fontSize=14;align=center;labelX=342.5;" parent="1" vertex="1">
          <mxGeometry x="170" y="100" width="1340" height="895" as="geometry" />
        </mxCell>
        <mxCell id="Nsw7TsLwHat9_7TwNP2g-28" style="edgeStyle=none;rounded=0;orthogonalLoop=1;jettySize=auto;html=1;fontFamily=Helvetica;fontSize=17;strokeWidth=4;" edge="1" parent="1" source="Nsw7TsLwHat9_7TwNP2g-7" target="Nsw7TsLwHat9_7TwNP2g-3">
          <mxGeometry relative="1" as="geometry" />
        </mxCell>
        <mxCell id="Nsw7TsLwHat9_7TwNP2g-7" value="" style="shape=image;verticalLabelPosition=bottom;labelBackgroundColor=#ffffff;verticalAlign=top;aspect=fixed;imageAspect=0;image=https://solucaoepi.com.br/images/tickets/usuarios.png;" vertex="1" parent="1">
          <mxGeometry x="230" y="215" width="140.52" height="140" as="geometry" />
        </mxCell>
        <mxCell id="Nsw7TsLwHat9_7TwNP2g-31" style="edgeStyle=none;rounded=0;orthogonalLoop=1;jettySize=auto;html=1;entryX=1.011;entryY=0.964;entryDx=0;entryDy=0;entryPerimeter=0;fontFamily=Helvetica;fontSize=17;strokeWidth=4;" edge="1" parent="1" target="Nsw7TsLwHat9_7TwNP2g-3">
          <mxGeometry relative="1" as="geometry">
            <mxPoint x="1300" y="795" as="sourcePoint" />
          </mxGeometry>
        </mxCell>
        <mxCell id="Nsw7TsLwHat9_7TwNP2g-9" value="" style="shape=image;verticalLabelPosition=bottom;labelBackgroundColor=#ffffff;verticalAlign=top;aspect=fixed;imageAspect=0;image=https://www.freeiconspng.com/uploads/weather-icon-png-2.png;" vertex="1" parent="1">
          <mxGeometry x="1239" y="660" width="280" height="280" as="geometry" />
        </mxCell>
        <mxCell id="Nsw7TsLwHat9_7TwNP2g-26" style="rounded=0;orthogonalLoop=1;jettySize=auto;html=1;fontFamily=Helvetica;fontSize=17;strokeWidth=4;" edge="1" parent="1" source="Nsw7TsLwHat9_7TwNP2g-18" target="Nsw7TsLwHat9_7TwNP2g-3">
          <mxGeometry relative="1" as="geometry" />
        </mxCell>
        <mxCell id="Nsw7TsLwHat9_7TwNP2g-18" value="" style="shape=image;verticalLabelPosition=bottom;labelBackgroundColor=#ffffff;verticalAlign=top;aspect=fixed;imageAspect=0;image=https://upload.wikimedia.org/wikipedia/commons/thumb/d/d7/Desktop_computer_clipart_-_Yellow_theme.svg/1200px-Desktop_computer_clipart_-_Yellow_theme.svg.png;" vertex="1" parent="1">
          <mxGeometry x="220" y="685" width="318.09" height="230" as="geometry" />
        </mxCell>
        <mxCell id="Nsw7TsLwHat9_7TwNP2g-29" style="edgeStyle=none;rounded=0;orthogonalLoop=1;jettySize=auto;html=1;exitX=0;exitY=0.75;exitDx=0;exitDy=0;fontFamily=Helvetica;fontSize=17;strokeWidth=4;" edge="1" parent="1" source="Nsw7TsLwHat9_7TwNP2g-19" target="Nsw7TsLwHat9_7TwNP2g-3">
          <mxGeometry relative="1" as="geometry" />
        </mxCell>
        <mxCell id="Nsw7TsLwHat9_7TwNP2g-19" value="" style="shape=image;verticalLabelPosition=bottom;labelBackgroundColor=#ffffff;verticalAlign=top;aspect=fixed;imageAspect=0;image=https://cdn-icons-png.flaticon.com/512/1582/1582784.png;" vertex="1" parent="1">
          <mxGeometry x="1300" y="135" width="219" height="219" as="geometry" />
        </mxCell>
        <mxCell id="Nsw7TsLwHat9_7TwNP2g-23" value="" style="shape=image;verticalLabelPosition=bottom;labelBackgroundColor=#ffffff;verticalAlign=top;aspect=fixed;imageAspect=0;image=https://i.pinimg.com/originals/35/a5/3d/35a53db77113a34907c9f514239d1426.png;rotation=15;" vertex="1" parent="1">
          <mxGeometry x="632" y="710.88" width="530" height="278.25" as="geometry" />
        </mxCell>
        <mxCell id="Nsw7TsLwHat9_7TwNP2g-30" style="edgeStyle=none;rounded=0;orthogonalLoop=1;jettySize=auto;html=1;exitX=0;exitY=0;exitDx=0;exitDy=0;fontFamily=Helvetica;fontSize=17;strokeWidth=4;" edge="1" parent="1" source="Nsw7TsLwHat9_7TwNP2g-25" target="Nsw7TsLwHat9_7TwNP2g-3">
          <mxGeometry relative="1" as="geometry" />
        </mxCell>
        <mxCell id="Nsw7TsLwHat9_7TwNP2g-25" value="" style="shape=image;verticalLabelPosition=bottom;labelBackgroundColor=#ffffff;verticalAlign=top;aspect=fixed;imageAspect=0;image=https://www.grupople.com.br/estacao/img/icon_temperatura.png;" vertex="1" parent="1">
          <mxGeometry x="940" y="795" width="132" height="110" as="geometry" />
        </mxCell>
        <mxCell id="Nsw7TsLwHat9_7TwNP2g-33" value="" style="group" vertex="1" connectable="0" parent="1">
          <mxGeometry x="660" y="235" width="440" height="330" as="geometry" />
        </mxCell>
        <mxCell id="Nsw7TsLwHat9_7TwNP2g-3" value="" style="rounded=0;whiteSpace=wrap;html=1;fillColor=#FFFFFF;dashed=1;" vertex="1" parent="Nsw7TsLwHat9_7TwNP2g-33">
          <mxGeometry width="440" height="330" as="geometry" />
        </mxCell>
        <mxCell id="Nsw7TsLwHat9_7TwNP2g-2" value="" style="shape=image;verticalLabelPosition=bottom;labelBackgroundColor=#ffffff;verticalAlign=top;aspect=fixed;imageAspect=0;image=data:image/png,iVBORw0KGgoAAAANSUhEUgAAAysAAAMSCAYAAABqIls5AAAgAElEQVR4nOzdd7gtZ1n///c9s9be+/Sa5ABJCJAQAoQW0igBBJUiCsoPFERixS8iJYgIIopIN5QvRUSa9Aj+QBErKp0ESE9O2um797b6zDz394/ZBwJpp6y918zen9d1cV2cZJ+1npMzs9bzmee578eaHXdEREREREQKJur1AERERERERO6MwoqIiIiIiBSSwoqIiIiIiBSSwoqIiIiIiBSSwoqIiIiIiBSSwoqIiIiIiBSSwoqIiIiIiBSSwoqIiIiIiBSSwoqIiIiIiBSSwoqIiIiIiBSSwoqIiIiIiBSSwoqIiIiIiBSSwoqIiIiIiBSSwoqIiIiIiBSSwoqIiIiIiBSSwoqIiIiIiBSSwoqIiIiIiBSSwoqIiIiIiBSSwoqIiIiIiBSSwoqIiIiIiBSSwoqIiIiIiBSSwoqIiIiIiBSSwoqIiIiIiBSSwoqIiIiIiBSSwoqIiIiIiBSSwoqIiIiIiBSSwoqIiIiIiBSSwoqIiIiIiBSSwoqIiIiIiBSSwoqIiIiIiBSSwoqIiIiIiBSSwoqIiIiIiBSSwoqIiIiIiBSSwoqIiIiIiBSSwoqIiIiIiBSSwoqIiIiIiBSSwoqIiIiIiBSSwoqIiIiIiBSSwoqIiIiIiBSSwoqIiIiIiBSSwoqIiIiIiBSSwoqIiIiIiBSSwoqIiIiIiBSSwoqIiIiIiBSSwoqIiIiIiBSSwoqIiIiIiBSSwoqIiIiIiBRSpdcDEBGR45Vi3gKLcNYB1usBiYiIdIVWVkREyswdQgvL9kEYBUKvRyQiItI1CisiIiVn3sDS27DOEHjW6+GIiIh0jcKKiEjZeQNr7Mbaw70eiYiISFepZkVEpOzSOlY/AAMb8pUVlayIiMgqobAiIlJmBuaLWDYMbEE1KyIispoorIiIlJ1PYzYF6SHAez0aERGRrlFYEREpOcvmIZnAUjAPOI72gomIyGqgsCIiUmqOdaaw1jTuKdAANgBxj8clIiJy/NQNTESktBy8CekUJC2otLD0EHgHbQcTEZHVQGFFRKTEzOsYMxAZRsgL7T1B28BERGQ1UFgRESmzbB7rjOcn2acZVtuDhaTXoxIREekK1ayIiJSYpfPQHofMwQOWHAQUVkREZHXQyoqISIlZmMSSubxExQNmI4BqVkREZHVQWBERKS2HMA5W/9GvLRtBKysiIrJaKKyIiJSVG5YeBF/Mfx1SaA5DUIG9iIisDgorIiKl5VhjFGvfbmWlPo1lNSDr5cBERES6QmFFRKSUHKOZdwILbcDBHGhj2Sj40j8TEREpMYUVEZGy8jmIauBh6dcOEVh2CAvN3o5NRESkCxRWRERKytIpCLU7lKdY+wDQQnUrIiJSdgorIiKlZJBMYp3Fn9ztlTpWuw2yOtoGJiIiZaewIiJSSo4lI5DUfzKTBMAnsbDYq4GJiIh0jcKKiEgZuWNhH1j7J/+5GWZz4Au9GZeIiEgXKayIiJSRGZYeuGMhvTtks1g2g2pWRESk7BRWRERKx4GANQ8stS2+HQNrzkEyC6S9GJyIiEjXKKyIiJSNByzUsdoopB1+smjFIW1jyTh4CxXZi4hImSmsiIiUTgo+BXGLOz2pPgJjCqN+x38nIiJSIgorIiJl4xnWOQhxCnYndSkOtEchVUcwEREpN4UVEZHSCVjrACRpXlB/h3/tWHMUS2a0C0xEREpNYUVEpGTMU6x9EJLkzsOIg4UZzKdQWhERkTJTWBERKRtPMB/EsvSus0hchzCq7sUiIlJqCisiImXiDpZiNgxRuOufS+tYOoHSioiIlJnCiohI2YQMqx+EcNfnqFh7AasPreCgREREuk9hRUSkTMzBW9jiMITkLhZOHLIOpFOY11HdioiIlJXCiohIaTh4G8vGwJp5cLkr5lhUA19YueGJiIh0mcKKiEiJmHewbAgi5x5XTMIils2syLhERESWg8KKiEhpGIQW1r4Fgt99VnGw9hx0prQLTERESkthRUSkLHypXqV+CNJ7SCAOJHUsGVZDMBERKS2FFRGRsjDA65gPw910Lf7xz7cxRtHSioiIlJXCiohIiVhYxBgHO4LlEm9hyR60tCIiImWlsCIiUiZpHTqTR/Sjljax5iHylRWtroiISPkorIiIlIVnWDaPNea4x/DhDmkLWxzEQj3/tYiISMkorIiIlIE7kIDPQtrgHsOKkZ/DUmmCT4JlKzBIERGR7lJYEREpCQs1LAxDfIQ1KAZEKZaOgCusiIhI+SisiIiUhTewZOTIt3Q5kHSw5l6FFRERKSWFFRGRkrCshjUHj6xtMSzVrSRYMqiwIiIipaSwIiJSBgZkM3knsKOolTdPsXAQI122oYmIiCwXhRURkZIwprFo4ch/gwMhwbJDgFZWRESkfBRWRETKIpmEcBRhBSB0sPo+8BSdtSIiImWjsCIiUhLWGseac0fxG8jPZqmNQVhU3YqIiJSOwoqISOE5eAvLJiFrc5RFKxAnWJgkP6dFqysiIlIeCisiIiVg1MCP4OT6O3Awx9JBLLTBjvCMFhERkQJQWBERKYN0DgvT+dauo+FAcKy9DzxZjpGJiIgsG4UVEZHCMyydh/YchGPYxpU51jgA3ur+0ERERJaRwoqISOE5lo5h7Zlja+gVHPOxpbCimhURESkPhRURkcJzzA9C1DjmVzCbwDj23y8iItILCisiIoVnWDoMoX6Mv9+hNQ5B28BERKRcFFZERArPob4XSxvH1nrYHWtOQbKItoGJiEiZKKyIiBSZB6CNtcYgbR/ri0DSwMI4+LG+hoiIyMpTWBERKTLz/DDIqAYWjr51MeS/pwIWxjBvdnuEIiIiy0ZhRUSkyDxg6TjGca6IOFjnNggL3RmXiIjIClBYEREpNMc6Y5C0jq/cJHOsOQpZHdWtiIhIWSisiIgUmmOdoaWwchwhIzh0RrFsrntDExERWWYKKyIiReYB80HwznEuiBgWLWA+fXyhR0REZAUprIiIFFoG4RBGAnYs1fW3E+YgnerOsERERFaAwoqISKEZVt8HWfv4VkQMrDGPtSaPraOYiIhIDyisiIgUVsC8idWGIHSOM2Q4ZAkWZsBbqMheRETKQGFFRKSwUixMgjWBcPwvFznYLEb9+F9LRERkBSisiIgUlSeQDUGUdW3rlqVTkM5pYUVEREpBYUVEpKAsJFjrAOahOx28gkNrEkvVvlhERMpBYUVEpKhCkhfXJ2l3VkIcrD2LZRMqshcRkVJQWBERKSrrYH4QQhfqVQ6LGxij3Xs9ERGRZaSwIiJSSA4kmE3kW8C6VWPidUiGuvRiIiIiy0thRUSkqDzBWoNA1rWXtKSB1Q8ArpPsRUSk8BRWRESKyAOW1bHmOHiXuoG5Q9LEOuMQWqpbERGRwlNYEREpIksgTECySFfOWIGlcBLAFzDmUf9iEREpOoUVEZHCcSw0idL9UOnySxtY1MTSERRWRESk6BRWREQKxyA0oXWwa4sqP+JAuwGdKWUVEREpPIUVEZGicYfQxGp7IOtyonDyupVEKysiIlJ8CisiIkVjYGEB8/Hur6wAeBvz/WAKKyIiUmwKKyIiReSLmM0uy+KHWRvLDql1sYiIFJ7CiohIAVmYhzAH1uX+wu6QtrDGbeisFRERKTqFFRGRIurMYo2Z7ocJA0IHq41h3mR59pmJiIh0h8KKiEjReAdLZyBtsTxF8A5RMz/HhXQZXl9ERKQ7FFZERArFMRrAZF4AvyynzDtYhqUHwZPleAMREZGuUFgRESmabAFLx5f5PVKseQBzrayIiEhxKayIiBSMpfNYaxjCMhW/O1iaYa0DoLAiIiIFprAiIlI06TS0Jpe3U1fIMB8GU1gREZHiUlgRESkUx5jEokWWqWBlScBsFEjQSfYiIlJUCisiIgVj2TBYbXnfJKRY4xCEhOUNRSIiIsdOYUVEpGhaI1h7YXnfw1OsMYp5C521IiIiRaWwIiJSFO7gbaw1DklzmU+Xd0gWIZtEW8FERKSoFFZERArDMZ/HorllPGPlx+9FFSzdj4Xmcr6RiIjIMVNYEREpCjMI8+D1ZV5VWeJgnYPgLVS3IiIiRaSwIiJSGIYlU9CZXZm3Sx2r7YGsibaBiYhIESmsiIgUhmPJMNZaXJnsEMB8BPPFFXgzERGRo6ewIiJSIBZGgdbKhBUH8ynwZW6TLCIicowUVkRECsOx9ABYe2XezgzSaUjn0DYwEREpIoUVEZEicAc3rLEXSxsr9p7WnMOS+ZUp6BcRETlKCisiIkVhHaw+CGmLFVnpMIdOA8umyc9aERERKRaFFRGRQkgxnwGrs6InylcMbAwLi2grmIiIFI3CiohIIWRYOgRRsuJHnlhnbOlsl5V9XxERkXuisLKmaCYiUlyOtQYhW+HtWJljzWEsVftikUJzV22ZrEmVXg9AVoi3yLeWRGADvR6NiPw0z7DmIUgTCCs4IXGwziSEGR1iL1JEnoG3MAOnH03dZK3Rysqa4JgvEHe+h6WD4CvUFlVEjph5ivkgZOnKv3lcw3wSrb6KFE2GeY2ofSXWuR682esBiaw4hZU1wXDbjocqldqHiDv/ST4p0cREpBDcgQyLhjDLWPElDq9h6eTKv6+I3A3HsmHixmeJa1/GK2fgtqHXgxJZcVpLXCusgvc/nBBmiWfeh/VdT7b1Yjw+EV0GIj1mlm8Dq98GWTsPLyuYG6w1D60h2OIosIj0moN3iNpXMzH0Jb51y1nsuvdLONU2s31jRH9//pGhO1XWCs1S1xCPthD6z8GqjyGe+hiWDZJtvhivnoXHm3s9PJE1LAAtqI9AWOFuYO6QtrDONNABVNMm0jsZls4RNf6VkcHv8uWrL+A7B57C+lvvxa6dxgmb4T474dRdcNJW2LIe1vVDHC0941CCkVVIYWWN8fgksi0vImr8gGj6y1jrANn2FxPWXYBHJ+mTTqQXPMGyCSxdAAsru0PTyAt4mcXCIh71o2e2IivN8yL6dJB44SuMD/0nX7rqV/if/T9HrbOLqGEMTeV35sYNsHMznHwCPOA+cOoJsHUjbF4PGwdgoC8PL/o6l9VCYWWtsSpe2UV6whuoti8mmv0G1j5IdsJvkW38dbyyg/yy0KecyIrwfMuHhTGIA6Q9qCUzMBbAF4GdK//+ImtagFAjSvZjs+9lcfTrfPKKN/C94adRS07Kd4kulZk6sLgIC4uwbwS+eS1s2pivspxyAjzk/nDWybBxHfTFUKlAtQIVhRcpMYWVtcjWEQbOJd35cioj78AWbqHSfjPRtitITnobXjkVqPZ6lCJrgxkW2ljrFnra9KIzhyUzeHz/3o1BZM1xCC3i+r9RmXwHjdn9fPCKS/nW8LPoZFvvNGD4T/2fxcX8f3uG4BvXQV8FTrsXnH5vePB94fT7wK4tS3UuS6+n4CJlorCyVllE2Pw8Qvt6osnLsPYc0cR/0JftI935JsLABXi0vdejFFkbQjs/YyXx3uSV4FhrFusMw8A5aGVVZAV4wLIhovm/pTL9Wcan+/nYNXlQScOmow8Unu/obGewbxgOjcI3r4P1A7BrOzzoVDjzPnDKibB9I/TrmaSUhMLKGubxVrJtL8Y6E9j0VyCrYTM3Umn+EdnO55JteT5eOR11uBZZRu5AC0uHIAs9GoSBNzAfJk9LCisiy8chNInaVxBPfhCrXc7g9BY+v/vlfHfkmSRhC8f6vXv4gPtOJ2+XQQtqdZidzwPMt9fDSTvhF86D887s1p9HZHkprKxpRug7g2z7i7BkHzZ3NaRtrHYzcfgo1hkk23oxYeDRYP0otIgsAyM/6M0mlloY92ocLSy5rUdvLrJWpFg6RlT/GvHcJ2DuKgbnT+ZLt/we3xr+RRrJzq5v0QoB2h1otWGhBlMLcL+T4GH3y4vxRYpOs8+1ztYR1l1AuvMP8XUnguX9D60xTDzxRaqjlxA3/xvLJsGTXo9WZFWy0MwPZfTe1axY2sAaB/Nf9HAcIqtWqGPJXuL5jxOPvhGb/jbjizu5bPcl/PehX6XWOWlZa0kOv3arBSOTMF/XrS7loLAieLSDsOEphG2/ApV15FtCHDoL2Ow1VIZ/h3j+Y1g2DN7u9XBFVp/QxBrj4L3aBpaftUJ9MH8ooV1gIl3k4E2i9o1UJ15PZfSd+OIwi8kWPnLtX/LN4WdTT04kWqn7zmB0BkamV+j9RI6TwoqAGV65F+nOPyZsfThEAz/etu4ptjBJZehNVMZeQ9S+aulMBj2OEemOTr6q0loA6+F9ZQGr1vMWymS9G4fIqhLAO8SNy6gO/SY28RVCq85cupNLv/8BvjPyTJrpthXtzuUOszW4eWjl3lPkeCisyJIIj08k3fGX+OZTII5//K88QKdJPPWfVIZfTrzwaSws9PApsMjqYaG5dMZKr0dCft5L2ssVHpFVxNtYso/q+KuoDP4FtrgPzxKGGw/g/Ve+i8tHn04SNrLSUzED6g24cR8kmbaCSfEprMgSA+snrL+AbPsf4AOn3rERezpHtHADldG3Ek+9BUv3gLd6M1yR1SLUseRQr0eRL5amHaw9CCisiBwPy2aJWt+gOvUaoonLsMYQwdscqD2Yz+5+DT8YfwpJ2EyvnlKkGcw1YHQagsKKFJy6gcmPWQS2nmzzs7HOTUST/4C1Z37yZ7Im1thDnH0E64yRbXsRPvAIPN6Ksq/IMcjqUN/X+xmDO6QJ1h6Cja66FZFj4lg2SLT4X8QzHyOqXYO3G7gZg40z+eItL1u2rl9Ha7EOe0bg3jsg1te3FJguT/kphldOJtvym/jGcyDuv+OPhAxrzRJPfJrK+J8Q1f8dyyaAdMVHK1JujoUFrDNRjDKwLMF8CNWsiBytAN7EkgNU5t5LZfQviWYvxzsN3GIm26fw8ev+gm8OPZtGckLPg4o7NDuw+2APj3cSOUIKK3InjDDwSLKdf4Cvvxf4nXyqukMIRLNXUhl+FZW592DZFLgCi8hR8TksnivAzivDSDGGMIUVkaMQwFtEzWupjvwm8fCHsPogeCAQUwtb+cBV7+SK0acWYkXlsFYbrt+XbwlT3YoUmcKK3IWYMPAYsh2vhP4+7nJPiAesPkk08mGqwy8ian4XvLOiIxUpLfd8VTLM9nokSw8g2lh9nwrsRY6UO5aNES98jurwC4mmroBOE3DcjMn2yVz6/fdzxdjP0wmbChNUIF9RWWjBwXHo6PmEFJjCitw5i/DKVrItv0S284XQt/FufjjDOvNEc5dTHX0FlYWPYNnYUotjEblLZlhnBmsv9L5GxICQQH14qXGGAovIXXPwjKhzHZWJv6Iy9CZs8QCEFuA4EYdqD+LD17yF7489lSRsonBTrrxMjRsPQltHqEmBFezOkUKxKl45iWz7HxA2PxIqdxNYPOSHSM5fRzz2HirT7yLqXAfe1PqyyF1KIJmETqMY94kFzGuYz6AaNJG7kmFhkbj+L1Qm3kA0/Y9Y6xCEND9T2SL21x7MZTe/ku+P/RzttLgNaNIUbhqEVlKMjyCRO1PMu0eKwwYI/Q8h2/kyfN2pEPXd/c+HDKvtIR7/CJWptxA1v4cFHZMrckeOhRrGTF7r1euVFQAcooClQ9rOKXJnvIWlQ0SL/0Bl9LVE01/DWhM/mukHM4Yap/P5m/5oqZi+ODUqdybLYN8wNNq9b0goclcUVuQIVMjWP51s26/g/du5x1mVO7RmiSb/meroK4nqX8GyWfCEYrQ8EikIn4MwAXGBZjPuWOcgFpJej0SkQBy8SZTsoTJ9KdXhS7D5WyBt/OgnMq8wl5zE3137V3x3+JmFDyqQB5SZRRiago4WU6WgFFbknplBNEC2/cWErU+HSoV7DCxG3gZ17gYqQ39EZfr1WDqMWqKKHGZYuoC1pyArSIh38n0h9T0QtIldJOfgKXHjf6iMvpJ45G+gUeP2dV1uEQthB5d+/wNcMfJUmtm2wgeVwxy4Zi8sFmQ3qshPU1iRI2R4fALZ9t8ibL0QoiP4FHbPu4W15onHP5t3Sqn/L+aLaIVFxCGZxlrTxbodsqVtYCisiECGZdNU5t5NZeSPiWYvhyzl9jdtsIjBxhm8+/vv58rxp5D5Bgqyr/OIeAa3DeUrLCJFpLAiR8768L6HkG1/Kb7+NI748gkZdOaJ5q6mMv6nxLMfxdJDeoQja5t7fgCj1Xo9kp9khkVjSx3BdI/KGhZqRK1rqEz+CfHo+7HaXkh/8n4NROxbOJu/v/7PuHL8ySRhE16yqZUBk/MwMae6FSmmSq8HIOXi8RbChseS7XghlfS90F44sjMZ3CGpE81dhbWnsPQQ2ebnE/oeAlE/ys2yFlkYARr3+HMryjOsM4J5W1FF1qiApeNEre8Rz3yMaP4bSx37fvK7LljE/sWH8g83v4LLR5e2fvVoxMfDgVo9r1tpd2BdP6XZwiZrg8KKHCXD45PItv0uUec6oqn/hnTxyFZJjLxbWOMAcfIxrH096fY/xQfOxqPNYNVlH71IYRhY8wCWFGxlxQPWHIMsP9iuTNtZRI6bt7F0jHjxS8Qzf4ct3JTfBj/1HReIGG3en09c/+dcNfFEmmk5g8ph7nBoHGbrsG6g16MR+Ul6nC3HIMbjE0h3vhFffypHnXnd821hE/9LdfBFxPOXYdnUUrcwkbUgL9i1+igkh0NBUQRoL2LZqNoXyxriENpYeojK9BupjLwJm78p3xf1U0El9Qrz2U4+cNVfc+X4k5eCSpmjCoQAgxMwPK0d2lI8CitybKxK6D+L9MRX4xsfcGxrxp5h9WHisT+jMvkXRJ0bWHqE1e3RihSMY8yDLeTVrUUTg/k45kULUiLLwB1Cnbj57/QN/RrxxBehNXens/ZgMVOdk3n75R/mqvEn0c42lT6oHDZdg70jvR6FyB1pG5gcIwMqhI1PJ2y5niidxZoTHPXExjOsOUuUfBFr3Up2wsvJNvw8mOpYZDXzfDWRRn4rFTAPWOtW2NAAtvZ6KCLLKMXSQeLFTxFPfhJrjEB2580lMmIO1h7M313zZq6ZeAJp2Mhq+p5qNODgGNRbsHFAdStSHAorclw82kG27WJIR4nTL0FyDMXC7lgyg83/EOu8ATvxJrKNz8cru5ZCi8gq40B7DEsLVlx/WOZQPwRb6xD3ejAiy8AdvE7UupJ49hNE8/+NNYfucg9UIGbf4sO47KZLuG7ycXTC6llROSwLeVew8VnYeK9ej0bkx1bPIwHpDTNC3xlkW19E2Pzg43sUk9aw2m7i0UupTL2DqHUNls13b6wiRWFgyfhSh6FeD+ZOBLB0DMt08IKsRgHLxojr/0Vl6i+Jp/4Ra9xNULGIA/Wz+PxNr+J7I0+nmW1ddUEF8kXemXnYP97rkYj8JIUVOX7Wh697NNmOV+PrdoAdx6NYz7DGDPH4h6lMvpao/S0smwUKuK9f5Fh5wLLB/CyTIlazOlg8D8xRzDQlciwcvIWlI8Szf09l+FVEU9+Azp0fVOxA6lUmWqfyt1e/jctHnrHUnnj1BZXDGh246dCdNkAT6RmFFekKj7cSNlxEOOl3oLrueF8NkpRo8utUBl9GPPf+/AnvkZznIlIG5hj7gQ6FbA1sBr6AhTkKOT6Ro+bgHaLOLVTHX0Zl9E1Y7UB+aPFdXOJOxEK2g0uv+ADXTF5EK9uyqoOKO9QbcMvBvG5F37hSFAor0iWGxztJt7yUsPkCqG7iuCY5Rl7LUhsiHn0/1fEXE3VugtDs1oBFeseXzlgJRV1Zcaw1B8lsr0ci0gWOZbPEC/9I9dALiCb/C5I7L6I/LLOYweYDedvlH+G66YvIwgbWSnBvtGHPCKRpr0ciklNYkS6q5OevnPg6fPP9IO7CIY+eYJ1poun/oDL0+8T1L2PpRDEneCJHxIEUWzgIaVHPMXHoNLBkUmetSMk5ltxCPP2OpdWUvZDW7nalPiNmz/wj+PDVb+P6qceThvX4GpkuuUOzDTccgFS7r6Ug1sbdJyvHqoSB88m2vBhfd9/u9D4MGbTniea+S2X8LcTzH8GSm8i30IiUTYqFKfAF8LSYD2uNvH4sTGFeR3UrUjqeQVgkavwvlck3522J67cutSW+axkxexYewWU3XcI1E0+gnW1irU2VOgnceACSVHe+FINaF0uXGUTryDY/G+vcRpR8EmvPdOelQ8DmbyTu/F+sdQvZzpcTqmdAtIG19mUiJeYJlg5DJckv26JuDDcgm4KwCLatmKFK5M54BwtTRI3vUJl4O7Z4M2SNu12RdwwnYrDxID55w+u5euKJq75G5a4kKewbgYUmbFwHFbUvlx7TDE+WgeGVXWRbfx3f/LjubAfLXzbfS9+YIJ78AtXR3ydufj1vb+zaXCsl4SnW2VvMk+tvLzjWGsbSuV6PROTIeQtLDxHP/g2VoZdic1dDWr/HoJJ6len0Xnzgyndy9cTPrNmgAhBCvrpy6xC0tIFBCkBhRZaJEfofRrrjpfjG+9HdS80ha2EzV1M58JvEtfdiPkFxH1GL/JiFFGsexDophAJvsnCw9iyk01pVkRJwwInaV1CdeDWVkXdh9akj6iIZiJjsnMybvv0Jrpu6iHa2+g58PFpZBrsPQLOjElHpPYUVWT5WwQceSbrj1TCwDqyLl5s7hBRrzhIPfYjq8IuJmt8BV7cwKboESw/ks4HCW8SY1GxFis0zLCwSz/0d1eFXEk3+DyRNjuQBVkaFA/WHcOn3P8jNMxeQhnUonee3/P5xqDW7U3oqcjxUsyLLyPDKNsLmp5N1riOe/BS0u72lJGCtCSz7NpVsgWz7CwkbfgGPT0JfOFI8DpZgDOfbwJxiX6ZWw9KDxR6jrG2hjmVDVOb/lmjyn7HWCGRH9tAqo8Kt84/isze9mpumLyT19Wt+ReVHDJotaCd5cFFgkV5SWJFlFuPxDtLtL8Fa1xOFKyFZ7O5buEN7jmj2cqwzRrZthGzzL+N9p4P1o5mWFEpIsNYhoPgrK5bWsfZI8UOVrOa4hM4AACAASURBVEmWTWHtK4mnP0688G/QrHGk24EzYvYuns1lN7+KK8d+lla2WZf4kkoMWzbChQ+BHZt7PRoRhRVZCdaP9z2QbOersM6fYtnNELpctWdA1sEWb6PSvJSodS3pztfi/afj0SZA7UykANwhtKE+CqGgbYsPc4d2A+rDQAL093pEIuTJOcOyKaL6v1KZ/iA2e01eFX4EjXYPF9OPtU/jw9e8jd3T5y8V0wtApQLbN8PPPhp+4fy8G5hWVaTXVLMiKyQi2/BUsh2/iq/bybLN0tyhs0A09WWqQ79BVPsqFhYpw1NsWQMsw8IslswXvxuYkY83WsBYOKJCZZHl5Xk3vTBOZeqvqAy/Hpu5aqn+68jqqjKPmUl38a4r3s/1U49VULkdi2DnVvilx8LzLsqDSqT/OFIACiuyciwm2/wbhC3Pguoybs8yIAvYwl4qo39MZeYteatYHW8lPeVYaGJhECpe7FWV27N6ft6KHq9Kr4U6UfMKqiMvJB77NFafWCqoOLLfnlFhqHUGb/3eR9g9cyFpWFea23AlnHoiPO+J8PPnQBQrqEhxKKzICjK8ciLZtt8gbH3s8l993sHqE0Rjn6Q69gqixtcgtPSEWHrE8msyPVSq7lrWWcQ645QnXcmq4wHLBqksfoLq8B8QTX8f0qNbMU+pcNviI3jfD9+dF9OH9WgKlDODB54Kv/ZkuPAsGOjT3S7FopoVWVlWxfvPItvxcqw9jC3etrzbYUKKtcbzbmHJHGH7r5Nt+kW8chLQpcMqRY5UaGD1feU5EsiBTh1LxlCVvfSEN4laNxAvfI5o7p+w2v6jDvspFW6dP4fP33QJu6cvJAkbdSWTh5RKDGfeF37l8fDgU2Dj+l6PSuSOFFZkxbltIgycT7bjRcSdv8bac8u/fz9ZJJr/AZYchGyIsOlXCdXTIFKrE1kpnrdZbR0sTwmVA97EsoO9HomsNZ5iYRFrX0Vl8q+xhe9jndmjCioOBCrsrz2UT9/4J1w98STa6voF5EFl/QDc797w3CfCWafAevXQkIJSWJGVZ4bHO8m2/DZR5xps4t8hWWDZa0pCitVGqXTeQ9h2I+mOVxAGHg22obsHVorcBfMaRNMlW6ToYD7U60HIWuIdzGeIFr5KZeYd2MIBSDtHdc8c7vo13r4v7/vhO7l19nw6YVN5brtlZAYD/XDGyXDxz8Npu6CqhplSYAor0hsW4fE2ku1voq9+K7Z4A2TJCryxQ6dFNPlVqq09ZCe8hHTLbwN9aP+yLDuvYWFmqVi9BHUr7ljWxJp7ez0SWRPytRALB6jMvYd46KOQpnmd4VGmjEDMROcU3vzdj7J37hwyVzH9YZUKnPNAeMGT4ZQTS/TcRNYszc6kdyzG++5Luusv8A1nrmDrEYeQYbW9xKNvpTr2EizdB95eofeXtcrSeWhNlarAnrSDLQ4u3R8lGreUTL5NMq79M9VDv0M08nnodI6pIUpKlb21s3n79/6WfXOPIvgAmpLn+vvhyefA858Mu7brv4qUg1ZWpIcMrI8wcCHZtucQp7NYY3jl3j5rY40x4uRLWDZBtu0lhP7z8HiH2rRK93kCyTTWrlGaSb8BpPmKELO47wRTYwrptgxLh4jnP00880Wsfhuk9WOaSadUuWn2XD55w2u5dfZ8Ul+PpuQQRdDflx/2+LTzYNc26NMMUEpCl6r0nMc7yTY/D2sfJE6+AJ3ayn23eAadeaLpr2HNMbKdLyLb9Aw8PhVMt4d0i2PewMIkkJVr7mRAlGDJMF7ZqrAi3eMBvE7UvoF49jNE8/+MNUchS485qNw8l3f9umHqCSRhY/fHXEKVGLZsgic8HH7hAti+Ear6epMS0eUqvWeG9z2AbMdvY+FGoskfrvBZKA5JG1u4ijidwNq7Sbf/IV45DaIBtFtSusJrWDZUrqDyIynW3g+Vs3o9EFktPMWyGax9HZWptxDNXg5Z66gOefzRS2EEr3CgcRYfufaN3DJzIZ2waXnGXTLVCmzbBE85F551QV5YH+srTUpGl6wUg1UJ/Q8n2/ZnMLAZrAetSdyx+iDx+Keojr2YKLkWQp3y9JmVwnIgq2Pt8dLsAPuR4NBJscZBLKS9Ho2sCgkWpogXPkV16HeJpr8BafOYa7kyrzLeOYV3XfFebpp+rILKkshg22Z4xgXwy4/JWxUrqEgZ6bKV4ojWEwbOIz3x5dC3qXd1I0mDaOqHVA/8f1TmP46lY+UqiJbiMbBkBhrDkJXsWnKwLMGyQTCFFTleTtS+gcroq4lH3po3bwjHvpKeUWGo9QDe9J2PsXf+3KUaFbEITtgOz7kInnru0qn0pVzVFdE2MCmUCK9sJdv2u0Sta4imvw7JfA+2zTh4G6uPE4+8Hdt+Ndm2lxL6zwbrW+nByKrgGONYNFeyM1YOC1h0ADxd2qZTuj+A9JoHzOtEja8ST74bW7wNS+aBYw8qKX3cuvAIPnjlW9k3dy6Zun4B+erJqbvyjl8POTU/7FG3rJSZwooUi/XhlV2kO15FpTNKtHAdpK2V//5xz/dUN0eIpr+KdcbJdlxMWPezeNSjbWpSbtkEsNjrURwbT7H2IFimWY8cPW9h6SDx/GeJZ76ANfbl276OQ0qV3bPn8bndl7BnTisqhw30wSm74LkXwdmnwcZ1umWl/BRWpIAiwvrzybb9Fta5FGvsXeGC+59krUks/TqWHiDbPk628Wl45RSw/p6NSUrGwZJxLFks34NfA0ICtUMQWhCFfI+JyBGwbBZr7yae/wTRzJex1sxxf55nVLlt4RF89sZXce3kz5CoRgXIa1JO3ZVv/XrU6XlrYgUVWQ0UVqSADKgSNj2bLDlAnH0Ya83S08rkpInN3UKl+Xpsx/Wk21+GV+4L8QZU+iV3yx3IsOY4tOvH1O2o5zzDOnNYNoVXTwa0HVLuhnt+zfg8UfObxJPvJpq/AtKE4/kcd4zMqww1z+B9P3w7++bPVXviJesG4IxT4VefAA+7f69HI9JdmmVJQRlePYGw9fmErT+3gqfb3+Vw8qeBrUXi8Y9SHft94tb/6FRvuWcG5jXwWUp3xsphEVBxLIzompd7ZgGjRjz/firDryCa+TYkHY73ugkeM9E5mbd970PsmbtAQYX848QieNSZcPHPwtn36/WIRLpPYUUKzAh9DyTb9hJ889kFqRNxSAPR9FVUBi+hMvtOLB1Fkze5W76AsdDrURw3a9+KhSblTFyy7NwhNIja11AdeQHx6Aew+khXVhNT+thXP5u/+s5H2b/wSIJrG64ZVKr5YY/PuwhOO0nbvmR1UliRYrM+vP/BpCdcgq/fWpDAAoQm1hgiHv07KqOXELW+B95EoUXuyLDODHRmez2QY+dA6lhrqW5F5Ke5Y9ko8eIXqIz8IdHUN7DWNHThbJ7E+9g9dy7vv/JteXvisB5f49OXKIL16+AZ58NznwgnnwB91V6PSmR5qGZFCs7wylbChqcStl9DlPw9lswW49yT0MFaw8Tpv2LZJNn23yJseBIenQimW0sOc8imsfZcubNsBtY5dLtQrke4wo9rspLbiBc/Tzz1BayxJ69P6cIlktLH7rnz+dxNr+SWmQtJw4bjf9GSiyLYvhke+1B45oX5/+/TV46sYrq8pQRiPN5GuuNlVBvXYAs/hKQgLWDdIVkkmvk61j5ItnOYbNOz8cp9IFIrTclZGIHQKHdYcYApzBul/mNIF3mKeQPr7KYy/dfY/Lex5kRXtn05RkaFvbWz+fh1r+Pmmceq6xc/DiqPOxue/TjY0cPzk0VWytpeR5XysCpeOZX0pD8hbDwTooLl7BCwxX1URt5MZeKNRO2bIatT7tmpdIdjYRCikm+fMsOySQj1Xo9EisATLJslan6N6ujvEU1+FWuMd2XV2zES72O49QDe84NLuXnm8Qoq5EFl88Z869fznqCgImtHwWZ8IncnIqx/EmHr87H2BNYYpFhhwKG9SDz9j0TtG0jv9Rqydc9Z2hKmb5S1y7DmbVjW6PVAjo87Vp+EpAbrej0Y6Z38M9eSA8TzH6cy+SFoLoJnXXuHjAqDzQfy5m9/mOH6w0iDLrjIYNsW+LWfgcc/BDYMKKjI2qGwIiVTIdvyXCwbIR77EHSKtnrhkLSwhVuppK8j2nY16faX5NvCUPXj2rO0n39xPyQlDys4dGpYNgWegOmslTXHHWgTNb5HZfpd2PwV0Jnv6qG9CX3cuvBI3vODdzJYewTufaz1hz3VGLZvhRf9HDzi/rCuX0FF1haFFSkZw+MTyTY9D2vuJpr+N+jd4fZ3LWti9UGizieppIfItvwePvAoPNqib5m1xAPmc1iYA08pVrA+SgZEjoWJpbqVqq7ltcQTLJsjnv880exnieo3QbrQ1WYnHe/nhtnH8KkbXs2hhUcttSde29fYQB/c5wR47pPyoLJ+oPfHjomsNIUVKR+rEvrOJN35KqqdA9jibRCSXo/qjkKGtcaJJ/8Fa4+Sbf8dwoYn4pWTWetfwGuGBSwbh0p76WDRXg/oOBlYNgzeANvS69HISgk1omQv0fwXiKc/hTXHIbS7+hYJfdw0fy6f3X0Ju6cfr65f5KfS3+9eeSH9ox8IlVhBRdYmhRUpp3gjPvAwsh3/hzh5E9ac7uqe6a4xIKkTzX4H6wyS7Xx+vsoSn7i0jUY9LlY1d0jHihmmj1VzELIaxJo1rXoesDCPtXdTmf1roql/hSShm6nbMVKvsr/+EP7mqr9i//yjFVTIg8r975MX0j/s/vlWMJG1SjMlKSnD451kWy8mbH0aXt1CoVcrQoYtHqAy8l6qo79L1NkN3qKYe9ikazzDWgcgaUMo+7IKSwdDjmLpHOVfJpK75Rnmi8QLl1Ed/n2isX+CTodu/72nXmW4dTpv/94H2Tt33poPKmYQxXDWfeHin4NHng4VzdRkjdMtIKXmNkC683X4tgdDpegFvw7tOtHkt6gOv4B48f/Pi5VlFcuwZH8eVlbJ3N7iecx03a5qnmLJASqTryUe+0ts8daunJ3y0xL62Fd/KG/69kcYqj2M4APdfYMSqsZw3lnwO0+H0++V/ydXaZisdQorUm4W49XTyLa/Dt/w4BJ8qjuEFja/j8rwn1OZeSuW3JhvYetioaoURcDCCGZZCa7NIxTmIVVYWZ0cCwvEzf/IV1Mmvog1JiF0uv5Oifdz4+wFvOuKdzO4+Iil9sSr5B45BmawaQM8/pHwGz8Lu7ZBn3pYiACqWZHSM7A+wsB5ZNueR5xMYc2hgk/8HbIO1thPNPF5qu1hsq0Xk62/CGwdoM3Jq4URsGRvXoy8DE+me8GSBaw9BhtdM6lVJcHSIeL5fyaa/wzR/PU/vm67/U7ez7Uzj+Vzuy/hwMI5ZL62z1ExYMdmeMxD4annwck7IdajZJEfUViRVcHj7WSbfxlr7yFOLoNksddDumfuWHMMS/4Va90KJ72KsP5JeHQCWH+vRyfHzYEEqw3mT6ZXw7zeHToN6EwBKVD0rZdyREKNqHMb8cJniKYvwxrDyxJSHCOlys0Lj+JTN/wxN888bs3XqEQRbNsEj394fjL9rm16BiDy0xRWZJUwvO8BZDt+D0tuIJr5QX5QWaFXWJakdWz+Bqrpy8m2/zbplt/Cq6dBNMDqmOGuVSlkM1h7eumMlVXAgJBgYQYLdTyuomu0xDwDrxO1rqIy9Vaiue/kYXQZCqwcIwn9HGo9iPf+4J0cWngkma/v+vuUiUWwaSM87QL4mUfASVt7PSKRYtJCo6wiEaH/oaQ73wTrtlCqy9szqM0Rj7yH6tglRI1vk3cKK0HYkjvh4B0sjMBqm8/HhjEJYQZdn2XmWGhQWfwE1YMvJJr82rIFFYDMqww2z+SN3/woBxfOUVAxGOiHFzwJnvZoOEHHFoncpRLN5kSOgPXj6x5JetKf4QPbS3aClkOaEs19h+roJVRmP4Bls8U8P0bugWEhydsWr7a/v+DQnsPSBfQVUlLeImpfR2XsJcTDb8Ua4/lK9DIFlY73c/PCObzlu3/DeOOspZPp164ogp3b4PefCY99KGxcV7KvKpEVpm1gsspEeLSFbPNzscYPiGb+HevM9HpQRydZxGp7iJN3Y80byXb8AaH6AIjW9t7u0gltrLEP0rC6FiAcrDO71BHMWV3LRqufZVNEzW8Sz/5tvl02nV8KKsuj4wNcN/NYPnH9nzC4+HAyX9vbWysVOOVE+OXHw/ln5qsrKqYXuXsKK7L6WAWPd5FtfynWGcTmfwhZs9ejOjpZC2seIs4+j6UTZNt/kzBwAV45gbX8RV8eDnSwZAiyVXbwpwNex3yp656qgUvA84Ye2V7ihX8hnvk0VtsNSWtZP04SH+D6mcfw2Rsv4daZC9f81q/+KjzgFHjauXDBg2Bdv24fkSOhsCKrk0WEdeeS7XwxlkxitVuX9enhsvAAnUWiyX/COnvIdryEbNMz8HgXmLowFV8bi8ZX16rKYVEjDyuaaJVAyLt9JYPE8+8lmvwK1hpf1lbajpF6H7fVHs6Hr3kD++cfTeZrd2XYDKoVOPXe8LwnwkPvCwP6CBc5Ylp8lNXLYsKGZ5DteD4MbKSUMytfeiI6fyPxyJ9TmXozlg2Dd1ids+BVxDtYNsqq+3tyx5I61ty36v5oq46nWLZI1Lqc6vDFxKOfxprjy9wlcanrV+NBvOO7/5d98+ev7aACVGI47d7wu0+Dh91PQUXkaCmsyCpmeLSJbMtzybY9CyolDCuHuWPNaeLxz1EdegFx438hNMvRmnlNMixrQX0IwippW3x7SQurDwMZSixF5Vg6Qjz/Yaojv43NXptv+1rmv6/E+9hbP5u/+NbHGKmfvaaL6c1gYAAedga87Flw+r2hqjN/RY6awoqsbhbj8alkW/8PYcu5EFV7PaLjECCpEc1dR2XopVTm3o9lg+QTRimWBMI81lkAW2WTeSM/N8bnMGbJW2xLcTiQEXWupDL5WuLRd2OL4+AJyx1UOj7ADXMX8I7L38tY/SFrupjeDDZugEeeka+o3HsH9FVVoyJyLFSzIqufDeD9Z5JtfznW/iOsPrn0xV1Gnh8iWdtLnH0Qa+8l2/oiQv/Dwdbrm7AgLLTy7XqkrMqVBwOzNpZO4dXtvR6N/EiKZfNEjX8jnvkEtnA11l6ZbohtH+Ca6Yv4zI1/xPDiwwms3RUVB7ZthnPPhF96DNxnZx7Z9OkscmwUVmT1M8PjLYQNP0844Vqi9BNYe7J8Bfe35441DhKn/4Alh8i2v4Sw7jw8PgEtmBZAaGLZodU7O3Ega0FnFKpn9Ho0AuANLBkiXvwn4qkPY42h/O9oud8WI/F+bpw7n8/c+Cpunn7smu76ZQZbN8FjHgLPOA9OPVHPkESOl8KKrBERXtlMuuVlVGvXYtl3IK2Vv+ajPUc0/TWstZfshJeSbXoOHu9Y6hamb8ie8TpWu2VVLqoA+X3TaWGdEVgXlI97yvNuX52biKffRzz7ZWg3VuRhjGN0Qj97ag/nvT94OyO1hxF83bK/b1HFEWzYAE85J29PvGtbr0cksjroK0bWkPz8lfTENxA2nr06HncZkKXY4h4qQ6+jMvkaLN2/IvvT5a44li1grWFIV+nfgQNZGwuHUM1KLzl4h7j+FSqjryAe/wy06iu2apx6H4eaZ/GW736Ikdoj1nRQiQzWDcAvXwTPeZyCikg3aWVF1haLCP0PJ2x9PtYZw+r7WRWTenfoNInHv0zUuJH0pD8lrHsyHm9BKyy9UMOi2dV7wLsZWLJ01soquH9KKcPCNPHMe4inPo81xyCs3N9Fxwe4eeEcLr38PUw1zyT42u3HawYnbYdnPx4uOhvWD/R6RCKri8KKrD22jmzLsyAbo5K8DzoLrI7AEiCtYQs3Uwl/TrbtOrItL8QrD1gdq0glYmEKbK7Xw1g+7ljoYK39y3q4oNw5CwtY+wYq05dic9/FOjMQOiv2/u2wnmumH89Hrns9I/WHLrUnXpsXQRTDabvgFx8D5z4QNqzLV1lEpHsUVmTtMcPjkwibn0No3UA0/S+QraKzMNImtngzcfIxLBla6hb2KIjWo52fKySZw1qzvR7F8godrHYI8wRftUtIBeMZlo0Q1f+LeOZTRItXQGf5z065vbav4+rpi/jsjZdwcP4cgq/dZYTDhz0+88I8qGxZu2dfiiwrhRVZo2JC3xmkO19DtXULtrinxO2Mf4oBIcOaw8TJP2Ctm8l2vpqw7oKl4vsynzVTAp5grcn/x959x1lW14f/f73POXd6b9uru/QmIDUISLFFLAQb9h4jUUwsUX8J1kQTWyw/jSK2oCZixA4SUZAiRWBhl63s7uz0uVNvv/ecz+f7x+fO7kIW2DIz98697+fjMVtmdmfOnTn33M/7fN4FcqnKXb8LYAqQiwNTQCOg59XcsWBzSGE3/tT1+BPXI4kd+z42L0cghLaGR6dO57oNH2Tn1BlEVVyjEgSwajG86kI4fhU0V28DNKXmnN5mVdVJBKQeW3s0Yc97sfUdbj+/kljrhkiO300w8C785HeQaABsrtRHVsEsYtNA3C3mKyG98MmIhZoQye8Em6eiH2tJGTApvPxmYvEPEgx/yQUq1s5bN0PX9auOx5In8Pl7PstjU2dWbaAiQG0Mli+Cd/wlnLJOAxWl5poGK6p6iWD9NqKWV2LaXowN2ipzvWUNkhgk2PNxgqEP4OX+jHuglfhgy0EKYbwqEtfFWsT0IzakcreRSskiJoGf/B9iva/AG/4NZCfnveV6wdayI3US1/zxOgaTJxZrVKpTTQ0csxbedwWsWwa1mp+i1JzTp5mqcm6HJex6H7HCdmT8LggzFbjuMpBP44/9BokeI+q4iqjxZeDVo/csZpNAOIXkBhb+DJ+nY4EoQpLbobagp9FsswWksINg8ht44z9C0qMlaUmesw1snDyDz9/zr8QzRxW7flXcBfKgiUBrHQzEoSYGHc1QExQn1Ffvt0WpOaXBilJ42GAlYeffExSuwZu6H2xU6oOafdZCYQpvYiOS+SRe1yOELW/BBsuKxffqyFkkHIfMaHWMHymESLgLyBe7gulq7YhZi9gEXu4O/LFrkak7kOxQSTZCs6aB++PP4fsb/46hvV2/qluhAH/eBo8NQHcndDXDim5YsxQWtUJ7E9TW7NtY1aeEUkdOgxWlRIAYtv4sTPurkcIQkt5TuXfGwzSS2o4ffh2y/UTtb8LWnYz1O6jmO6azRcwoYqZLfRhzz+JSDBkACnrqzAYbFrt9/Q5/4ut4U49AmJr3QMUi5G0dD46dxw82Xc2OiTOruuvX/iIDyTQkM9AXdx3BmhpckLK827UxXtbldlw6mqGpDuprwff1KaLU4dJgRSnYV7/SehlS2IWf/yYUUlRsXYeNIDuNH/8vpLCdqOtvMfUXY4NOsJ7eDjwCYgZBUqU+jPlhDZLvKxbYq8NnwGSQaIhg8lq8+LeRzAhE0byvcGeK6bcmTuWrD3ysWKNSncX0T6n40hCGMDUNkwnYOQi3b4CmRuhpg1WL4LhV8IzF0NIEdYFLGauJuSBHL7NKHRzJ5Cv19rFSh8fLbSAYuApv/E4gqtwdFnAvuJ5gG5dhOq4g7Hw/1u8CfPQ+4OGwBMMfIIh/EzKTVGywO8N62Po2Cuv/gKk9Hj1nDoM1YLN4uQcIxj6BF78FwohSnDszgcqO5Ml8/I6vM5o5GqupX4dPXJPJGh9WLoFVXXDcajhqOSxuB88Dv3hvSESfPUo9GQ1WlHoik8bL3Ets4NXI9AiYsPJfRcTH1rRg259F2Pkxt/CURr31d0gsYIjtehP+xI8gqoZ2vgLikT/md5iGs0BqSn1AC4xFzDh+8r/xhz6HpPogypTsaLKmgc1Tp/Mvd32F8ew6oiqeTD+bRFwamO+5+SyxwO28HLMKjl/pdmC6W12ty95LhgYvSu2laWBKPZFXh609kajrI/iFjyGZ4creXQE3GTs/hYzdSSzz14Q978Q0Ph/rL9WA5WBZi5BC7Hjlz1jZy0JgEduP2CxWYugS62BZvPwG/PhX8KZuQTIDYEo3AylrGnlw7Dy++sDHiGeOwqI/y9lirUsXC4Fc3l1S0xkYHIN7N0FDPbQ1wdplcPQyWNYJnS0uePG1UF8pDVaU+r88bNBC1PIyJHs/nvmZm0he6ayBQhJJbCAwn8G0b3UzaGqPB9FUkINixkASbmBiNcQqRZLfBXVZkGZd3z4tg0RTeOk/4E9eh0zdheTGwJiSfe8yppF7Ry7hh4++m8HkiVh0h2wuWQv5AuTzrljfAjEftg3AXQ/Dog5Y0gFLOl2xfk+xy1hD3b60MaWqiQYrSh1QgPV7iDreieT3IOEfIUyX+qDmh4mQ1Ha8wnVIfjthx1XYumdivWZcLYs6IBEkPwJRstRHMr8ii6S2Q3OVPD+OhMki0RBe8maC+JeQ5A4w2WLb5/k/nJmuX49MnM33N/4dO6dO165f80n2bdoXQshPQSLhZrg8ADQWu4wt6YCjV8HqHrcD09LguozV1riCfaUqnZ7mSj0pwdScQtT+RiTbiyS3Veb8lQMxFsnEkcKviOW3EnZ9ENN4MdbrBImV+ujKlCCFESQ//61mS8qCZHcjUQqrp8aTMymksItg8ut48euRzDilPFEsQtY0sHX6VD5/778xkj5Gi+lLTIrBy0wAk0xCIgm9Q3DPFqivcbsuy7vg2JWwfpn7e8xzNTE1gfvd050XVWE0WFHqqYgQNf0l0jNIEF0D6QRVsxIVIMohE48SS72NaOnbCduuwvqr0XHlB2KRcAAKaTCluVNeEgYkmAKqYLbMYXHXCz/3B/yRz+JN/tFNFizxdSRv69g6fSrX3P4tEoWVWKupX+Vm/zPERpDJwq4B93bHwy64WdINRy2Do5fD0StgRQ/UHmBlp6ljaiHTYEWppyQgdUSNlyGtG/Fz33azD6qJNZDL4vV/h1jiYaKevyOqPx+kYdFatwAAIABJREFUnupZkR8EaxG7A/xccWVQLUGtgJmAahiEeahsiJgJ/Klr8ePXIan+smi+kDGNPDJ5Fp/90+dJFlZidUtsQdi/z4u17qk3FIfxSbhvK9TGoLUJTlgDaxe5AZU9ra7WxSt2F7PoVVstPBqsKPV0JMAGS4k63oFE2/Hid4GptiF4FslPIJP3ItFHkI5XETW/CusvBtE6FkeQ3GNIVGW1G9YiuXGkMFHqIykvJolX2IE/8QW8sVuQ3GhJu33NyJgm7h25mG8/8gHi6aO169cCtrfLWAhkAYGJaRiZgLsCaG+DjgZY1gPrlsHyTmhrhsZaN5QSdMdFLQwarCh1MLx6bM06oo53I5k+JLmnOqd2F6aR6UfwC19GcoNEHa/GxI7VXRZrgBCSuyAsXcF0aVjIJZHCGNiCzlrBuiL69J3449fiJW6HbIpS76ZYXHvi+0afw/WbrqZ3+pna9avSFIOXRBISFoYn3eDJhp3Q2giLi93FlndBTzt0t7j3N9a74EXQ4EWVJw1WlDpI1m8largU6XwIv/AfSG64uEitIgJEeSTVi5/9OmK3ELa+D1t7PNZvp3q7hRmEKSScqI4hovsTXEK9HUFsuopnrViX9hUN4iduwI9/E0lscWmjJf52WDzypo6NE2fxjYc+wkDyJC2mr2B708UsmAhSGUhmXJex+zZDfR10NENXKxy/2tW6dBfTxeoCqIm5Yn0RDV5UedBgRamDVqxfaXsXXvrPyOStkK+yNrUzrIVCCm/w18SmtxD1vJuo5RXFgKUaLysREo6AX3C9B6oshkVAbBxIAa2lPpr5Zw2QQ8IBgpFr8CZvQrLxsmi0YBFypo6t06fx6bu/xHh2HaA1KtVkJniZqVfJZmEg64KXhx9zs1t6OmDVIjhques0trIbYoHbcfHE7dBolzFVKtW4qlDq8ImPDdoJe/6JIEzgTd7mhrlVIwGMQRK78O3HkPzDRG1XuSGSpV6hzTcbIuFjuBnV1Umy/RBOQ83SUh/K/LIWMdN4ubsIRj+MTGyFMIPr6Vzqg4OcqWfT5Jl8/I7/IFVYib7sq72KbZJDA8NjMDoOD2yFIAYtdbB+JRy7AtYucV3Gmut5XDaj7rqo+aJXLaUOmY+JHUXU/nqkMIgktz6+TUvVCZH0BF7hBiS1gWjRB4gaLgFpoCxWa/PBRkh6jxtLbarwXAgNpAeRQpyq6oBrDWJ24U//AH/4OiTTB1GeUtenzMiYJh6Mn8e/3/8pEvnVWHyq5jmpDkkUQYQbTil5yGZgIgkbtkNdLTTWuaDlqBWwbgl0t7nBlL6Pi8v1tFJzSIMVpQ6H14RpvoQo3IOf/wKSm6BcFiglYUIkN4ZEGST6KNKxmajlCmxsBVRBEa8QIoXdSDQLOyuWA7zyF8+tA60InmyR8MTT8clOz5lA+0gWGyII0whxqqM5qgWbxcvchz/1bbyJ37pApYxuWmRME3cPP5frN72X0fRxWH25VwfJWggjKBRnuyAuVWwgDg9sg842WNQKS7vdjsuSNuhocTsvsUDTxdTs06uXUodDBBssIWp5GV72IST+M4hCqjpgAQjTSOJh/MIQUugjan0NtvZYrFfhdQw2ROgrFprz1Gv1vcHIfgHIzF8t4MfArwGvBisBSAwicb97MfD8YiK5u3xbKb5vf6aA2MjVUkTGnZsmBBuCRCAh2AJCCGEOogKwXyH4/rtDM398ugWIl0TC/qf7TlWAEAnH8XK34498CS/xEBSmyiZQcTUq9Tww9mx+sOlqdk6epl2/1GHZ+5S3bucllYF0FkYnYau4HZfWJuhsgbVLXZ3LcStdx7GgWnutqDmhwYpSh83D1jyDsOsjxDIbkdQuiLKlPqjSMxGSHsbPX4vkHiXqei+m7mys34arPq9AEkHUh0ukONDHKQYpngsy/FqwPtYLIBZz7zMBmBg2aIWmJdiaReB3Yr12sM1YaQFpwnq1xWAmcJ+PGhfIzERJAtisC5xMBFEBMXmwKTAJhARIAoniEI4j6X4kEwfS4BXAi9yE9bAY8BBClHOf7ymCccknITdE5e6qWDBZxIzgT/03/viXkOQQhPmyecgWj5ypZ+PEmXzpvk8xmj5WAxU1awT2XgKMhXQa0hkYjMPGXeALvOAsePn50NaoqWFq9miwotSRkDpM7TrCJZ8g6L8KSQ2VzR3W0rJQyOLFb0XSO4gWvY2o7Sqs1INU2mXHujS41K7idHIoTiwo7ppYCLzi32uxDUuxzcdizRpssBxbvwZbswzrLQGvDSuNYL0nWQAf4J0HOt8OuEp4svNSwOZdGpeZgHAPkutDsrsRuxsJdyDJbUhmFHxb3Kkpfjpr2FtInksi6SHcByutNsKCjfDCR/EnP4ff/0P3fSiTInrYv+vXqXzyrq8xnVtdHPio1ByZOffd04PIgx39MDzhghWlZkulrRqUmn9eA1HDpXjtV+KF3y/OX9GAxd3ht0hmAH/wi3iZ+wi7rsHUrAfqKui2W4TYaSQ5DL5xPT79emzDImzNKqxdjW06Flt/PCZYDV6bC9hsUEzz8l0al/VxO0/+oS2AD/r7+BTFLRLD2jas1wI1yyFmkEaXKoYNoaeARENIuBNJbcDLbkbohXSv25URCxjEm0RMopj2Vyk/XwsmiZ/4CcHYl5HpLS6hv8weXtY0snHiLD5z97+TzK/SGhU176yFsQT0jrrZLUrNFr2aKXXEPPCbCNvfRqywDRm/FXLTZbeYKRlTQLJxZPQWgsIoUee7MA0XYP0eKuKbZEOw05i2E7Gx9djGk7Gxo7FBj0vpsk3gNWD9epA6IChOuH/CYy/Zt6L4hfff8ZIn7sMYbNCD1BwFdecRmSRipiGcRqJ+vPBRJP0QtqEHJAu0zd/hzyVbQMJegvH/H2/850i2D6J02Z22adPMvSMX842HPsJYdh3upb3MDlJVPLEwlYSte+DCk13dip6FajZosKLUrBBszRrC9r8hyI/hhXe7gmblWAOFBN7EPUj+k0Rd24maLsfG1rmdhYX8kiY+NraKcNm/Yb2l4He4HYqZy+veAvX9HuOC21XyXAobNeC3gA92bwpIDmMnkeZRV7hPIwv65wmAQaIpJHs//sR38aZuRnJjZfmczphm/jT0XH7w6HsYSp6ADnxUpWKBbA4Gx2Ei4dobKzUbNFhRatYE2LqziNpei+R63dwNTQfbR4AojyQewY/iSHojUefVmNpjwGvA1TksRDGstxRbu6T493LZMZkDB2ydXIeVxa4hgHvHvB7SrLMFxIzgpe/EH/0c3uT9xd2z8nouu2L6OjaMncN3Hnk/fYmTtZhelZwFJqahLw7dlZQNqkqqQlvzKFUa1mvCND+PqPO1EKtfgHfQ54G1SGoQP/5TYkNvw8/ehoQTrj5iQSsW1VetCnj8NodEg/gTXyPoey/exJ9c04QyDFSyUQObJs/k3+75HHsSp2igosqDhckUPNpb9Y381SzSYEWp2SSCDZYRtV2JabuwAjtfzaIwi4w/QtD7evypryJhH/uGjSg13yxe7n5ig+8kGPwikhoouyBlhmtPfDbX3H4dk7mZGhWlykM2B5t7S30UqpJosKLUbBMfG6wk7Pn/sC0rwKst9RGVKeuGKaYm8Ae+RGzkfXjZO8Hmy3aRqCqRQaIx/OlvEtvzVrzx2yGfAkypD+yA0lEL949ewKfv+TzpcCnGxljwO1qqouRDGBhztSvhk4yeUupQaLCi1FyQekzNcYTd78fW9xSH96kDsgbJxZHxWwkG/wE/8T0378OWXzGzqjA2g5d7hCD+CYKBf0WSO6AwXZwfU35SUQt3DT2fb274R8YzRxXnqGigosqMhXTOpYLl9TKuZoHuHSs1F8QDacA0/RWm7QG86H+Q3KjuGDwFyY0j4b1IoZ+ocwDTfDkmtgakodSHpiqQRGNI5j78yevwJm9BcuNl+/y0CFnTxH0jF/ODR99D7/QpaNcvVa6shUIBNvXCGUcBmlygjpAGK0rNGR/rdxB1XoVE/cjYrVBIlfqgyluURaZ3EmT/GdO5ibDjamzt0VhpLrY4VupIuFHbEo3hpX5LEP88kngECvmy3aAweORMPQ+Pn8PXHvwnRtLHooGKKndhBNv6IRceeKyUUodCc1OUmlOCqTmOqPVN2IZ16FPuYFjI5/CG/4vY8Lvwkj9FbAqsJj+rI2FdW+JoiGD8UwT9f49MPgBh+QYqFiFn6tk0eRb/cvdXGEkfhwYqaiEIQ9g9CEMTkNdLtzpCunJSah6YhucQdb0N29C+3zQ99eQsGIuMP0zQ9xGC+DVI1K8BizpMFkwKL3s3sYHX4A99G8nGyzbta0YmauKhsfP4+B3fIJFfwcKdRaSqjXWXcDbthkym1EejFjoNVpSac4L1m4mano9peyXEAt0TP1gmh2SH8UauJ9b/Drz078Ek0PbG6uBZJNpDMPktYgNX4Y3dC/kEmPIOfFNRC/cMX8IX7vsMifwK7fqlFhwTubqVRFav2OrIaM2KUvPCw/pLiDrfgRS24E3cCWG61Ae1MJgQyY0g0R8Iwgmi9tdiWl6I9ZeCaEqMejKuNbaX34A/+R28sV8iuV6Xn1Lma/5U1MKdgy/kh5vfw2j6GPSlWi1EAvQOw0QClnXpPTp1+PQKqNR88eowwUqizncj2d1IuheiXKmPamGwFsIM3uSfkMIQUdSPaXk5JrYOvMZSH50qNzZEzBSS/TPB2OeRqXuQfLHbVxkvmCweWdPAg6PP5j83vZc9iZPRGhW1UInA+BQMjMP6ZVCvXcHUYdI0MKXmk99C1HAJUdcbsTXdOn/lUFgL1iLJ3QRDXyIYvQYvvwVNMFCPZxGbxMvcRGzgHXjx/0VyY2Vfn2LwyJhGHh47l8/f/68aqKgFz1qIDGzrg4TWragjoCslpeabFyNqfyem/dlQ06hr7UNlgTCFpB/BS/16bxCjlCMQjeClf4Ok+yEqLIjnWM7U88jY2Xz0zm8xmV2HBiqqElgD2/tgZFIv0+rwabCi1LzzsNJE1PEBTPPZ4PmUdW5KubCACLahnajnSgrLryNqf6fLNdBkaLUfG6wm7PxnCmuuw3SeBrVNZX2OpKIWHhi9gE/f82XyUTdWu36pCjKehr54qY9CLWRas6JUKYiPqVlL1PEmJOxHpjYtiLu/pSNQU49pP4Oo9bWYhvOwwVIQrVdRByA1WG8xpvEF2Jq1+Ikb8CZuRFI7ISyU1b2BVNTKnYMv4Lsb389kdg2uPXEZHaBSR8JCMgV9o5AtQH1NqQ9ILUQarChVKl4TpuE8orY34uf+FcmMoBHLAQT12LplmLZLiVpfga09Bes1owu6Q2Gpuu+X+Fi/Fes/Cxtbgld7Av70fyMTdyKFqZK3LrYI6aiZuwafzw8fvZqB5PHoS7KqOAKFEAbHYTIJde1lvcmpypReGZUqIesvIWp9CZK7D79wI4RZNGApEsHG2rHNRxF1vBnT9BKs30F1Zq8aIAIbuiRwLIIp/tns+2fCvtNHfMDDIsVGDh5IQPXdufew/kqi5isw9WcQBF/Em7oZSQ2CzZYkkd7gkTMNPBT/C771yD8wnDoOfTlWFcvC8DgMTsDi9lIfjFqIJJPXkielSsrmkcJ2avpeiUxuBVPt7YwF8KCuiajnCqK2t2FqTgXrVeAtObtfwDHz52jvnwVb/FgWiSbBTAE5hDSYrBuQadPu3+8NWsR9r/wW8JpB6rC2Drx6F+xJI1ALCFYErOwNbFz9T/HPthJrgQzYHH7qpwTDn0WSm6GQ4XEB3xyzxa5fj4ydwz/f/VWm8yvRQEVVMgu0tcALzoQrL6zAy4qacxqsKFVyFkwaP/0Hgj1/jaT3VHfbFK8G27yMsOtDmOYXYoMuFnxnpMfN9xAXlIi4eSB2EomGkbAPMv2I6UPsEGKGIDuCTO9xAawXIv5M6pIt7qBYELvf19h/FeDty/4ScRszkQ9eDdS0YpuWQ003liXuLViGrV2GrV0BXg9W6mf+c/HN7Pfnhcy6GwRhL8HE5/FG/wvJjs/bcy5tmtkQP4+P3/Uf5KNunUyvqoLvw4lr4R9fAzUxDVjUodFgRamyYMCkCSa+gD/8dSTTX30Biwi2tgPbeiZh14exNcdgvZZi6tJCZff+LmYaTBzJDyLhRrzCo0hiC5IbBi8DJg+FPER5IEIIXdpXmGNfUHKE54Qt7lqJD34MJMASgMTc32O1LliMGrHNq7H1x2Fjx2Jj67CxxVjpBKlh3+J6Aa84bA6JhvGSvyUY/xIysaH4/rl73iWjNu4fvpAvP/ApxrPrcSmNC/h7qNTBEli9GK6+HNYsAb8as3nVYVvIqwClKogH0kjU8kokswk//DXkp6ia+hUvwDasJer8K0zrKzCxY9wCesEt5GZ2OTJINI4UBpBoJ5LeguR3I3YQyQxCOAE2geTTbtdk5mEau7dF875PaR9fi3Kkx2ej4lsBAJlZnHsCxQxEsR7kHsXGbgeasbU9ULsYaxdjG47C1q3H+Ksg6MF6bcWamAW26yK12GAZpukywtgS/Ni38KZ+B7mpYjre7EpGbfyx/0X8YPN7GM+uA21PrKqJhWQGtg3CqsV69qtDo8GKUuVCBBtbS9T+ViTfjzd5t7vbXtEEglpM0/GYjjcRtbwIGyxnQS16MS6tKJoCM4oUBpHCTrzMBiTxMMIAkh2BMI3LxcIFJSIHDkSEx79jtr8Vez+fffzfrd3vy0aQTyH5FMgwkt7ughkCbF07eN3Y2jWYplOxtcdi/WXY2BLwOrB+MwvnpcXHBt1E3oXYRSvxg068yZtcQDlLzz2LRyZq4r7hi/jR5nfTlziJhfP9UWr2ZPPwaC9ceBIElViCqOaMpoEpVW5MCj/xE4LBDyPJPip2d0V88BswHScSdn3KtST2W1gYgYoBk0VsBmwSye/BS/8OL3E7UtjmgpMoB9H+P7tK+DnK4//oexA0YBvXYIITMC3PwdSf64r7pRErdcUdsgWQ82ENYsbwk9fiD1+LpPohyhzRpzR4ZE0jD4xcwBfu/0xxR6V6ApWZxaiuMhRALIBFHfCZt0NTnaaCqYOnwYpS5cZaxIzgT15L0PdPkA8Xxvr9UIgHNS2YjosoLPoM1l9RXNSWs5maEYOYHJK7Hy95M17iFrzEQyB5KNhiYylbeT+zJ2OLD9QHfB8b68C2nYupv5So6SJsMPOzLdbLlDULNouf/DnB8D8jUw+7lLnD+kxC1jSyIX4eH7vzWrJRD9WS/DKzWVgbc08HY8GE7gO64qhuzU3w4VfD+mVQpwMi1UHSYEWpcmQLSH4nsZEP4Y39sjh/pQJYwBNswypM1ysIO96N9TrLvD7FXSLFJJDCVrz0TXijN7quXfk0FHJAfk7qHBYcKbZN9mqxtfUgTdiWM4haX4Rp+Ausvwq3YqWMc0Bcswsvu4lg/KN4Y7e4xgeHKBW18uDIs/nX+75EqrAMY6tjR0UEmhrgeWfCBSfCaAK29MLWPjdnYyTuNhztLPSLUAtPXS28+C/gxWdDa2Opj0YtFBqsKFWuTBov9wix/rcgie1HnJJScjOBSuvxRB3vIGp9CdZbUizOLkdu/onkH8PL34uXuBkv/TBkhpD8OFAAowHKk5JiwX3QhI11YutXYpvOIGp8Prb2uGKQWq4DKl07cS+/FX/ya3ijN7if+UG+XCaidu7sfyHXbfwHRtNHUy07Kr4H3W1w6RnwnFOgrRFCA5k8pDKuwHpkErYPwLY+iE/DVBLSmWKcyxO6fKuKE/Ph+HXwty+BntYyvmehyooGK0qVLQsmg5/4IcHAJ5BML5jDS0kpORHwfEzzaUQ9f4NpvBjrLS7TV6oQiSaRwja89J/wUnciqQeRwhAUku62cDkedjkTAfGwNa1QswbTdAam8VxMw7OKaWK1lGWKmM0jhR0EE9fijf0Eye4p5jM9Odf16zJ+tPk99CZOpFpqVDwPlnfDxafB+SdDZ/P/bWoHUIggkYbJpNtpGYxD/5gLYkYmYDoD2SxE5vG9H1Rl8ARamuFjb4DVi7RuRR0cDVaUKmsGiZIEw/+AN34Dkh0u9QEdOhFXSN98AuHiT2DrTsP67aU+qicoDgo040hhD17qNrypG91OSj7l6haMBilHrvgN9GLY+sWYpjMxba/E1B4D/pIy7SRmkWgAf+Jb+PHvIuldBwxYXDG96/r1Hw99lMHUsZTfY5l9Im4BurgTLjsH/uJEt6PydGZWHpGBVBbGpmH3CGzrh52DkMxCIgnZAuRyUAg1a6xSiAfvvQLOOgYa6kp9NGoh0GBFqbJnkcI2YoMfxhv7BUQLqX5FoKYJ03IC4eIvY2qPBakv9UHtYw0QIiaFhHvwp/4Tb+qXSGorRDOrI71Ezg1xK93aekzr2UQtr8Y0XIj1u8Crp7xSpywSjeNN/zfB8CeR1ODjCu8NHumomQdGnsNn7/8c07kVSFkd/9wJfOhsgzc+F575DFevcqgs+4ryrYVMDoYm4LEB2D4Em3fD6BSEEYQF97sxuuOyEHke1NbCy86DFzwL2ppKfURqIdBgRamFwIZ4qZsJhj6KN3XvwniVtkBdg+v41fVpbM36MqtRcJ2fvMJm/Onv4I39GMmMQVQoBjEL4HtcEQTwoTaGaToV0/4qopa/wno9+328HLhdTi/1G4Kxv0fGB1xaprhi+vuGL+FTd3+dyLZgq2BHBdzCs7vd1R8cvQJqa4rjeI7AzKXN2mIXMeOCk4EJF7Rs6YPtgzAw4t7v/vG+sUWqvNXVwaXPgivOg/amMs0EVmVHgxWlFgJrETOFl7yRYOCDSHIYpJyfugJ1TUTdLyZs/xA2trZYl1AOLJDHy21yOynTP4d0HClMHXabWjULRMCrx9a0YutWE3W/CdP0QqzXBZRLW+sIiabwcncSDP8dTO4mkWvk/qGL+fcHP00itwKLR/kEWHOnJgbLF8Gbn+sClbqauVt4GusCk0IBcqHr5j5aLNTf0gt9cRiZgky2WNZX3KZ54rxVVToi0NYMF58OLzrTdQILqmPzUc0CDVaUWjAsEvYSjH8Ff/Dfi+1Uy/HpOxOovJyo7W8wsWPBK4fEZFeX4uW34KV/4SaVpzYjubi2HS4rAn4ttm5pcaflckz9uVh/KWWRGmYjsGn89M1kB77CbRuP5fpH3slg6hhEyuD45kFDHRy/Bl58Dhy70s1Tmc875BYXvGSykMi6Yv2xBOwZcfUuA2MwlYZEYl9q2d6neOXHkWVHcDtwF50Gl5wK3a1uV06pg6XBilILic0jhd3EBq/Cm/gjhKlSH9HjiQd1LURdlxG2va+Y+lUGOyo2g4TDeNk78Sd/jCTvRLLjLuVLlSkBP4ZtfAam7flETX+JrTkJG7RT6s5h1lry+QwPbLiD7/1+JTvH1lVNoNJYDyetg8vOgmNWuB2WUrIzBS9AMg0TSRiehN3D0DcCY0mIF7uMZbKQy6NbLvPI82BJpwtULjwFuls09UsdOg1WlFpoTAovcx+xobcj0zshOvSBdXNCPGxNG3bRhRQ6/s3dCZcSjyi2EWImkcIO/Ilr8aZ+hqRH3W1WvfQtDCIQNGCb1xO1v4Oo+blYv7vYqGH+gxZrXRrS5l7LN28Sdg9aorDyV18ibqDfiWvhNRfBqkXlmcazf81LPoTxJAyOwZZ+2LTTpY9lC5AtdhgrhDouaS5IsX9GVxu8/AI461hXo6LU4dBgRamFyIYuHWz4C27+SsnTmARqmjGd51NY/FWsv5jStm21YEPETOEn/hN/7NvI1IbijBS95C04MxPvY3WYrosJ29+NrTsdK40g83eeWQu5AuwYhC/+DwzH9yvyrmAibkfl1PXw+ue6NJ6FMB9j/9WNiPvZjSdg5xBs2QNb+2H3EGTzEM10GDOAFusfERG3o9LUCG97AZy2HpoPo0ucUjM0WFFqIbIWMRMEIx/Aj/8YspMlzMUuLiLbnkdh8aextWvA+iXc6y92+cr+mWDin5GJPyHZabBlsgOlDp8ISB22oYOo601ErVdiY0fNfHDOv3wm57pRfeVGN8AwfOr5kBWjtRnOOwFedRE01blAZSGm8sx0GAsjN9/FGJhMwWNDsGm3C2J2D0M6s1/gog6Z78OiDnjLC+HEVW5H7ki7xKnqpsGKUgtWhJfbSDDyj3hjv4awBItxC8RqMB2XEnb/I6buRJBSFtMXkLAPP/Ej/Pj3kXSvq+vRVUdl8QJsbRe27VSi9ncS1V8w52lhmRw8vAu+czPsGXKL3UonAp2tcP4p8JdnQldL5RVGhxHkC5ApQDoHiRTsibudlx39MJGGySkX5GB1x+XpxAJYsRheezGcsNp1idNARR0pDVaUWshMGj91M8HwNcj0huIr6jwRAfEw7ecT9nwYU38meAcxunouWIvYaSR7H/7E9/Amf4fk+ub3+6HmX6wJW7+WqPsKoqZXuTopb/aHjqZz8MB2+MkfYXtfdeyoiMCSLrjkNDj/ZFjUVuojmlszhfrWunqWRBbGp12x/uAY9Mfd20QCEmmXOub+YymPurzU1cLRq+Cys+Gk1TqdXs0eDVaUWuAkHMZP3IA/9LF9xePzwavFthxHYclnsfWnYb2W+fm6/4dBwgG89B/xx76KN/0A5JPaorRaiA/1zUStlxN1vBFbezzWa2U2ToCZGpVHdsP1/+vutFdDoOJ5sLgDLjsHzjkBOptLfUTzb/+VUT50rZBHJmDXkKtZGhyDRAamU67DWC5fHfVLByK4gaBHr3HDHo8tzt1RarZosKLUQmctEu4mGP04/uiPoJBmzm/3eTFs0zLCZZ/D1D+nuDicbxZsDonG8Ke/jj/0bSRbnCquqoyA72G6ziFq/1t3TvqtHMlcFmvd3fNtffD1X0HfcOUvRkUg5rsalSsvhjOPhpYSbZaWE7v3FyeyMJVyOy07BmHrHhfETGfc4MowdAX7URU0HRRxc3aOWgVvuBRWL3J/V2o2abCiVCWwIRKQJrqnAAAgAElEQVT1UbPnZcjkoxBl5+5riWAbVhAtfR9hy1tLN0fF5vFyjxLEP4g39gcoZNGcjCpmAc/DNiwn6n4DUfvVxYDl8HZYcgXY2gefvwHik27xWel8H5Z2weueC6et00XnU9k/gIkMpPPQOwwbd8O2AdjeD2NTxYGUUfHfVuBub30tHL8W/vpFrqapHNtZq4VPgxWlKoIFk8FL30Gs/6+R5M65SQezYBuWYrquJOz+EFZa3CDI+WQtYpN46VsIRj6KTG2HaB52k9TC4NVga9sxnRcTdn4M6y8D79AC6nQONvfCf/wSBuMuUKnks8vidlSOWglXXgRHLdfC6ENh7b65LmEIeeMaMgyNw+Y+2LIb9ozBxBQUZgKXmeBlgZ5YItDU4ObuvLHYzjooZRNIVdE0WFGqYhgwKYKxr+KPfBXJ7pndHAQL1LYRdb2csPv92Nha5v9WoUWiEfypH+CPfxuZ3gJmDneR1MIkPramFdt6pguqa04s7rI8vXQOHtwBP/o97BqojlSemhicsBZeeq6bSl9fq4vOI2WK9U7ZvKttmUi4Yv3dwy5lbHjc1cFks8WhlAsocBGBtmY36PFF58DyTlfnpOeMmisarChVUSxS2Ekw8gm88Z8iuUlm7RXQr8F0XkLY/RFM/enM+9BHU0BMH/7k9fjx7yDpnRCFFZlaoWaDQCyGaTmHqOtdmIZnY/3up/wfmfy+rl/b9lR+Mb2IC1ROXg8vOQfWL4OGEmV1VqqZFdbMUMpkFiamYXACBopdxobGYXwKkjlIp4uza9k3oLKsiEv3Ov8UuPhUWN5Vee2sVfkp5YhppdSsE2xsLVHHW5DcTqRwF5jcLHxaD9t8FGHnezG1JzHvlw6bRaJegolv4I1+F8nF3e3IcnshV2XEQqGAN34bYqcIu9KYhudig26eeOLMpPBs7oUf/h56Bys/UPG8ffUGr78ElnRojcpc2H+3oTbm3jqaYO1SdxYmMhCfgt5RN9tlW5+rf0mm3K5MPg9hmezu+b6bSn/BM+GFZ7rUL91NUfNBd1aUqkQ2i5/8OcHg3yNTe0CO5GnuQV0zhVXfwDRcgvXneeCCLSCFrQTjn8If/jGEhfJ45VYLgwV8wTY9g6jzzYTt7wJp2FtrtbfrVz985WcwNFb5gYoINNbDM4+CNz8P2pu0MLpU9l7KxKWO5fNu12XHADza6wKY0Sl3byYKXVqiKUHw4vvQ0gzPPwMuOxOaG+b366vqpsGKUhXJImEcf/L7BAMfdCOaDycdTARb045Z+nbC1quxQSdzOSX8/7J4mbsJ4p/EG/tfiHIaqKjD4wXY+h6irjcRdb4P6zUXAxVh8x7495+6AugwqvxTrKnR1Ru89hJoawRf6w3KhrXFgKT4e6EAI1OuM93DO2FPHIbiroBfxAUuHnNb7iJATwe89DyX+lUX0/NFzS8NVpSqVLaAhH0E8Wvwh2+AMHWIn0Ag1oJpO4PCsm9j/R6QeUr/si5p20vfRTD6cbzJu6EwOT9fW1UuL4at68J0vYaw4yoy0XIe3i1c9xvoG3Ejeir6BVGgvQWecwq88CzoanZ3zFX5MtYF0Pk8ZAuQDWF8Gh4bhE27XfAyNgWZjPu3s3oCWzdzdUU3vOzZbu5Oc6Nm36r5p8GKUpXMZPDyjxL0vwMvsenQAha/BtN2KmHPpzCN5zN/OypuMIGX+j1B/N/wpv6kgYqaPZ6PrV/MZMNb+dPIm7nx/mU81i9VkfrV3Q6XPgvOPxEWt2th9EJki8FLJueGUI5Nw8gkDI67gLt/FKaykEju18nuMFd5ng9rlsBl58Dp66C1SXdUVGlogb1Slcyrx9SeQNT1t0j4CST1GJjC0/8/EWzDckzbqzH1ZzKvgUqUwsvd71K/pv4Mhel5+tqqGlhjmZ4ucMfWNDdss/RXwcDHwIfONrj0dLjomdDZojNUFioRiAXuraURlnW5VLBMDiZTrj3yriH3NpZwncemU+7j2bz7uRv71LsjIm7Hbe1SuPzZcNJq97WUKhXdWVGq4lmwGWKjH8WLfwfJjDx9Un6siWjxWwg7r8YGK5iXjX9rwabx8psJBv8Wb+pBCNNz/3VV1TDWJ2VauG3P5Xxjw0eYzq9EKvxWcSyA9mZ42Xku/auhTu+OV6InXtJzIYwnXHvkrf2waZcbcJoLix3GIvf2xEBdgNoaWNoNb30BrFuqc3dU6WmwolRVsEhhD8HQh/DjP3Ltjp7sxUc8TOc5hIs+jak/m3nLULYRXuZeguEP4k3cXpyUptTssAjJqI3b+17KF+7/HKFpqfhAxfNhWTe85Fx43umlPho1n+zeX5zIwFgStve5DmNbB6B3GJLp/brAWwgCWLUU3vkiWL0IajT/RpUBPQ2VqgqCDRYTdbwBMbvw4nceeHdFPGx9O1HX+4vzVOZrMWfxMvcQjH4Sb+peDVTUrJssdHPXwAv5ygP/grGNFR2oSPGX9StcoHL6+lIfkZpvsvcXJ/Chsxlaj4JT1kIhcjNedgzBIzugdwxGJmBlD7z+Yvd7oCtEVSb0VFSqWkgNtu50orZ3Iek+JLUHeEJQEKvHdL4OU38aePPVSN8i+Y34Y19EJu/U1C81uwTG84u5dffL+cGW95AJuyo7UCk+tOPXwBXnw9HLdSq9cgLPvRFzmy5N9S6AOX4lpHOQykJjnWu+ENPVoSojejoqVUWs34Zp/AuirtcShF+AfBpsMWDxGzBNJxC1vRHrdTA/RfUhUuglGPsi3tTvkcLEPHxNVU3G84v57a5Xc+P2tzOeWVXxgUosBiesgcvPg/VL3fBHpZ5IcLstge9qUhD2po1V8FNELVDauFCpKmP9RURtb8G0XQBBo3tlEg9b003U8XZM7BkgdfNwICESjeFPXocX/zmSG5n7r6mqhrE+02Ent/e9mBu2/Q1DqfWIVO5Lnogrnj92NVz5HDh6hQYq6uCIuFhFRAMVVZ4q98qtlDowiWH9RYTd/4StXw5eDIJGTMuZmKbL5ydQwSBmCn/6fwiGv4zkD6JDmVIHyVifZNTGH/ou55sPX8Noek3F76g01MEJa+HtL4R1y6C+ptRHpZRSs0PTwJSqRl4dpu4Uwu6rCaLPYGM9RF3vxvpNMB93n00GL3MX/vA1kEtooKJmj0AydIHKF+7/LFCPV8GBCrjUrzOPg9dcDN2tOkNFKVVZNFhRqmoFmOaXERV2gt+NqT1xfgIVG+Jl7yaI/yOSHgNb4RP51Lwayy3htj0v47qNHwYaqOQEAgHq6+HCZ8KLz4GOZg1UlFKVR4MVpaqYDTqIOt4O+OA1z8MXtHj5TQTxryOTWyF6inkvSh2isfwSbt71Gv5n2ztI5BdX9I6KJ9DQAH95thv22N0KMb/UR6WUUrNPgxWlqppgg1Xz86WsRaJB/PFvItO3QZjSQEXNCoswkV/ELbtfxc92vJV4Zk1FByqxAFqb4KLT4PnPgvYm8Ct3A0kpVeU0WFFKzT1rwObwUjfhTfxSO3+pWRPZgGTUym19L+NHm9/DRG55xQcqnW1wyelw2ZlQVwOeBipKqQqmwYpSau7ZPF5uM8Hwp5FsrxbUq1lh8EiaNm7tfQVfe+gT5KPWig5UfA8WtcNl58DFp0FNoK1mlVKVT4MVpdTcsgaJ4gTj/4Ck+sBoQb2aBQIT+R5+33sFX9vwCaxprPj2xCsWweXPhrOOdTssFfxwlVJqLw1WlFJzx1okGsaf+BbexF1gMuwdk6zUEYjnl3LLrlfywy1XE0bNFb2jIh48Yzm85jlwzAo3Q6WCH64qE/tvgOv5pkpJgxWl1NyxKbzM/fgT10M2gQYq6ogJxHNLuWnna/nZY29lKrusogOV+lo4ZrVL/TpOp9KreWAtFELY0gfGQkcLtDW4c9H3AavBi5pfGqwopeaGNXj5x/DHr0VS29FARR0pg89kvotbe1/OjTvexmi6srt+NdbDuhXwivPh6OVQEyv1EalKZyykMrCxF264HQoFWNIBa5bCqh5ob4amemiqhdoarZtS80Myea10VUrNPjEJ/PHPEQx+EXKTaLCijkRkfRKmg5t3vYbvb3w/ifyiig1UBKivg+PXwisvcIFKhT5UVUaMgVQWHnoMvvUbGJuA0ADiUhHra2BJFyxug2NXwVHLoacNagOIxSDwXRMIHUyqZpsGK0qpOWDxMr8lGPgI3uR92v1LHRmByUI3N+++kq89+CmgDqnQIT0CeD5c8Ex46bmwepEGKmruWQvZAtz+CHzvFhif+L//RgArxXPUcwFKTzusXw7HrXTBy9IOqI09/j/p6auOlAYrSqlZZpBojFj/W/AmfweFlAYr6vAJxHPL+F3vy/nOxg+RCzuwVO5gkVgNXPRMV6OypMOl2Sg1l6yFZAZ++2f4xV0Qn4TIPP3/8zy3kxL4EMRckNLWBEevgGNXukC7p22/WUBasK8Ok14GlVKzy4b4U/+NJB6CQloDFXX4BEZyy/nNztdx4/a3kSl0Vmx7Ys+Dpka4+FR43rOgq0UDFTX3IgPJLNx4B9y2AeJTBxeogEsbM8YV45ODhMBUAgbH4L7N0NoC7Y2wogdWL4YVndDRCi31xUJ9dNdFHRzdWVFKzR6TQwq7iPW9Fm96I0TpUh+RWqgERnPL+fXO1/GLHW8mnl5T0YFKRwtcdBo8/1nu7nTML/VRqUpXiGAyCb+5D357H0xOH3yg8nRE3EaKAI0N0NIAna0ucFna7mpfelqhtQka61zdi6aMqSej922UUrPEImYaf+qHeKktGqiowxbZgETYzi27X8FPt7+dycyKig1UggA6muGCU+ClZ0NTg6bIqLmXK8BYAm65H355t+sANpu3rmc+lwWSafc2MAoPPwYxDzrbYXEHHLUM1i+Dxe1QVwuNNVBT7DLmV262pzpEurOilJodtoCX20Rs90uR5B6wYamPSC1ABp/pqINfPfZ6vrfxg+TCjooNVHwPOtvgJefCxc+EhjoNVNTcCyMYGINf/gluvs+1J57PlaBQLF8pnuu+Dx1trjXyM5bA8athRTc01rrOYoHvdh89T3deqpUGK0qpWSGF3QTxz+EPfxVCDVTUYRCI55Zw8+4r+eaGj+FRg6Vy86EWdcAbngunH+XuKmvLVzXXjIHeUTdD5Y6HIT/PgcqBSDH9S8TtNHq+S4V8xnJYuwiOWeHSx1ob3HNEA/rqo2lgSqkjZ0O83Aa8xM/cbTulDpXAcHYFv911Jf+15d1AHbZC76PGYq5L0lteAMeuKHZLqsyHqsqIBXYOwfW3unSscghUwB2DBbAQ5d378nlXQ7NhKzTUQ10Aq5fAuSfBOceU8mhVKWiwopQ6MtYi0QBe8mYkPYgOf1SHTGA4u5Jf7HgTv9n5epL5RRWb+tVQBysXwxXnwwmr92vrqtQcyhVg2wD85HbYuBPS6fK+UkcRZELICEynXTA/OgWTKThhBTTV6/OmmmiwopQ6MmLwsvfgTf/vvttiSh0kg8dYbgk37XwNv9n5esYyqyo2UGmsh/Ur4GXnwclrXK5+ZT5SVS6shUwOtvXDj/8IGx+D3EK5TM88OSwYC6ksjEzAnlE3gFKDleqhwYpS6vBZi9gpvOlfIuld5ZFToBaMyAZMRx3cvPNKbtj2NyRySyo2UGmog2NWw8uf7QbmedqmVc0xayGTh6398N1bYMtuyns75elYSOdgax88YynESn08at5osKKUOnwCkrkHL3E/RNlSH41aQCwe01EHv9jxJr6z8cMY01ixgYofwEnr4ZXnw7qlWiCs5p4t7kY8uAP+6w+wbQ8LO1DBHX42B5sH4NJZmgejFgYNVpRSh8kCIf7Yd5Fcr+6qqIMnMJJdxk07X8t/Pvo+sPUVGaiIQCyAC0+Fy89zRfUV+DBVmbHW9Tm57WG48U7YM8yCD1TA7UQWQtjWC+k81GsHvaqhwYpS6vCYPF7ufrzMfRAmS300aqEQGMqu4lePvYGfbX8rhai1MgMVoKUJLjwFXnCGm9atU+nVXDPG1aTcugF+cTcMj7muX5XCGEhmYUc/NK6FhtpSH5GaD1qepJQ6LEIWf/qnkB0Do+2K1UEodv365Y438avH3sB0bmlFBiqeB93tcNEz4YVnwaJ2t8Oi1FyKDEyl4ZYH4Kd/dBPjswulmP4gWeuGWG7c5R6bbuhXB718KqUOnS1ANIY39TMkTJX6aNQCENmAyXwXN+18Db/a+QYmMisqN1Bpg+ecCpeeBt2tmvql5l4UwXgS7nkUfnw7TEy54KUSRSFs6XddztqbS300aj5osKKUOmRiknjp3yPZXWBypT4cVeYifKaiDm7c8VZu2HoVmUJXZQYqAm2t8JJz4byT3BTuynuUqtzM7Kj874Pw8zvdMMVKZizsHITpFCzuAF9zhCqeBitKqUNkwcTxkz+BQoXeulOzR2Ai38MvdryZ7238EL7UVGag4kF9A7z+EjjzaDdTpfIepSo31kIyDT++DX73ICSqoHzQWshkYOcwrOxxzzVV2TRYUUodGltAcr3I5N1gtVZFPYViMf2vd7yOH2+7CpFabAUu4YPA1ai8+flwwio3U0W7FKm5FkZuR+W7N8O9WyCVLvURzR9r4aHtcPIzoEFvDFQ8DVaUUodEzBhe5vdIfhLQnRX1JAQGs6v52fa3cNPO11Vs6lddLaxcDFc8G05eC3Uxnayt5l4+hKEJN0Plvi2QSrn0qGqyJw6jk7C0A41WKpxeUpVSh8AihV14iVsrt3pTHTGLMJRdyc+3v5mbd72WiWxlFtM31MH6FS5QOXUd1NdooKLmXib//9h77zBJr+pe911fVXXOM9OTg6SZ0WgUEZJASEKAyBmbQ7B9sA3HxjgezLk2D/j44utzHu7F8QSMsTk2NtgYsDHCNphgjA0CJITS5Nw5p6qu/IV9/1hV0zWtUZiZqu6u6vU+T6mDer7aXf3V3vu311q/BQMT8LlvwfeOQHodChURmE3B2KwtResBi6wYhvHscQGSfQIpnFrtkRhrlNDFSYYb+KczP80/nX0XqcLWxkuJEhUmV2+Ht70IDu6GJltNjRUgV4Th6aWIit9APVQuBedUpI3NqitYR6u57jUyNr0ahvEscUiUxMs/geRmaIiWyEZVifBIhhv44ql389kT7yUIuxtPqKA9U67bo8X0e7ZA3Jo9GitAEMLZcRUqj57QBonrGoHBKZhJqVgxGhcTK4ZRzzi3LFe3tjtDKZxCMo+tv5wD45kRmM7v4B/PvJO/Pv5fENfaeCedAq0tcMteeOcrYGOX2aYaK0MUwaEB+NQ34Nyofm2zMEzMaKRpz+bVHolRS2yaNYy1jnNLbXqdQ5eo0kNCxC0i4SgSnAECareEObzc9xB/sEbXN+oWgbHcHr546me5/8y7cVEbrtGWF4HuTrj7Bvipl2uzx0TcUk+M2pMtwMOn4JP/DEPj4AcmVADEQTIDxwb1/My62TcuFlkxjLVEZaTEOSBCXBbIQphBggUIpxDmkPwUFCYRtwCShkQX/sY/AKlFTopDogySfhApzl0komOsW84LlXfzjcEfY7GwpfFSvwQ29sBdN8CrboftG0ykGLXHOUhl4dEzcP93YWgSiuu0RuViOCBfhPF5fZ16OlZ7REatMLFiGCuOQ3f6DlwA+IgrQJSDKIeQhSgDYRoJ5pFwAqIx7W1SGEPCGXBpJEhCIQNRAE1dhJteXxIRtdhFOaR4DvHPQZg3oWIAEBFjprCVfzrzLr4++BMs5Lc3nFCRklB58a3wsltLNqmGsQIkM/DwSfjCd2BwAgunXIQogvlFLbTvacfWpgbFxIph1JRABYkLwYUIAbgiSARRgIRzCJOIP4xkT0JuEJFpxM1CcRrJzuq/FzTOHbG0YAnnxYmjDZe4tXbHvc4h+SeQ/Extrm/UHaGLsxBu5P7TP8v9p99Nxt/UcEIl5kFHO7z2Trj3Jq1RMYxa4xxk8/DAYfiH78PwFCZUngIXwVwKTo7AwV2rPRqjVphYMYwrolQ74mRJPMB50SCRRkakOIDkBvRjbATxR2DxHFKYBXxtd+0Avxx1WXb9SmTZ5x7Q3EXUcgO1K0NzeP6DEKVUNDXYptS4RAQW/I18/sQv8tnj70OkueGEiudBW7s6ft11PXS0rfaIjPVA5CAM4SsPw5e/D5Nzqz2itY0I5PJweBDe+ILVHo1RK0ysGMZT4p78qZS+cAIEiMuAm0fCWaQwiQTDiBtCiucgO4BkJqApAALwAyQIgFCjJZGvERecVgq6izzvsxym8zpwzXtBaiFWIoQi3vx3kTBdg+sbdYXAWO4q/vH0u/ji6Z/Hk2YaTb3GPNiyAd52H9yxH1qbV3tExnogcpDJwj88BF/9ASykVntEax8HFHwYGIOpJGzoNCvxRsTEirHOqVAhTyoajxC3CNEi+EkknEfcFBKNIYVRyI4ibh4kC+EiUlgEPwteEXF5CPIQFcGveCpXETm5oJj+CoYfS0C8HxfrpyaRFVdE/FMQTurv01j7UuNSEBjNXc39p36Grw28g0LQ23ARlXhcmz3+yF1w8zXapb7Rfkdj7RFGMJPUtK/vHILkovZVMZ6ZKIJCAKdGoGu/iZVGxMSKsY5YpghcoKKCPERZJEiBSyJuDoIFpDADbkKjJsUJyM0gLgleFgnSKkxCX6Mi5ctXPkVZjDxJiJRTxarwK4ngmjpwbftAWqp00WVPERWQ7A8hylf92kYdITCavZr7T/8s3xh8O8nCtobbxMfjsH8XvOFOuOUaaG8x1y+j9gQhjM7C138I33xUO7OH673h4yVSLMLRIbjpamhtWu3RGNXGxIrRgJTFQwgUEFfUlCsK4PIaKQhzEKY0ShIOIflBJHMOcTPgpaCYRApJIFLREbkni46nFCMlVmqTE+smajlYm2s7B66Al/0BUiyakf06JXRxFvxNfOn0z/DVgXeQKmxtKKHiCcQTsHsr/PiLYf9OaLPUL2MF8EOYnIevPAT/+pgKFePS8QM4PgzFsIammMaqYWLFqFPKYYxI7UCISo5bASKlz6MFJBhA/CEkdxbJjyCxSSSchNw4kpvjfHF75CAsp2hVpoQ9zeZ8LUyGAtCFi+2r4fXzSPhYydWMtfF7GytGSIyFcCOfPf7L3H/65yiGPQ0lVARoboKrdsDPvgp29UNzYrVHZTQ65TOwmRR89t/goaOQzq72qOqXIIBzY7CwCN1tkLBUsIbCxIqxRlkuEsohjNJu2QWIpJFgEoIxFSL+OcSNIMEZJDOOZCcgoZbBBE7j6q4scEofKYuUyuetI7crT3BtW3GJzTV6AgdhBm/hiNarGOsLgen8Dv7u5Hv4/IlfIdZorl8OWlrg4FXwntfBhi7b5BgrQxipUPnol+DEoDpaGZdP5CCI4Ogg9HdDon21R2RUExMrxipyQcOQimhGyWkrymp0JJzXniPRuDpt5c8gmQGkOAMJv1TEXoSgiOCD8zXtK/JVpFQ+VQPi4hshXqNOdVEWLzgFLqu9YYz1w/li+p/lK2ffiSctqz2iqtPRDrfshR9/KWzqVhcwSx8xak2+COOz8LF/1GhArmAZttUgCuDxs/Dc/dDZZu/lRsLEilE7KmffJ00aoRa3uxSEGSRMaad2N40UR5HcNLhZhCT480g+CWEaYnkkyKrTVlhcMr9y6NEK6Az1TPUkjYCjZKHcj5PadKsTl0Xyh9RuxVbT9YPASPYa/v7Uz/HNobc1XsNHBz3dcPcN8PLbtCu9OQgZK0EmBydG4O8fgBND2lPFptbqMTINqYy+p43GwcSKUR0qxYEABEBBC9ldDqIMIqWi9qAkQKIZxI1BYRLJjyLRHFD6/8WsHpOUGy1GVF586fkqD/vPb6bqKI3rShCBRJumgNXCCcw5iNJI5iiYhea6IcJjMrerJFTezkJ+e2MJFbQd0a174ZW3wc5+jagYRq3J5OHQAHzxATg2qHUWRvUQYDYJUwtw9VarPWskTKwYl4FDd68hREXEBZp6hQ8l5y1xKXXZKg4gudNIbghic0g0C4U5JL+o6VuxUnH7RTOMLnbcVEXb3wbAtXThWjZRkxdEQKIkEg01doTKOE/gEiwEm/jCyffwtYF3kC72N55QEfXU6OmEhRy0JLXAvimm9SqJuP6MpZAY1cKhNSnHhrSY/vSw1qzYLVZdHJpid2oEbthjYqWRMLFiXAS39Di/SS0VowMQIiSRYBLxzyC5AaRwDpEx7dyeHkaKKfBKkZHQqbZxXJiihVuqKTEuD+mB+GZqZtMVLSJumsbPqTMcHgvBRj5z7L38/cmfx9HWcEIFdPoJHHzh2/Cl70J/D+zdDtfuhAM7YfuGpY71XskcUDDxYlwezqmt7iNn4NNfh5Gpi/QfNqqGi+D0GMwtQl+nvW8bBRMr65ELZsqLbUKLiEtDMIMEU0hhHAlH1GmreBZJn4P8HDQH4ELE90utdiO1t40C/Txcdt2yQLHJo2q4sB3nuqnViyr+ApKZtNW10REYzV7FF0/+HP9w5t2ItDT0n1vg/BQ1OaepIz88qU0hu9vgmu1w7Xa4aivs6IfOlqXyuPPXaOQXyKgamRx8+yh87pswn1rt0awPJhdgeAb2blvtkRjVwsRKo3PRTWaoTlssau1IMFsSI1NI7gSSGQHS2qk9zEMhDWEeJECiPISFktNW6XKRnbivCgLEesGrgVhxDihAMAN+GouqNDACw9l9fOHke/iXwR8jiDrXzUbcOS1wDkMolJy5M1kVL4+fVkeh9laNtuzbDrs3aySmt+PCgvz18noZzx7nYC4NDxzRCN5sSu8zo/YkF2FwAooHoSlu789GwMRK3XKRYnPQ77ki4nJADoIMEiaBpNaL+DNIYRoJZ0DmkeIk5GeRKAXkkCClxe2ES9csO23JsuczJ9vVxQPXshUXa6vJ5cXlECYBS65uWARGsnv5wsn38K3ht7BY3NyQqV+XQhDoI5uHuRTg1F72sdPQ0wFbN8D2jfro79HeLIoC+JoAACAASURBVF2t0NJcmiKte/a6xzmYSsK/Pw5ffwQmZszxa8UQaGuFthZL32wkTKzUHU5TrSgiUQFcAVweXAZxhZIN8CwSTEA0pvUk+VHEzQNJCFJIIV2y/ZWlqMgFfREvYvtb2c3d3vxrA0+gdSvUSKwQZfQ+sr93QxK4BLOFrfz9qZ/jX4feSrKwbd0LlUoqN5e5PGRzML0Ap0f1rbehB7ra1HVo33bYsRG62qGjFVoT0JTQYn1jfRGVmj1+7WH45iPqTGWB6ZXBOejtgudfB3ce1LROozGwP+WaI9IKMUo1IFGIUKoBIQTnI+EcuEnEP4vkziG5s4g3gbg5yI4j+RTnc7TK1aQiy2qwl3dur8A2LHWD8zYCzbW5eJRBssOW5teAhC7BfNDPXx/7Vb428A7yQa8JlWegHDVxpalzalYfp0fgGz+E1hbYuRmu3gzX7tKPvZ3qMhaLq/FhPGYnvY2Kc+rwlcnD330bvnMEFkqROaP2eJ66f73kFnjtndrF3t5rjYOJlZXGlVy2yuIBKqIWgjptLSD+OBKMQnYQiYYRRhB/CFk8qw0TYxF4pVUziComxAonL5Zd3964jUUIjk6cNFX/2gISpKEwZ4ttoyEwU9jKZ46/l/tPvwdPEiZULpXK18tBFEIuCyfPwalB+OrD6ii2bYO6jF27Q6MvG7sr7FQretga9U/kIJWFT34VHjymhfU2d64MArS3wRvvhtfcDh1ttt1pNEysVJuLOm1VqpJI60Pcgha2B1OIP4gwgGQHID2IRPMQK+oKGBQhKCIuAnwtbHeBihRzk13HiHavj/WC1CiywgJCyu6xRkJgOLOPL5z8eb428JN4kkBsWa8K5wOQpRZUmQDO5WF0Ch44rBGWvm7YvwOu2wU7N8HGLmhterJgMQFTXwQhjM7A5/4dHj6h9U5Wo7IyiMCWPnj9XfDim5dqVYzGwsTKZVGZT+WWvnYOCJAoBy4N4SISzCHMaJTEn0LSw1o/4qUhTCL5JAQZ8PJIWIAgr2JESjPdxWpKKp/aWJ84oKkZJ+1A7Jl++rIQtwhevmYtXIwVRmAou4+/PfkL/NvwW8hZ6ldNKffX8IPSKTvqMjYyBQ8dVeHS0wY7t8Cezeo41tsJna1LNskmWtY+xUD7enzxO/D4WUhnsbV5hfA82NUPr3k+PO+guvcZjYmJlWdFxczjAnXacjlweSRMg1uAKIkU1QYYN4eEU0hxHHKTiEuCpPVn84slMVJx6bLTVvko5mIRE1u0jGW45jbwmqnZzeEW1bzBqHscHiPZq/nb47/Iv4+8mVRhqwmVVcAP1Al8MQPjs/q9jnPqJra5D/Zs0VPizb0adelq18hLSyl1zMTL2sE58EM4NQpffAAeO6URFaP2iOhj92Z43QvgjgPQ077aozJqiYmVCyg7bQWI8yEqAj5QhNLXEswjbhAJhpDMSSQ3isSmIVxACvNQzGhTRK8kPi5q7+suEimxmhLjEhCBRCfEapUCBhLOAtmaXd9YGQKXYD7YxOdP/DL/OvxW0sV+EyqrTGWKUDoDi2kYnYZHT2kR/sYe6O/VOpfrdsHWviXRkkho74jY8i6VxorhnEZUhqbg0/8Cp4YgV1jtUa0PRPTe37IRfvxlcP1udeUzGpt1JlYcS25b5fSqstMWiAvBzSLhhNaR5M4ghWHEKxW758aR9BTES/82LIuRiv4jZdHxVE5bhlENRMBrB4lTkzwtB4Q5tce2jW3dEhFjPujnL4/8Ov989qcJow4TKmuMSuHiIvVLGZ/W3hyPn9aNWW+XRl32bYcDOzX1pbNF02BiXmk68OytuhI4oODD4BR8/MswMLrUUNSoPTEPNvXBu1+rQr61Bv4yxtqjAcVKZTG7W/Y9h0TzSDgBhVGkOIZEI4gbQvxhJD0EhVmIB0gUqg9hGJZWE7URxoUabLnYc9pKYawUDvVDpUbHqwL4OVuF6xmBsewePnv8V/jy2f8ENFsaUR1wfrUqnX1FDuYXIJmCw2fAi0NHE1xdirpcvR12btQ0mPiy6cD+3tUnX4Djw/DRL8Hsgqb2GStDIg67t8K7X6P9jZoSz/xvjMag/sTK+bqO5WKkZPvrsuC0foRgDnFjKkayp5HMMLh5RPIQ5qBQAKepXuKKEBQ00lK8SFF7GZv8jbWA0zqE2tWrRIifg9BW4rpEYDBzLZ8//kt8a/itONdqG9c6pdzXJYx0Y+wKUMirTe7xQWgvdeve2qdOY1dv0fqX7nZojoN4nHfLN66MdA4eOwOf+VeYmtMGkOb6tTIkEnBgN/zUy+CqklCxW3r9UAdipTJS4pfEyKJ2ag8WEJmHYBIpTkNxGonmELegQiU3B9EieDkkzEAxe2Fxe1Rx7acrbjeMtYYA0gJSAycw50ACiLIaSbQ3RH0hMJTZz+dP/BLfHv0RMv5GS/1qIAQN+IehnvIn0/rN4Uk4MgjdrdC/ATZ0aLrYjn7o79HvtzRz/l4w8XJpzKfhwePwlYdgZFJff2NlaG2BG6+B1z1P0yGbLaKy7lh9seLKTlgREIArIi4PUQFcFiELURr8NBLOa9pWOIHkz0F+CpEkuBRSTKoYifynLm4v90B50t7LituNOsS1ADWYtQV9P7piSawY9UJInInsbj57/D/zndE3muvXOqCcLpYvQL6oqUnnJnQZ7GiHTd2wazPs6Yftm6C3XV3G2pt1E5iojfN5wxBFkMrBdw/DPzyoRgiRTYsrgogK7Jv3w5vvhqs2Q4vVqKxLVk6suAhtuV0qaHehpl7h69dRAYmSiBtHimeQ7DkkPwTeFOJmIDuNFFJAoGn6oXtSo/bzYuSpittt0TYaBecgipdSwWpBtNTrx6gLApdg3u/nr4/9Kt8afitZv8+EynqjnMHstDdlMgXJRTgzov+ro01dxnZs1HqXAzuhrwsSntYDxOPqRmb3jRJG2jfl24fg8/8Oc0lL+1opRDS98YZr4KdeqpbeJqzXLzUQKxW2vBdMeD5CEgmGEX8IyZxFwgF12ioMQnoYyc9BItR/H5QiI46KHiRlMfIUT20TrLGuiFHTm164sP+PsXYRmC1u4ZOHP8BXzv40Hs224TSUiiU5ndHH2VHdgMcEtvWry9jBXVrzsn1DqXB52dt+vaWNOadC5RuPwWf+BfJ5S4hdKQSNqNyyD97zOrUmNqvu9U0VxUq5e/sI4o8hvtr9ihtD8seR1CgEcxD3NVUrCJAgAAm1L4kLNOWkaD1IDONZ4YRavTHEluX6QWAwc4C/OfZevjn0NmJieRLGM+B0uQ2B8SmYnoUfHNf+Lb0dsH8X7N2qhcybe6CjdenfQeMLF+dgYgG+9kP48vc1xc5mxJVBBDo74PZr4cfu04apdvBiVFGsaDGIOB9x80g4ihTOIIURcGPgzSAsQK5UtCtogfvyGSDChIlhPCtq+UaxN2FdIDCQOcDnj/8yD4y+kWLYZQu78axxgO+ry1i+5FK+kIKJefjBUejqhO422NYHe3fCrk2wsQs6WzVdDBpTuIzMwJd/AA8c1kiUsUII9HXDvTfDK26DTV0WUTGUKqeBxYm8nUjTBkjcDK1ZJEwi0RSEU0hhCilOAQsIc1CYR/LzQBak7NiVWRIzFxjOy1JNimEYPNlBonrYKWIdUIqolIXKonWmNy6Hyp7GQBCW0sUcTC3oqfaxJnj4BGzshR2bVLxs7lWXsZ4Ojbw0x1W41Kt4Kf/+Q1Nw//fgoeOwsLi6Y1pPiMCmHnjxrfCSW/Qe80yoGCWqLFY8kFactAAbIAbuwgp4cD7iMhAlkSAJwbQW1YdDSH4QSZ/TPimer71Q/IJ+FB8JChAV0eD1sl4oF62TMYwGRpY7TFSZGl/euHwCl2CmsJXPHHsf3x19vQkVo6q4inU1cpDLQzYP43Nw6Ixax3Z3woZO2Lsd9u/UWpeOVu0o3pLQn/G8+hAvzkExUHH2N9+CR0/DYgab/1aIWAy6O+Clt8Erb1fHOhMqRiU1cgOTp/m8Cec1gdeLi5fDJ5VKI9ReKdEsFMeQ4ijin0M4i+SGkdQgsKhd5sMIgqDkDBahLmOBfl4HE6RhXBHig9QqulKuh7HVeq0REmfO38yfHf6v/NvQW/HDThMqRk1xyz4pFLUp4tQcHBtUQdLTBTs3qb3sgd2wd5vWG8Q83XjGPfBia29pPi9U5uHPvwZPnNEaFZv6VoayUHn1nfCG50Nb82qPyFiLrHyflScdsywvEvZw3gac1wexvdDq0EhKpG6q2wsQzairWDCkFsf+MOJNIP44ZEeR7DzESzNN+DSuYoZRr4iAFBEX1GhNFSBmbmBrDYHx7G4+deT9fH3gHXiSqIuTa6MBqZgWnIOFBUil4PgAfP2H6ih21VYVLdfu0M83dT+5WHq179/IaV+av/g6HD2nzR5tylshRK20X3snvOaOpToow1jO6jeFfBIVsb/lk1gMnGuFWAcutg1pvg1ai9pt2xXABUhUgHBWU8uCs0jmDJI7h3iz4BaRwiwUMqVIDCVDenfhjGm1MUZdkAOC6l/WAZIArxUkpm599n5YfUrF9H9z7H18e+RHEcz1y1g7OLQvSRiVCvbzcLQAp4bhW49pM78NXdqJ/Nod6jLW26EWteULrLRwKQZw+Jymfp0d00QNo/ZI6T97tsKb7obb92ufH8N4Kurv9hAPaAKvSQ92PC4QF3og4iMuD1Ee2rJIuAgkgTRSnEOKk+BmkHASKUxCdgLx0iBpxE+XivwrZq2naj5pGKuFAyFcEt3VRDSq4rwW8OKlds121LiqCJxLH+Rvjv9nvjf6OnJBr6V+GWsWVzL6LBSh4CCd0yVzcg4GJ+Hb7bChW8XLjk2aPra1T53HWlsqnMZqNb7S2H54Cv7he3BurJT6ZawY12yHN94Nt+6FrvbVHo2x1qk/sXIxnnQc04STBMQ6wQMXp1SMLNAiEOURsuDSiJ+CYBaRGSScgOI4kh1HmAdJQ3EBKS5CkAGviIRZ8HNAuDSTXsyC2TYSRi0RNOJRSxGRaNOW1oGt4qtJRIzhzD4+c+x9fH/sNSwWN5tQMeqDikJ9BxR9fSwswsCEipK2Nuhpg+0bYddm2LGx5DLWCZ0tGpFJxKvXayOKIO/DY2fg8/8Gw5NLts1GbRHRv+WuLfDWe+GGPSZUjGdHY4iViyIXfLhAPXgtOJqBXpwHtMAF7mIbAnUscwuIP4MEk0gwiDCOLB6BzDDiUhAPIPTBL0Lol066S00vXVgSSNihtFED3JIzXkmHV51ECy7RjOSt0cBq4bsm5vzNfOrIr/P9sdeT9ftMqBh1z3mb5EDrXFIpGJqE7x6G9la1sN3RD/t3aM3Lpm51GWuKQSKhIse7DJvkyEEmB4cG4ZNfg6lZ7TNjh4u1R0RT/nb0wzteBge2Q1vrM/87w4CGFivPxFOIGQFI4OgGrwcXu6r0/0u5YD0CFNWxLBxH/BEkfRZxQwhjUBhCMkNIfg4SpRSdINJZMnIXXstUjHG5OAdhUgVLjRK9XbxP61ZqJYaMpyXCY87fzMcf/22+NfRWcC2rXoxsGDWjlF2dy8FgDgbH4buH9HtbNsLVW2H/djiwS1PHWkvWyJ5odvgzvTXKFswPn4Y//kfIZJZauBm1RdAg/VVb4T+9SlPA4mZNbFwC61isPB0XO7KpdC1L4LxNOOmD2HXQHGhUhQg96S4g0QISjSGFM0huEAqDiDelAic9AX4aJNTLRW6pv98Fk6eJGeOpkWIWwhrmL0g30Fa76xtPjcDg4gE+ffTX+feRNyM026bKWBdcUB4a6ddTszC7AI+egngCWuNqj3xwF1y9Dbb0aSpZJcs9cxYz8K0n4G+/UyFUjBUhkYDn7Icffwns6oeYzWXGJWJi5bLw9CHxZYX95c8cjs3grkKaboP2ghb7k0NcDvwM4uZL9ssjkD2DFMYRbxFIIYUkFNJa5O/JUrXikyZXm23XLQIU83o/EQLV93x0tIEz0/sVR+Ds4g185tj7eHD8NYRRm6V+GeuaINRHoRRITouKj0NnoLMdOttg2wZtUHnVZk0j62xV+2TnYCENX/kBfPOHsJA0obKSNDXB7dfCm1+odUnm+mVcDnbbVJ1yBEbFjJP2CxzLHEAz4Iq60XRZ6FpEwiSwiETTSHEW/BnEzYGbRYqzSH4awhTEskiQhmJOa2PKmxjHhTFtcyxrcJwW2IcLWicltTCo78FFHZZ6tJKcFyq/yoPjrybjbzChYhgVlLsNpHOQzsNsSgXMqRF45CT0dqpw2dynDmObujUi853D2qE+qlUfXeMCyjUqd14Pr79THd9azG3duExMrNSUil3G8h2fNONo0lSb5q0qYsrHPe2AhEiUAZdCgiQEc0g4irgJTS3LTICbBckiQQYKWaCgIigqQJDXIv9yXmhUcZRU/tQ2QfWNBxKlEIo4dYmoIgJeF8R7rJH9ChG4BOO5PfzV0V/jofFXkvY3mVAxjKdAKg7qnNNal1wOphfg5DAkYtDZoelhE3OQK1hEZaXwPOhog+deCz/2ErWobrLdpnEF2O2zmjxJwFQm2QrO6wa6cbFd0OyWZloRbYDpUhBNIcVxpDCmjTDDs0hxEFkcgmABEoH2yQhCJAg4X1cTBvrRdqH1iwDMa0PUam9qncPFO3Bt2yCF3SY1JnBNzBS38InHP8SD46+lGHaZUDGMS6BSvIA2ppxb0IexcniepubdeT385MugvQViVkxvXCEmVtYqFyvwr/yexHHSW3Is2wdtotWI5ydsH3FzSDCO+INIdqBkvzyCBEPaCDMzBfFSTDx0ql2elEZmu9S1jARTEOWWImjVxGvHtWzTuqnI7oOaITCR28XHH/ttvj36I3iSsNQ7wzDqkvZWuOcm+LEXQ0dr9frjGOsbEyt1S4U7WXkyqKxbkDhOtuASGyFxAGn2S+5jRa1xcEUkTCL+GaQ4hGROIv44xGeQYBYpzEI+AwRLm9WL5vraJnbVCB2SHYXubE3eyc5rA7cZAmf2xbVC4EzqBj599P38YOI1KlTshTYMow7p7YZX3QGvuE0jKiZUjGphYqVhESCujmW04Mp/6YrCe5cIkKZroS0P3QUI0wiLEC4iQUrrZNw0Ek0g+THIjSEsAGkkWIRCaima40pixrmlCJAV+deWCPBnkWgRV201IQK04GKbINEKfg4TplVG4EzqRv762Pt4eOLlFMNOi6gYhlF3eB70dcEb7oK7boDeDkv9MqqLiZX1xgW7oQTOiwNd+mXcXWjB7HyEPERpCDNIOI+4aQgnEX8GyY2pWxkp8OfVcjlYBC+LhHnw8yWnqqVLnk8nEqvargYiSXDJGl3dw8V7cS19SHHUhGcVifA4t3g9nz76azw8+XIrpjcMoy5JJGBjN7zyDnjRzdDTruLFMKqJiZV1jzz159KMc03qChWT0ul9WWB4QIhEi+AWkGABglkkHELC00h+GMkMIME8JHxtXugXISgiBIAPYUF7yZSvWb60pRw9e9wiEs1Ssxct3gXNm0HGMHFZHfyoiZniVj55+Dd4dPI+syc2DKMuaUrAxh54zfPg5c+F1uaLlNsaRhUwsWI8PbJczFR+7VU4lu2GpvL/Lm+cfcQlkWASwnEkN6xF/m5YG2KmB5HcNMRLgiUItdC/nD4WlYWMbZKfCikuIIVJ6KjNCuGkCxf1I/Y3qAohMWb9rXz00f9PGz66dhMqhmHUHbEYbN0Ab7oHXnKL1qeYUDFqhYkV4wpYbr28/JMETvpwiR6I7SvZL4dAqJtfF0I4i0RjSPGsOpYVBpD4COJPQXYcKaY0+uKJCpmo8jkqQzHrlEIKipP6Gkmc6kZXBGKduLYDkPznkluccdkIDC1ey58d+k2+O/oGRJotgGgYRl2yeyv8yF3wgutNqBi1x8SKUUMEiOnDq/gWLDXBjHXi3DYkcTO0FoAiSA6iota9RDNIOK4RmdyQPmQeSCL+AuSS2kfGE71eORBTDu40dJG/AyKEGS2yj/VW/ym8DqK2m7VY0sTK5SNwOnUTf3nkAzwy9XKoehNPwzCM2iMe7N8Nb7sXrt+lzR5NqBi1xsSKsXqIAAm1WY6J6prKEn/nQALE5cHloDOLhClgEYnmIVhA8lPgZhA3q9bL+WkknAfJlRzL0hrBqQzERA3kWCYg0TS4BaD6YsVJG67pAHgtIAV1fzMuCSdwNnUjf3X0/+LRqZeQ83ttcTcMo64Q0RqVA7vhR+6B63ZoTxXDWAlMrBhrgKco8hcBmnDSBNIFHrjEspSvrhCJMkAagpT2iIlGkWgKCoNIZgRxSfAySJCFfAqiPEgBiXJa5B/6S5Gf880P60TMRA7y40gwg4tfXf3rSxMu1o9r24n4AxAV1/brscYIXILhzD4+eeSDPDZ1H5niRhMqhmHUFSLaN+WaHfDWe2H/Di2mN4yVwsSKUWcs3+nFcF4X0AVN23FNcEENyyZfozFuDglnkcKE1shEQ7r5Tp9F8nMQ99VmOfCRQOtqcAFEfqnOxl0YnVkrOJDiHBKcBW6n+krCgdeCa7sJSY2BFKt8/calGDUzV9zCJ574LR6ZfBn5oNuK6Q3DqCtEVJjs2wX/8T7Yt92siY2Vx8SKUedcbPe3rJdMbAPQh4vvg2a4wOZ3c4S4eSScRAqnkdwA4g8gMoKEQ5A8q/1jYqWCjQjt6E6pRub8062mikkh/okaXVvAtRDJrUjsXxCrW3l2CEwXtvO/HvldHhx/DSJNJlQMw6grRCAWh1v2w9tfDHv6TagYq4OJFaPBkWUfl38ew9GDi3VC6x5oCRAXAj5ICP0+Es0i4TDiDyPZ00h+EGKzSDAD+SkknwJKjmVRRZF/mRqnkkkhiSQPQ08IEqPaT+a8JqKuO4jNN0EgFalyxsVwAqdTN/Pnh36TRyZfhieJ1R6SYRjGJSECiTjcfRO86S7YsdGEirF6mFgxDIkDcRBNwj3vVCYCMYdzW8HtQ5qL0KbF/kIGwjSEGSRYQNwMEg5CYRTJjSAsgEtqs8xCTnvGSGmTf76XTDXqYlzJOW0McfM46aPkVFA9pBnXcgNEHeBmMFuwp6EkVP7q6K/xxPSLCFyHlfgYhlFXiEBzE7z0ufDqO2Bzn7p+GcZqYbefYVwMqYjISBOQwHlLjmUXxBZcgFAAl4YwjYRJtVwuO5QV5pBwBnFzEMwh2Vn9WS+PBBnwsxcW+S9vH/OMYiZC3CLiD+Gaa2BfLDHtl9N5IxJMQXHRiuwvghM4nbyZTx/9dR6ZeilZv8+K6Q3DqCs8Dzrb4e4b4I13wYYuEyrG6mO3oGE8G+Sp0sgA4jjiIO2Q2LLkWOacmtK7AuKyEC2qrbI/i7gxxI0i+UEkOwTFGSRegDAPfl5dylwRcQUICkDAefWyPAvLAYVFpHASmm6qgZAQcELUcQ+S+gEii9V+grrHd01MZnfxfw79Fodm7iFnQsUwjDojFoOeTnj+dfD2l0BXq37PMFYbEyuGcaU8aVcqF35fSvbLXg8uthMqHcu6BAgRtwjRNOKPI8UJLfJ3I0jhBJIagWAW4qV6Gj+EMKLcFBIXQZjFKzxK2PEmqEmNhBA130asqQ+KY1a3UkHgEkwXtvG/HvldHpu+Dz/qMKFiGEZdIQJdHfDy2+H1z4PONmv2aKwdTKwYRs2Ri3y6vMi/G7xOXPNV0BRpfYuLgAjZEqCOXwNIMIzkziGFISQ2gfhjkB1Dilkk9/0apmcJrvkgrmkLwpG1339mhXACQ+n9fPyx/8ZDE6/Ck4S9LIZh1BUimv513y3w6tu1pwpUGF7apGasMiZWDGPVkdJq4J3/svKjcxHQjmveiDTdDK0BuCLgAwFEBSRKIaSoenH9+SF6uHgPUcdzkOyjWnez5prOrCzlGpX/c+hDPDHzYkSaVntIhmEYl4xzEEXwL4/C2Qk4uAf2b4etG6C3HZoTukSZaDFWC8kV3frecRhG3VLx1nUBarfcSu1CHo5Y9p+Ij34QSR1aOnZbhziBU8lb+NSR9/Po1EvJ+htsITcMo67xPC2mb22FzhbY2At9HbB7M+zeApt7oKddm0R6y7KdDaOWWGTFMOqWyvSyBFDjfh4OoqaDRC0HiC0eXrdiJSDGQOp6PnnoN3li5oUmVAzDaAiiCAq+PuZTMDKtYqSjHTZ0wLaNKlq29sHGLi3G72yB1hZoKgX1bS40aoFFVgzDuATyxKf/kPjYb0Mxu+7qVopRM9OFbfyPH/4PjszcQy7oscXZMIyGRtBocpn2VrU03roBrt0F+3fAlh5oSkBzTJtJxuMQsyaSRpUwsWIYxiXgiKW/THzsfUjqJOupbiUkxkRuN3/wg//Jo9P34WhZb1rNMAxjCVF3fg/YshH2boVrd6p42dWv4kUoFfBb2phxBVgamGEYl0TUdC1R6+3EMqcgXB9ixQmcWbiJjz/+33li+kVAswkVwzDWNw5cCJHAxDRMz8EPT2lUpacNrtkB12yGvTs0hayrtSRaHCp0Vnv8Rt1gkRXDMC6NcJHY4pdInHsXhEUaPbriRDi58Bw+efi/8sT0i8mF3bbIriIiS3ecuEa/+wyj/hDRFLCWZi3Y72yHjlbYtgH274Q9/bCpV8VLIlbRkswmVuMpMLFiGMYlEuHlnyAx8k4keajkRNaYlIXKXx55P49NvYRcYMX0q0lMoLsL+vsgnYFUFjK5ih6ppdNaW9UMY/Upz5UOjag0JVS49HXA5j6NtmzfAFt6oa9LozFNTUupY4ZRxtLADMO4RDxcYgth1yuILx6BcLXHUxt818xweh+feOL/4ejsneSCXltAVxkR3dS85YVQDOHMGJwbg1QOUouQLUKhCL6vGyQTLYaxelS+/yIH+TzkCjAzDyeGLxQvV2+Dfds1+tLdro0p25qgpQm8mKWMrXcssmIYxqXj8njFwyTOvgrJzoGLVntEVaXoWpjO7+B3Hvojjs89n2LYaUJlDeB52gPiw+/U3g+eB8UiTCVhYBJOj8OpERibYaKN4gAAIABJREFUhmIEfgGCQEurosa6RQ2jsSjNrz1dao18zVY4sBuu3gxd7ZouFotBPAZxzyIv6w0TK4ZhXAYOCeZITPwM3vQ3IFhsmKMvJ8LA4nX84cN/yBMzL0Ik0Si/WkPgxeDn3wD33KCnr1CqWynVr/ghzC7C6VE4PgwnR2FoErK50g/aimcYaxenhxBlp7GmOOzaAvu3wYFdcM02tUz2lhXom3hpbEysGIZxeURZYotfIj76X5DcWEPk3DgRTiw8lz99/Lc5PHs3QdROw6iwBuLeW+A/vkxz3ZdvUpzTGpaiD36g6WKLORichONDcHoMppOQXNSfcyUBI9IQt7BhNBSeQCKhEZWmZmhJQG8HHNyjNsnbN8CmLm1MCZw/jDDx0liYWDEM4/JwARLNkhj8UbzkIxDk6npf78Tj6NwdfOro+zk0/UKrUVnDXLUdfu61cP2eZ3fLhZHWsmQLkMzAfAYm52BwStPHZpKQTEOhUBIs5Yva6mgYawYRQDQNrLUFOls1bWxDB2zv19TQnRtUzLS1qsABzh9GGPWLFdgbhnF5SBwX6yfqeRuSG0Giobo9mo4kxomFW/mLIx/k8Mxd5K0z/ZpmegEm5+HAzooNydMQ86CtBVqbtfM2QMHXiMvsIozNwsg0jM/C1AIsLEK6ALkKpzGLvBjG6lKOgvoR+GlYzMDojM4BLWfUTWxzH+zcpKlim/s06tLVpimjibg5jdUrFlkxDOMKcEjxFImJ9+LNfqPUd6W+KEStTOZ38ns/+Bin5p9LPui2xWwNUxYNb30JvOku7d9wJX8v55ZqXpJZjbIMTqtb0akRjcZkc5pSVvC1YN9WTcNYo5Tmh9YW6O2ELT3alPLgbtjcrd9vjqtFcnNc5w6b79c+JlYMw7hCIuLTv0ds6neR3DT1lDsTkGA8exUfefCPOT7/fELXWs+ZbOsHgduuhZ9+Jezur95moyxayhueQhFGZ7XO5eSoWiVPzGq0JfCXal5sFTWMNUq5EF800rJrM+zdpjUvuzZBa5OmlXme1sd43moP2LgYJlYMw7hCHF7+MPHxD+DN/VPd7NyceJxYuJX//cjvcGzuTqCJui66WU8I7OqHn3wFPO9AbU5GyyIkKhXsR6Wi/cmkRlxOjmjNy/gspCucxixdzDDWHiIXCpJ4E7R4sH+3uozt3abpY30dF/+3xupiYsUwjCsnShNL/hXxsQ8guXnWenQlEo9jc3fwiSd+i+Nzd1KIOk2m1BEi0N4Kr70Tfvy+lctDj5ymg/kB5H3IFbW+ZXBKbZIHJ2AuDekMBOVmqU7Ht7bfEYaxvpBSxKW5CZqboa1Za9q2b4T9O+GaLdDfCz0d0JzAXMZWGRMrhmFUAYeXf4L41Pvxpr+6po+WnXgcm7+Nvzj8QQ7NvNCK6esUz4MX3AC/+IYrr1u5HMquYUGoLmKLeZhNqS3y2ByMTmvx70IaUmn9OWtMaRhrk/L80dyk80lXu4qVTd2wY5NGcjd2axF/c2IpXczWjpXB3MAMw6gCgkvsIex+F5L6AZKfB9bWzswBgWviTPIm/vSJ/8aJudtNqNQxkVMnr6kF3VysNOX7JhGDRJtGerb06n1WKGqx/nRSrZHPjMJMSu2Rk4tQCLRo37Gmdb1hrBvK78N8AXJ5Ndo4N65Ogh3tsLELdvbD1Vs0+tLbqfNOZ6uKl0TMhEstsciKYRhVwiHBKImxX8Kb+SpEudUe0HkcUIxamMzt4SMPfZzTC7dSDDtscaljRKC/R13BXn7b2qw2Kq+ukYP5NIzPaXPKEyNwYgCKkW6OfF8jL+dTxwzDWHN4McBBe7seTGzfANftgr3boa9T3cUSCWhp0toYo3qYWDEMo3pEWbzcwySG3oJkp9bMsXEkHkPpA3zkwY9xfO5OkMSa3Nwazx5Boxl3HIT3vXm1R/P0nG80WSFeCr5GXU4Mw/FRODUMk7MgHrjQCvUNY81Sem96Aq7UpHL7Jq11uX4P3HUdtDSbYKkmlgZmGEb1kBai1luIet6MF3wOKc6s+o6rXEz/scf+X04t3I5I/U17UvGJbWAVh/ZAOTMGi1lt+hhbo7aj5yN4pY8e0JKAa7bCnn54yc1asD85r+LlxIg2qpxegGy+pHOWCR7DMFYJV/GeLDkGjk5pSuoT5zTCctt+Ldo3qkP9rdqGYaxdxAPaCHveiWQeRPwFcP6qDScSj6Nzz+OTh3+Ds8nn1GUfFUFTC27eq5vew2e13qHufpEaEDndzJ8Z16Zva1WsLKfciK7ZAxL6vc5InYd2b4a7blABNrMIIzNwZkT7vcxnIJtVNzLAnMYMYw0QOYhCCPLgInj8LNx4lYmVamJixTCMKhMjaj5I1PN2pDiL5AZWJRzgxOPI3PP5y8Mf5OjsC8gHXXVXoyKi7jS37Yc33Q0DU1rzkM2v9sjWCA7yRTg+Avt3QFMdr2iep+KlOQFdbbBtA1wTwo17IHkdTKW0p8vYjEZgJmbVgWwxUxIvFW8xi74ZxirgtO7s1AjkCtDTbkX31aKOp3bDMNYkIiDNhD1vQvKPE/OnwM+s2NM7oOhaGE3v448f+zDnkrfUpVDxPE1tuvEa+ImXQ383xGLqSjM5hx2nl/ADODoAr3ouuObGCDiV79V4TIVLV5vap7qrVZzNZ1SsnJuCk0OafpLNQyantTCFgjmNGcZqEEYwPKWW5Zu6IWG77KpgL6NhGDVAcPE9WruSfRjxj7MSVsYO8F0zE7k9/O5DH+X0wnMJXFv9CRWBtla47Vr4qZer04wn+vHALjg2pGkHBhSLepKZLmjBfTy22iOqDeXGl23N0NoE23rh1n0QPF8tnEem4dQonBiFwVHIBRD4EAQQhpqqYhhGbXERFH04PqRuYd0dqz2ixsDEimEYNSNquZuw793EC++HQp5ahwOceJxN3cj/fPj3OTZ3J57E6vKkvb0N7rsV/sML9VS93ICsqw2u2QYxKZ2cr+oo1wYOjSacHYe+jsYVK5VUiu94DPq7YGMn3LQHQqfGA+cm4eQwnByBcxMwu1C6X0o3jrmNGUaNcHDoHNx2ALo6GiPau9qYWDEMo0YILtZF2PkKvPwDeNN/p0e8NSISjyOzd/Inj/93ziafU5euXwDdnfCaO+Flt0JnhVAB3Zhu6oEtG2FowhZB0A13EMDhAe150LrOiloF9bXwAGL6ejTF4fqdsH8rFG+FbBEm5uHYoJ74Ti3AwmIpXaxUoW+F+oZRHURgdA5mk7Br02qPpjGoz9XcMIz6QGK4xA6Cvl8mkX0CWTwHrlD1pykX0//FkQ9wJnkLxbC97lK/4jHo64bXPA/uvhE2dF7c3aqrTTsoD0+s/BjXLA5Oj0E6Dxu61reIE9HIW2uzPpyDDWgDzb1b4d4bNW1sckEL9oemYHwGFjLaubucLlZ+DS36YhiXzsyCOvgd3K2HB/W2Hq01TKwYhlFbvDZcy42EG99DLPwIkp3QrndVwAEhCU7MP5c/e+JDnJi/g3zQXXcLQ1MC+nvhVXfAvTerILmYUBGBzha4bgc8eFTzow3dYI9Mw3wKdmxYH6lgz5bye6EloY/ekj1yEEGmoK/Z2Kymio1Ma/H+fFL/XyarP4dT0WKpY4bxzLhS09fBSbUg39C12iOqf0ysGIZRYwTntRP2/DRSeAwv/BJSmLviXY8DClErY7lr+N+P/C4DyZsohJ11KVS2bITX3wn33aLuMU/3O7S1wA3X6M/5vm0eQV+DxYx2hN+3DTraVntEa5fyvZWIQU+bPvZshudfp05jsykYnYGTY5o2NpfSjVe+oM5rfgCRiWTDeHocnBuDmaSJlWpgYsUwjBUghvM6CDb8OonCCOJ/C8IraxYZkmAst5cPf/9POZe8hcg1151Q8TzY0Q8/eg+88KYlx6enIx5XS8ydm2FoTH39Ta+oW9qJYbj9WnUFq7d7YTUpp461NUPbJti5ScVLEMJ0SqMuJ0b0MTAOhaJG9aJIhaIJZsNYhoPZNAxMw/6d6zs1tRqYWDGMdU95p1Hr6VRwTVcRbvwFJJxDFh657F1OJDGOzT2Pjz76Ec4t3IKjqe4WAxHYvxve8kK4+epnJ1Sg1NHegwM7YXwKfLMwBnTzPDwFU/NqGWpcOsvvv3hM+/ts6ITnXK3iJZmFsxNwfFCblA7PwEJSZxGJSh8xAW2sbwQ1sRgY194rEjPBciWYWDGMdU2RWPLvINZO2P5qqLmDVhNR6z2Eve8iVpxGMsNc6rYmkhiHZu/izw/93wymbiSiua4WARF93Lwf/sM9mrbU0nRp10gk4Iar4IHDkCvayTboRmAmpXUXN1+jkQLjyhBRwRKPAQn9XluLWkTfsEctktNZGJlR6+iz45r2Mr+o0RdTLsZ6xaFpupMLMJ+GTV2YWrkCTKwYxrrF4eUeIjb/CVysn6jlIC52Tc3zZ1ysj7Dr1RCOEg//CPJJnm3DyEhiPD5zD5868gFOzt9GIeyoq/m/3NTv5n3whhfA1Vv160slHlOR05yo/hjrFYe6WY3NQSYPnZYKVhPiMYi3QjvapNQ5rXm55RoVKVNJmJhV69aRKZhbhHQOsrmS05gV6hvriOl5GJspiRXjsjGxYhjrEecj4STx6d9HUo8hiQ5iyS8S9P4CSAu1PgJyse1acB+cIjb1FQgyz2BtJRRdC6eTN/Hxxz/MYOp6Laav6Siri+dp4ffB3fD2F8OOTWppeTnEPdjYDVv6YCEFxcA2f6A1FKOzWhTe2brao2l8yqmLZZvkjV2wb7umvSzmYWoORmbh7Jg6I6WykEpD3tdi/iDQ69i9azQizqmAPzqkqb7G5RP7jf/6oQ+t9iAMw1hBXIgEC8SSn8Cb/RxSnEOCNBKN4dpfgIv3a4JtLREPvA5c0614xe8hxVlwwVP9MIWoleHsfn7voT9iMHUjftSO1JFU8QRaW+G2a+EnXgq7+6/MXldExc/UgnYqzxerN9Z6R1DzgT2bLbKy0pRTHD1PUxs3dMFVW+CWvfC8A3Bwj/5tOtpKmWEC8QRISayYZjEajchpL+QX3aLrgM1Jl4eJFcNYb7gcscL3SYy+Fykk9fgnckiQQ7xxovZXg9dS+3FIDGJduNZb8fIPIP7MRaMrocQ4nbqFjzz4J5xLPYfINVNvyb9NzfDy2+At98LWPl20rhRBC54PD0Ayc+XXaxQc0NUOt+1f7ZGsb8pRFxG935viWuty9Rb929x7kzq37dkK7W0QArlCqa+LYTQIoYNYTO/59tbqzP3rEUsDM4z1hPPxikeIzX4I8hWpVwK4LJL8N7z2vyPqfBMu1lv78UicqOkgwdYPE3cfRFKP6lFUaUIPifPYzAv5+GMfZmTxOqC+uv2JQHMzvP4F8MrbNce/WouVc2p73NsJQ9bN/jzZPAxOQSoHHS22OVgryLJT5ZYmTYXc3Au37dVUxmQWzozB0UF1dpuYh3TG+roYdYzTyPexIbWcj1+imYqhmFgxjPWCc4h/htjsx/AWjkAUXhigiEIknyQ++zH8lltxXhvIZVR/XxIC0kLUcgdB/y8S5/eR1BFwjlDiPDZ9L3955AMMLx4kcK3UU0QlFoOOdnjd8+G+W7VzeKKKWksEutthSy+cbNGmfZb7r1o3mYbRabh2B/V0y6wrPAEvpu+JtmaNiPV2wtZeLdZPptXd7Y/vhwUTLEadIgJFH44Nw10HV3s09Yu32gMwDGNlkHCaWOpv8VJfh2Lm4pu4KEDSh4jN/wkSDK/QwAQX6yXqeBVh/y/iOvcTeE08MXs3nzz8m5ycu51C2E497ToTcejvhTfeBa+6XdNfqilUzj9PDPbugM42EyplBO1mf2rMaiDqCUHv545W2NwD+3donct1e6DZTqONOsU5FSunRiAflBzxjEvGxIphNDwOXAEv9z1is59DcmM89TbOgV/EW7gfL/0NJEqu0BgFF9tM2PF6sn2/wkDxVj766B9wev5WClFnXRXTJ+KwuQ/edLdGVbrar6yY/pm4arNGberoJaotTqNMRwbUlcr2BvVHOWUsFoMbr4b2Fvs7GvVLEKqd99isChfj0jGxYhgNT4gUzxGb+h0ke/xZHO04JDdObOGvkPzDT+PSVV2cA58tjPMzfPTxv2d48ca666PiebCpF950D7z0VmhJ1Lhmwv3/7N13nF1Xeej939r7TO9NM5qiUbeKu7GxAVdsY5viAKbXXEq4IZfkkpu8yZvkJlxuXiAOEHq7+NLsgAGDDQYMuGPcq7o00kjT6zkzp9e93j+eGRVXaTQzZ++Z5/v5KDiyLG3N7LP3etZ6CrTUQ3cbGqzMsEihdk+/DC30CsW+IjVnFta3Q321dlFSwWWtbJxs75WNFHXiNFhRakmzmEKC0OS/4MS3Q+E4Aw8LzvTjhCa+jimMsjj7mob+McN3fhti10ALBc8N1ALFGAka/vQquOg0OWFZjOuvq4SOJpm9EqSv10KyQKoA+wYhp8FKcBm5t+uri30hSp2cfB5290Miqym7c6HBilJLmMlP4k59EydyN+TjHHfQYS0U0pjoH3Anvwhe5iWGNp4cz4P9w3DT3fBMD+TybqAe6KUlcEo3fPi1cPpqqChdnC5Us6kyHS3QXK8vwVnWQi4D2w9o2kWQGaTda9cKmc2iwbgKKmvhwDBEE5rSOBcarCi1RBkvisk8hjt5AyYdBnuCW8zWYrKTuOGf4MZvAZuc92u0duYhPgI/vR+29UIiPe9/zIKxyGJq6xp4z+VSFLzYiyqDdARb2bh4f2YQ5AuwdwiyBV0cBJkx8rmq0yYSKsgsROMwHIaMDvE9YRqsKLUU2Swms5vQxOcw8T1zrzvxcpj0CKHxL+Bkd81rwGKtDIDrHYEf3QtP7pMuTkFaWdZUwda18LZL4Iy1MjtisRkjaTIbu8DoE/2wfAEOjkAsJfniKpgMsKoF2pqKfSVKzZ1FMgh2HYJoUgPvE6WvNqWWHIvJj+BO3YgzdT+c7EKtkMTEnsANfx6TPQj25PNqrJUhcONTcONd8Mw+iCcJVKBSVQFnb4R3XQanrSluikplOWxeJV3HNFNGeJ6kXOwb1KLWoGuqhTVtkvKoVFB5nrQwnogW+0qCR4MVpZYam8ed/k+cqZslcX8+IoB8AXfsx7jTP8J44ZP+Pa2F8Wn4P7+Gx3dDPBWcnSaDdP161Wnwjktg3cpiXxGUujIdubVJJ7Yfw8KTe+V0JSj3lzqWMbIx0NEM5WUajKtgG4tKC2N1YjRYUWpJ8XATv8ON/AiTOvmg4ggrAcvUt3FjN4N3AsX6z75CTwoNv/1reLpHuqQEheNAWRm88SJ4y8VSJ+KHol9jZAr42laZCq6EAQbDcsKigssAbY0yaFVjThVk8ST0j0Mmp/fyidBgRamlwuYw2b24k9djkj3gzXcVn8UkxnHHb8BN/GamDubEHreeBz1D8OP7YEevzMMIygPbcaChFt58EVxznqSmlISKfVVHVJRKOprjo2vyg7GwnOIVgnKjqefVVCttjP2wOaDUXHkeDE7MpILpM+m4abCi1FJg85hCmNDkVzHRbTNtihdAPouJ78Ud/w+c5IPH3WFstutXzzD85H54ej8k08FJ6XBcmUp/1blw5TnQXAulPgsKykph0ypJldFUMGEtJFJwaAySqWJfjZorY6Qb2OlrpYmEBiwqsDwYnoDBSYLzAvQBDVaUCjyL8aZxYrfjRG7EZCMLl6BvgEISJ7qd0MSnMNn94L14r+HZYvr+cfjh3RKoxALUDcV1pTXwVefCNS+HpjopZPebEhdW1Etqmp9OfIrNs7B/ECKJ4Nxz6rkqymBdu9Sv6BpPBdlUQgZE6vPo+GmwolTQ2SwmvZ3Q+L9hUtEFHd54WD6KM/UHQhOfxBSGX7BDmLWQy8PYFPyf30iNSiIgXb9mBy7W18B1F8PV58nurl8XSrPXu3kVlJQU+2p8xMpsg+FwIG479QIcAzWV0L1SW3Sr4LJI3cqBQZm3ogHL8dGPvFKBZnEyOwhNfg6T2D/3eSpzkU/ghn9MaOoLmEIfz7cUtBYGJqTr19P7gvVwdhxoboCPvB4uPFV2dv2efuIY2NQlqWDqiHBMUsH8/v1TL8wYqCyFDW3y2VQqqAqenPQOTOoGyvHSj7xSgSXzVJzpm3Gm7oPCIrfVshYyWZzRm3Aj38Xkjw1YPCvF9N/7Pezsla5fQQlUykqguw0+ei2csUaGPQahDsR1YH07lGka2DFSaRgYk6GjQbkH1XOVl8GpayCk97cKMguZDEzF/XtS7zcarCgVSBa8JG70Z7hTP4PcdNGuxGQmcMe/jzv1PcgPY62l4Fn29sNP7pOJvamADOUzBqrKYeMqeN9rYEuXDFwMyk6u60JjtcxbKS3Vk4RZBQ9GIzBRvI+JmgelIVi7Ehqq/Vk3ptTxaGuCS86CtW3FvpLgCMgrWCl1DOvhpB7Gmf4OJnWouNvF1mJSfbjj38Od/jFeboKeQY+b74NnDkiNShB2s2eHz21ZA2+7BE6fOVEJ0oLfIMX1W1dDdUWxr8Y/DDA5BQdG0K3MAHMMVJfDug4o1bqs5wjSs2o5MkigcuW58OqzoLFGv2fHS4MVpYLG5jHeGKGJT+NM74b8fM9Tmcs1eZA8SH7ka/T1PcH3f++x/YAUEgYlUKksh1NWwVsvlhappaGAvkgMbFkF9dXB+Novlngath2UOQf6dQmm2SYSW1ZJq251RGUFVFfJhot2A/Qf10BDPVz7Srj8LFhRF9D3S5HoLa1UoFhMIYIb/SpO7FEozH2S/PxeFWS9ED1DzVz/yCqGE1KzEhSuC2dtgHe9Gjqbg5P29ULam2QuTO/w4jSH87vZeSu9w5DMSKqfrhOCyXVgfYdsLkzFNPAEWfSetgY2dcPYNOzth8FxCcy9gjyLZ2ddqcXnuhJMvusyuGAz1FYV+4qCR4MVpQLEeFGc5L2Ehr8MGf+8qfOU8cT4ZXz58esZS67HC8qjZeZE5RWnyoukYSkcy1uoq5Kdu5ALeV2kHJbMwIFh2Zl3AnKLqmM5DqxulYDTMVDQexuAXEGagXQ0S43WZAz2DcCefjg4BkOTEIvL8816M8G60WfDQnNnBgq/90o4ex1UlC+Bd0wR6ONaqaCwWUz6adzJz0BmkeapHIccpTw8eiXf2fZPTKTW4BGMZHJjoLEOXnUavP58yR9eCkW7xkjKwapWCb7GI8W+Iv9IpGBXP5zSSUDuUvVsBigvgQ1dMDwJ8YQfzpaLywJjERiPwoZO+RpVlsGKWjh7AyTScu/3jcO+QegdgckoTMcksJkNWIzVr+V8CjkyF+gdlwWrq6QfabCiVBBYi5Pdhxv5Nk50h5zvF/uSMOQp4ZHRK7lxx//DQGwreRuMqm4DtDXCRWfC5WfLhPqltNtljOw+t9RpsDLLWshmYFsvvP48WZQtoW/5sjH7Od3aDU/skbq4Zb/CtjCdgEOjcP4m2XQpCcmPauQ54FlY0wZnr5dTl5Gw/BgOw8A4TMchloR0diaF186cwiz3r+0chVxY3wXXvgJOXy0n+GruNFhRyu+sxRQmcKZ/iDN1B+TSxb4iLIa0V8n2yAV88+n/zWhiAzmvstiXdVwcAysa4TUvh4tPg5b6pbdoNQaa66Rr0s5D6GJuRrYgdSvTKSgrk51PFUzdLdBUJ6crSk5O+sfkFKW26rnPNGcm5bWyHFY0yPDYXB6iSRifgr4J2D8ogUs8DdG4BC7pLBQK8nto4HJ8XBdWt8N1F8mJigYqJ0+DFaV8zYLN4iR/jzt1CyY9RrFXnhKoVLFn+mw+9/AXmUyvpWD9PzLdGHBcqK2G6y6Gl2+S1K+lqrZSUsFCIcj5oGGcH3geZLKSClNfBSH/37bqBbTUy4noThOsZh4LxVqZJTQ2JZ/9F9uBMcjzsDQEzbXyY3M3eGdBNCUBYO8w7BuG/QMwnYRsTp4juYJ21HshBigpkfbEH7gKNnRAhT5j5oUGK0r5mS3gZPcRGvt3THyvL94QeVPCzqnz+LeHvspEaj0QjEIP40BDLXz4Gjhr/dJ/iZSEoL1RFnVDoyy946M5KuRhZy+culry+lXwGCPfu1UroKoKYrFiX5E/hKelqH59+/H9+menvjoG6iqgrgs2dcJVyMnKwIT8vjv7YP8wjE5K0MJsuhjF3kLzh5ISWNsJf/EGaXRQEoxXYyBosKKUX9kCxgsTmvhnTGI/2EKxr4gcZTw6egVff/JfiaRXE5RRTaEQdK6A910pi9Ty0mWwdrcya6WtAYbGin0x/uFZ6BmBVAZs9dKqVVpWZppINFVLl6vlvlq2VtK3nuiB15wrTTZOlDFHfR5m/reiVGpdOpvglVsh58npTc8g7O6DwUlJI0uk5BVlZyKX5RbAVJTBxm45Uelols0ifbTMHw1WlPIli8mP4059HTN1r8xTKfKpSo4yHhq5mht3/g1jyfWBSP0CKC2F9Z3w1ovg1O7gTaWfK2MkHWRzNzzZ44tY1xc8D/pHIBKTQG4pdIBbliysbISuFVJY7oND56LL5iR4mIxBU+3cApZncxwodSRlrHKm6L6+Cla1wHmnSGH/VAL6xuDAoLRIDickgCx4HOlksYS/P5XlcNZGeOMroWvmRGUZvGIWlQYrSvmQKUzjpB7Cnfw+JjNd1JWmxZCjjEdGr+B72/+O/thpgSmmryiDLWvhdedL96Clnvr1bJVlsHmVLMhzswuHZW52B7p3BNa0QnUwbmX1LMZAQxWsa4c/bgeNxeXezmTh4IgEFO48r/BmN3lKQ/KjtlIG0HpWNoKmt8qpy+CEFPtPxmF0AmJpiKfk2lhCc58MkoZ45nq49gK5F0t1Vb0g9MuqlN94GUxmJ274s5jkwaLOU7EYUoVq9kTP4StPfJpwak0g2hM7RvKHN6yCd1wCa1dC2TIcrFEakhbNK+phZPJIV5/lzgDbD8A5G6GqYnmctC1FFbN1K5XSvWq5B+PWQiots4ROXb14C2fHQE3OO5xPAAAgAElEQVQlVFdARxOcuU46jU0npVi/Zxj29sPgOKSyco3ZnPzIe8E8hXCcmROVDfD2S6CzWU9pF5IGK0r5iofxxnAj38eZeljO0Yv0JLcYMl4Fe6fP5lMPfoNIejUepcW5mBNgDJSVwsbV8JFrZOdvub5EjJEgbfMqmJzSYGWW9aB/UgbptTcV+2rUXBkj6U4rmyCqRfYYA9k87BkAryDBy2IG4rN/lkECpZZa+XH6GglKphJwaESK9Hf3Q++QtFrOF+R6PW+mZt/nQacxMon+vM3w3iugqUaCF7VwNFhRyi+sBbK4kRtwpm6BfL6oW045ynh84lK++Ni/E06vxQag65dB0nrO3AAfvBrqKsFd5i+RMldmKjy0C9AWxoDsBI+FJb/+9LV6jwSVMVBXBRvaYW9fUQ+hfcFaOa3oHZS6kfJyCBXpHfLsICnkQmM11K+F09bIPlwyLZsGu/uk21jfGExOS8CFBbyZwZTF+Au8AIO0v79gC7z/Sjld0ZPZhafBilJ+YcCN/w43/FNMOkwxH9FZW84fR67hhmf+iUhmNTYIjwoDdTVw/ha47kJoqJZF6XJ/kZSWwtbV0p1GCYssiEYi0sWotqrYV6TmqrpcAs5fPeyvRW2xeJ60Fd7TL53SQj7J2jXIpsDRGwNlJZI6trYV0mdCOgOjU0fSxoYmYGJKPqvW40ih/mzR/mL/HQw01sGrToM/ecVMCin6jlkM+vpSyg+8DE5+D+7E5zCpXrD5olzGbDH9g6NXc9PO/8Fo8hQKXgDG7xporoeLT4crXwat9XosPyvkQkudtNNMpCCrpyuALOoOjkjnpJpKXXAEVWmJdASrr4Hp6EwHqmUun4cdB2WeVJVPgpXn4zrglkqHxlpk4d/WKMMUX7UFxqNSazcSgf5x+edoCuJx8OCY6HQxUsda6uGys+HVZ0NznWyGqcWhwYpSxWZzGG8cN/xVTOxpKCSKcxk4pL1KHp+4lG8/88+MJjaS93z8ppvhONBUB5efA5efLcXk+hI5Ynaq8qYu6BuVNBHdggasFP8eHIPVrcW+GDVXriOnK+s64Jm4Bisg9R89QxBPSj1FEALx2UssK5Ef9VXQ1QJ2rXQSi8RhOAIHR+HgsBTvh6els186I8MrF+q55hhoqocrzoXLz5LNnyB8TZcSDVaUKiqLKUzjTt+KO/F9yKaLUl1oMSQL1eyInM8XHr2e6czqQMxRCYWgvhZe+3K44mwZgqiey1g4pQse2DbTNUlhgGgS9g/CRafOz0wKVRylLmzugp0HIFOcQ2lf8TzpvDUZh46WYE5SPzoYqKmUH6ta4dyNUpA/GYOBCdg7OJMyNgbpAmQz0oksn5eWyicr5EJ1FVxznpza6zumODRYUaqYbB6TeRJ3/HpIp5k53F50OcrYPnUBn37wa0SzXQTh0eAYSf14+yVw6RmSSqCen3FhzUqorYHh4pZD+YYFEklZ8MTTMjNC45VgKimVou1fPCRF237vJrXQLLKg3zsA69ugLsAL7GefYLiOPPtXNsiPczfI33U6KYHL7kOwdxgODcvJ0tFzXU70vjBAXa3Up7z25cuz/b1f+H9FotSSZXHSTxEa/ywmOUyxApUsFTwwfA1ffeJfiec6IQhdvwysboe3XQpnr9OXyEsxFpprYUUd9IZmUsEUGIhEpZC3tguNVgKqxIXuFqivlHqGnJ6u4HmwvRfO3yQNJJZS2tLzdRqrr5J3wend0iY5mpI6l92HYP+IpHxOxY569tkj9fov9Gd0tcK1r4QLT9Vhj8WmX36lisJi8v240e9jYo+AV5yq5wwV3Dd4LTft/GumM9141t+rfmshVAIbOuHNF8Lpq6V1pHpxxsgLfWMn7DgEk5GltXiZK2thKg77hyRNTr8kwWSAsjLY3A3jUxqsAGBhJAyjkaVfkzX7fAu5QKl8rqsrpQh+cxfEUnLKMhSRepd9AxCOS81LNn/kxMXMnMI4Dqxpl0DlnA1Qpe+YotNgRalFZ8FL4k7fghP5FSY7VYQrkK5ffxh6HT/c+XEGY1spWP8/kUtKYNNqeOMr4dRuaXupjpOF9e0y6yAyrakyIIvcRBq29cLV56HRSkAZA46VJhKP75Gud8v9/jbIScLghLQyXk4nA8bIfJlQKVSWQkON/PzadjhrHURiMDYNA2PSaWw0AuMRiGckNXRdB7zxVXDGWkkPVcW3jG5fpfzAgs3hpB7GnfoOJnVo0d+qFodkoZqnwxfyzaf+F5H0at8HKrNT6Td0wfuugO4VUOH/+n/faWuSgtveYZ1mPyuTlSL76STUVYDr/yxI9XwMrJmpzxif0mDFIvf2wLicLDRWL9/T1Nm/dkUplJdIh7T1HeBtkk5j4Sj0T8D+YWln/oYL4JRO3QzzEw1WlFpMtoApjBGa+AQmum/Rp9RbDKlCFTsj53P9Q18knuvEs/6uTDdGiufXdcFH3yB9+IPY3cYP6qugs0UW5F5B6+xBOgZlPNjXD2es02AlqIyB9iZorJE0Hk9bGIOFQ6MwGpZgRR0bsDlGTk5qK2F1m9Sm5PLSZVLb3/uLjk1TarFYiymME5r8N5zpp8BLLXraSZZyHpu4jE89+FWi2W7/ByrIicrpG+BjfyKLkZA+teZkNq+7a4VMYdZAZYaFTFpqefJ62hRYBhkQua4TqjR1B5DPeDgGh8bQFMfnYcxzf5RooOJL+tpXapGYQhgncTfO5E2QSyx6nkLGVnLf4LV85fFPEc91EYSuX1WVcPGZ8IGrpJOV6yzfVIb5YIDWekmDUEdk87CjT3L7l3v6UJAZYEO7pPPp4nxmllBCWhjn9d4+Lvp+8ScNVpRaDDaFST1GaOKzmFQY7GJu4ZrDXb9+uPPjRNJrKPj9RMWB2moZwnXtKyRQKdGk1XnRWCOFyPpSPiKfh74RyV3X05VgW9koqY5KTlayOekKNhkt9tUoNXcarCi14CxOdi/u1A2Y2M5F3d6yOKS9Sh4Yfi3f3/G39MdO9X0xfciFxlp49dlw9cuho0kDlfliDNRUSHFpaYkGLLOshVQGeoYgozNoAssYqc3oaJHOgUpEYlJor1RQabCi1AIz+UncyHdxpu+CfGbR/lyLQyJfw5OTF/OVxz/FcGIzBevv9iYhV6bSX/kyuO5CSVkK+T9bLVBKQ9DWAI31xb4Sf7EWdh6SVsaaLhNcFWXQ1QI1WrcCyL0cTcKeATQ1TgWWBitKLSQvhxP7GU74F5jMJItV1mwxZGwF2yOv4NMPfpXp7Go86+9ev44jhd+vuwDedjHUVUmNipp/1ZWyoFNHWAsHx2TytS7qgm1lo6Q7KpFKwzP7tUOaCi5dCii1UGwWJ/MEoYkvYNKLO08lSzl/HLma6x/+AvF8B9b6+3jCIqkb110Ir3u5tI/VFKWFYQxUlcKWVdqm92gOMDQhdSu6qAu2lnrY2CG1b0oaSIxNyQDEnNZkqQDSj7JSC8HLYfKjhCY+iUn2g7d4ifBpW8U9/W/mhmf+kWh2FdgQft4qNkaGPb7jMrjwNEnj0NaRC6u8DLZ0g+P6+c5YXBZIZ+HAKMSTxb4aNVfGyDC/TavktFbvb/kapLKw7YAU3CsVNBqsKLUAjDeGG/kGztT9kI8vyp9pMaSp5N7BP+GHu/6K0cQpvk/9CrmweTW841I4ax3UVhX7ipaHkhC0NkBHswxAU8IrQM+ATLPXupXgKiuRmUzN9Xq6AnIv53Ow/aAMPdR7WwWNfoyVmmemMIWTehB34nuQTYBd+JwSD4dkoZaHRq7i28/8IwPxrXg+7vplkBOU9V3w9svg9DUaqCwmx0BZSFoYl5bogMjDLAyOw1C42BeiToZBnierWot9Jf6RK0iRfTqnn3cVPBqsKDWfbBaTfgI3/B+Y1MCizFOxOCQLNTw1eRGff+SzhFNr/R2oGKgoh7Ud8F+ugjPWQKV/L3fJcl04pVNavGqqzBHhGPSPgqcrusCarcta1yapjgoKBRiegNGInK4oFSQarCg1bywmP4Ib+T5O+OFFW+1kbDmPT1zGpx/6MvFcFxb/Dnw0yCL5zA3w0WtlZ19bExdHaQg2d0N5qe60Hi2RhL5xqVvRdJlgshbKSuG0tRqIz5q9l7cflJlCSgWJBitKzQsLXhw38nWc6K8l+X2B35IWSNkq7h18I1967DOk8ysBf6/8S0rhwtPhXZdJe1FtTVw8riNzbFobJMdfHTEShrHpYl+FmitjJFjpaoEVjTMbIhp4Yj3YOyjtufXLoYJElwpKzQuLG78NN/JzTDq84FuyFun6dXf/ddy08+NMZ1bhWf+uOB0HysrgqvPgLRfByibZ2VfFY4yccm1dI2l5aoaR9sW9o7qgC7LZuqzNq6QuS49YAAOHRmWivZ4aqiDRYEWpk2XTOJmncSe+jEn1LXibYg+HtK3ivpmuX8PxLb7u+hVyoa4GrjwX/uSV0N6sO/l+YZC6lbpKnWtzmIVYCnb3Q8HTRV2QuS5sXS0bJXp/AxbC0zAchoy2MFYBosGKUifD5jGFUdzIF3GiOyGfWNA/zsMhka/j0bEr+PpTn2A4sZmCj4vpS0LQWAuXngXvuhSaaqDE35lqy07HbIvXYl+IjyRTcGgE4mkNVoIs5MLGTuk8qDe48Dw4MAzxVLGvRKnjp8GKUnNmMd4U7tQtuKM3Qj620H8aKa+aJycv5jMPfplYttvXJyquAw21cPX58I6LZVCbFtP7T1MtrKiXeSu6+ywskEhB34h2BQuykAPtjVBfLf+spG6lZ1Am2uutrYJCP75KzZWXwUndjzv5ecjmWchHvwUytpIHR67ms498nkyhDWv9u/I3Bpob4LoL4XXnycR0XQj7jzESVK5th9oaPUU4zEo3sL2D+jUJMmPkJPf0dVBZWeyr8Y/xaRiYKPZVKHX8NFhRak4sTuYp3PEvYhKjYBY2UEl5NdzZ/xa+9dQ/k8y1Y3Hxa16D40DnCnj/lfCqU6U1ruPPS1XI92ZNGzTXakB5tFQWdvVBweoOdNBt6ZK6LJ8+MhddNC5pjpmsBuMqGDRYUeqEWUzuIG7kBkzsmQUtqLcY0raauwau4+bdHyOcXotn/TtHpawU1nXAuy+HM9dBTaUEL8rfWuqhW6d9HyObg95hGRJZ8Ip9NWrODLQ3yT2usYrIF2B0CiJx3aBQwaDLCKVOiIfxYrjTN+NM/RaTi7BQ+64eDolCLfcPvYHvb/8bhnze9auiHFa3w9sugZdthJoqDVSCwBiorYBVLTLNXgnPg0RG8vuz2jkpuCw01sjJYYm2SwckaBudlK5gSgWBLiWUOm4WbBaTfBh38gZMqn/BztA9HOL5Oh4fv5yvPP6vhNPr/B2olMHGVfCeV8MFWyT1SzfsgqOsRGbf1NYU+0r8pZCHbQckXUYFkzFyf69ug+pq9MEEYGEqKe25PT01VAGgwYpSx8sWMIVxSsb+AZPoW7CnvAXSXhWPjV/Opx/6Eolcl29TvwzguHDmRnjvTOqXCh5roaUOWuuKfSX+ks/DviFI5zS3P8gssLoVGquKfSX+YC3E4rCjF/KedrxT/qfBilLHxWIKI4TG/gUT2w1eZkF26GaL6e8efBP/8di/kS+0YH38MXVcKaJ/+8Wwtk3zn4PKGKirhi3dYPzbZG7RFTxpXzwVl0WdCigLrQ1al3WYkQBlOglDk9pAQvmff1dBSvmFtZj8GO70bTiRX0I+yUI83i2QsjX8tu+d3LTjr0nl2vEI4de8BceR2SlXvxw6mqFU6x0CraoMtq6R7mD+vOMWn7XSlXzvAKQyxb4aNVfGQF0VrF0prYx1U0Xu7XgSDoxoKpjyPw1WlHopNoWTfBh38uuY9DjYwrz/ER4OKVvDnf1v5Sd7/pyx5Cm+Tf2aZS1k8rJDp4X0wVdaAq310NoERr+fh1kPth2EaFJTwYKstES6gtXpPCFAvgbJDGw/qMGK8j99JSn1ojycXA/u1P/FJHYvyFvOsy7xfD1/GHoD33767xlNbPZ9oAIzu8453XVeKgxQWQbr28HVVLBjDIxLC2M9cgoug7Qvbmss9pX4RzYLuw5CWuetKJ/TYEWpF2ItJh/BjXwVJ3o35Oe/f+lse+JHx67kc4/8O/FsN54NTj6VV5AizWnddQ48Y6AsBJu6IKQtXg8zBiamYTSiO9BBZgzUV8Npa/XkcFYuDxNRmWafzRf7apR6YfqRVeqFGHCnb8IJ3wHp6Lzvqlogbav44+g1fO7RfyfnrcASrFWiMTAUntl1VoFXViJF9q6jef2zrIV0RhZ08ZQG5UFWVQ5bVqEV5UfxPHh6v7bnVv6mwYpSz8dL4iTvx53+GiYzzHy/3SyQ9Gr5Xd/b+caT/0KmsIIgfhythYkpGJ7UbklLQciFlQ3SOUlPV46wFnoGYDJa7CtRJ6MkJKlgXa2a6jirUJhpz53XQFz5V/BWR0otNJvF5IcJjX8KE+2HwvwWZFgMKVvD7/reyY93/wXR7CpsgFK/ni2bk13nmKaCBZ7jSJCydY2csqgjxqagfwKtWwkyC5Wl0hXM1dUPIKm8B4YgmdYDJ+Vf+nFV6hgWUxglNPUtnKl7IJ+Y19/dsw7JQg13D7yZH+76GKOJTdgAFNO/KCsvuwnddV4SXAObuyRlRlPBhAGmE9A7Avn5bwaoFsnsNPstq/TkcJZnIRKDQ6OS7qiUH2mwotQsazGFaZzkH3AmvwvZDPO51+RZl1ihngdHr+HrT36CieT6QHT9Oh5jEVnI6clK8DmO7DxXV6KnCDOshWQKBse1biXoSktgUzeUlWmhPci97FnY1gvxdLGvRqnnpx9VpQ4rYNIP4Y5/HpMcBTN/KxKLIelV8+jYa7j+4S+QynVgWSJ5NkYmfB8a0TSCpcAYWFEPDdUQctBv6lHGIzASLvZVqJNRGoL2RpkpFNK6FUBGh+2dqcnSQFz5kQYrSgFgMbke3Mh3cGLPzOsTW4rpa7hn8E184dHPUPCasSyht+TMlO+xaZhK6No26BwjU763rIGaak0FO8xCJAr7h4p9Iepkua7UZZUvjYPtk2ekJmt8Sp/fyp80WFHKephClNDkV3Gm74HC/PVwlECljjsOvYvvbf9bUvk27BL82FkPxsK667yUbOqEek0FO8xaSZN5skfSZnQHOrgcA1u6oLpCg3EAZtIch8I64Ff509JbNSl1QizYLE7sFpypX2PSE/O2CvGsQ9Kr5Y5D7+Sne/6ccHrt0kn9ehZjpAC5R3edl4zWBmhrKvZV+IiRE8TBSZiMScCigskY6G6DqkqNxWcVZrqCReIaiCv/0WBFLW9eGiezjdD45zHpQUnenQcF6xIrNHDP4Jv4/o7/wWjilOB3/XoJyQzs6pduSfquC776qpm8fu2adJhnIZ2Fg9oVLNAcB5prYWUjlJaiD6wZ/WMwNFnsq1DquTRYUcuXzcs8lcnrMYkDUEjNy2/rWZd4oZ4HR17Llx77FLHMqiV7ojLLWkiloW8EppPSu18F12yL165WqK0u9tX4yMx9vqNPh6AGmUGK67d0Q42mOgoDU0nYP6ynhsp/NFhRy5TF2DBu7Cc44Z/N2zwVC6RsFQ8Mv47PPfJZcl4rluWzNZ3MSCpBQRdywWdgVQusqEMXczOMgVwedvVBIa8b8kFmgLVtUFeldSsAWIjGoXcIMllNBVP+osGKWp68FE70TtzxL0Nufo4BLIZ4oZ5fH3wPX3/yf+HZBpbbKi+dhp2HdNd5KTBAUx2s7dB5FLOshWwOegeke1IuJz93+EexL1AdN4ukgbU36cL8aJEEjE4V+yqUOtby2fJV6jAPJ/UIbvjrmOTwvLypLIZEoY5fHfhTftbzIRK5dlhK7YmPw+xCbsdByL8SKCv2FamTVVshu8+ugbxBV+PIfZ7OwLd+Bd2tsK4DuldAUy3UVkJJ6MgWhe7Y+5dBUsA6WqCiXL6nyz1osRYmp+DACKxuK/bVKHWEBitqmbGY3EHcyA04sacll+MkFxSedUnaan536B3csu/PmEytY7l+tHIFGBiHybgsAEqWV7y25JSWyO5zYx2MaeHtYZ6FHb2S8vjYHmioha4WaGuUHy110FgDNRVQUSYF3VgNXvymxIVVK6C+GoZ1ejsGac+9vRcuPWPm5/SeVT6wPFdUapnyMIU47tSNMk8lHz3pQKVgQ8TyDTww/Dpu2Pb3pPIrl1WNyrN5HmRysKcfWmqhpKLYV6ROhjGykOts0WDl2WabSiTTMBaBPX3yOKmvg8YqWNUqBdyrW6VFbkUJlJdI44KSkC4C/aKzWVp0D0+iJ4fICdPuQ5BIQWW5nKoqVWzLd1WllhkrbYpT9+FO3oBJD5z0mb+HQ6JQywPDr+dzj3wWTC1aBiaHVbv64JwNUFWui7IgM0hq06ZV8MReQGuRjjH7BLFW/h8LhCMQmYKeQbjnKSgrhc4VUhuxuQs2dUFbg3Sjch05dXEcGVSoFpcx0FADGzrhqZ5561wfaJ6FTEHmCa1dKfeoUsWmwYpaHmwOk+8nNP4PmNTISQcqFkPSq+XuwTfztSc+qYHKUawHvSOQSMssAxVsVeVwarfc3dZoXv/xmP0aeQXIpKUg/+AgPLxT5tY0VMGm1RK4rG2TVLvq8uf+PhroL7zqcljbCiFHZ0SBBNH11bJJoYGK8gsNVtTSZy0mP0Ro7BOY6H4oZE7utzvc9eu9/Oeuj5HzmtFA5QjPwuA4TEaho0lSXlRwhVw5CVjRBBNhHYZ4ojx7ZO5QLi+nKJkURKLwxB45eamtlNqJTatk4dxQK/UupUd9djRwWRghF5rrJBWsb2S59W88VkU5bF0L774MWur1tE/5hy4j1JJnvBHc6C0407+HXIqT2TvzcEgWarm99/3ctu+DxDKrWG5dv16KRfr07x+G9e1Qp0+ZQDNIrcWmLnhoWoOVk+V5kk2XT8npowVGHRgYg6d7JFBpqoHWBulU1dEsJ5T1VdLwYHYBqcHL/KmrlgYJ/aMsy6MVA1RWwDmb4A3nS+CszVGUn+gyQi1tXhwn+QfcyLcx6QlO5k1UsC6JQh13DbyFm3d/lGime1kX078Ya2F3H5y/WXaNdWEVXMbI6dip3fD4Pkhni31FS4M9/H+gUIB4UoqaRyPy86WlUFMlQUp325F0sYZqqK2S9KWKMknV0c/X3BkD1WVw6mp4cMfyS3M0Rgrpz1wPf/IKuc/0NFz5jd6SaumyBZxcL+7k/8XE9kg+xhxf6gXrEss38sfh1/HNJ/+FjNeMfnxehIXhMIxNQ1dzsS9GnaySEtjcLScsCUdOB9T8O3qhnM3CZFbmXuwfhLuAuhpYUS+nAJu7ZWHZUC3pYqUh+T6FXE3fOVHlZfL1DLmQt8snYHEcqCyDMzfCu18tbbf1REX5ka621BJlMV4UN/xZnOh9krsyxxf4bDH9/UNv4AuPXo81dWiNyoszwMQ0DE+AXTvzc7qACqwSV1q8NtXBVEyDlUV11MJ5Oio/9vXDPU/LqUpHC6xpgy2rYEOHfJ9KS2Yed7MpY+jn78WUhiTVbnU7HBqS2qIlH7AYqVE5eyN8+LVaUK/8TYMVtTRZizv1LZzJuyCbOqlAJV5o4I6D7+SGbX+H1a5fx8UC6TQMTEAsLZPQVbC5LmxZDUPjsuuvi98isuDlpTvb4CiMjMOjeyR9p6YcTlkF69pgbbu0TK6r4pigR793z1XiwtZVMDQG2Vyxr2ZhGaRO5/wt8PZLJVDR0zjlZxqsqKXHi+Om/yDpX9kx5jocYjZQuW3/B/h5z4fIFFrRYvrj51noH4OJKQ1WlgQLWzrhoe0QSyyDnecAsFZOAXIAWcBANArhGDy+W9LGaiqgtR42dMGaVmiul89jWcmR30eDF0mhO3UN3LtNBn0u1fvbGDkhvfQseM3LoLFGT1SU/2mwopYWL42TO4Q7/jlMsh+8ubUp9nBJFGr5Ve97+cX+DxBOrUE/LiduNAy9ozJcTAVf1wqor5HTFeVDFgpWivVBghbHwL4SePqAfO86mqC1UU5cVtRJ296aCigvlZoNa5dn8BJyYN1KqCiB6SU8T6ilAS4/B159ltQ/6YmKCgJdfaklpIApjOCGv4ETuRvy+bn9LjZELN/APYNv4gc7P04ytxL9qJw4A8SSsLcfLjldFkIq2JrroKladqFzSzxVJtCOWmh7FlJpOS0Yi8DeQ1LTUlUFTVWwqg02dkqL5PoqqKqQBXt5mSzgnWWy6+440FQLnS0QjkL65MZx+U7IldSvy86GK18GzTXLMyhVwaQrMLVEWEwhjpP4LU7kpjkPg/BwiRUauHfgTXzpic8A1Wjq19xYKwukobDUrdRXLe+Ba0FnjKQOre+E7YdganpZjqQIJjPz2Zv5hmVzkJ2CyBT0DMNdT0iQ0tpwpNPYKZ2SMlbqykLXdaRuaakW6ztGaoC2rIZ9g0srWAm5khJ47SvhqnPke61UkGiwopYIi5O6l9DYlzDJmUEFJ/w7GBKFWu7uv46vPvm/gRq0mP4kWZiOycC7um4w+uUMNiuDPhurJVhRS8BMSV8iCb0pODQCD+yQBW5Hi6RwbmyHdR3Shry89Lm/xZIJXqwEaQ3VSygYN7CiEd58Mbz6TK1PUcGkwYpaAixOegdu+AZM4gBzKai3GGL5Rm7vfT837fpLPKvtieeFgamETLPfurrYF6NOhrUwGYN7n5kZXKiWHGtlQCUFKOShfwRGJuDR3RKkVJbCmg5Z0K9dKTUPdZWSQnV0vBLk4KWzBRproXeIQEcrs62ru9vgjRfCBZt0hooKLg1WVMB5mNwkbvirmOhD4KVO+HewOMTy9dza82F+eeD9MzUq+lSfD9ZCKgPPHITXny9pFgFexyxbuQJMRuGn98Nje2e6JRX7otSCsnYmXSwHJg3TSBAyNgVP75Ni/aZaqX3oXinzXVrqJd2zohT5oAesWN8YaTbQ0Qy7KiCZDPB9bmBNO7zxVXDOek39UsGmwYoKLuuBTQkt0soAACAASURBVOHEf44z/RtMZvyEW7gUbIhEoY7fHHw3P+/5AFOZbvRjMb8yWTg0DNNJ2YXVNIRgSeekMPv2h+H+bRDXtsXLzuz321pIpOTHxDTsZ6YeolbaIXe2yE5+e6MEMg3VRzqNlQTksRpyYF07PLxL/p6zAVdQ7nljpLZodRu8+SI4Y+3MnB2lAiwgjw+lnodN42R3Epq4HpMeluDlBBRsiGi+iXsH3sQN2/6enNeMnqjMP2tlwXtgCE5dDe7z5Lwrf0pnYWgSfvYA3Pe0pAgFZdGmFsbR33+LNF2cCMOEgd5heGA7VJRJiljXCtjSDatboaEGykugLCSBS0mJf9vmrmuTgMXzpNA+V5ATJs/z9/1vjASGbc3w7sthyyo9UVFLg0ll/fzRU+oF2AIm10vJ2F/hjN0JXvqE/nMPh1i+kTv73sYXn/g0rqlEa1QWTmU5vPZ8ePOFUFNZ7KtRxyNfgP1D8JM/wIPb5Of0baGOhzHSMnk2Bay8DFY2SfCyuUtaJbc3SXc5x8ivm/1fP6SNeVZq7Q6NSmewvUPQ0wfxtATshTxg/BW8GCNB4KqV8KFrYGMHlOp2tFoi9FZWwWMtJj+IG/0eTuQusCfWY9JiiOfr+e3Bd3LDtn8gZCqxGqgsqIIHe4YhO7eO0mqRWQt7B+Dm+6Q+wS8LMhUM1h7bKjmTgb4RGByDx/dIV8DGaukwtrFDhjF2roCqcnBng5WZ/7YYwYtjJGV1azds6pLgJJWDgQn5XPQMyj8PT0jw4lmKXtziurBlDbzncml+oMX0ainRYEUFjvFiOPE7cSe+C9n0Ca2kLIZooZFbe/6Mn/d8iKzXhJ6oLLxcHg4MypDIukodEOln+QJsOwg/vAcODEj6i1InY7bLWKFw5H5Kp2ByGp7ukVSlqjLobIUNHdC9QtLIGqqlhmQ2YFnMwMV1jqqvK4VKD6orYG0bpE6X9LDxKBwYgb19MByWbnnxxMy1MhO/LHAQYy2UlcKZG+AtF0F3q56oqKVH08BUwORxEncTGvskTuRB8I5/Sr2HSzxfz237P8Av9n+QidRatEZlcRgju6n/7U3wis3y0lf+k0zDk/vh5w9C76BMPldqwc2kf1WUyelKfRW0NUFzrZy4rGyQAZV1lfJrnCIEL0ebXTXlCvKZic40HBidgqFxGInIqctUUubXZPNH/rv5vGRjIBSCl2+Bay+ANW3y9VFqqdH4WwWHtZhcL6HIN3CiT8nZ/HE++aWYvpHfH3o7N+/5CxK5djRQWTzWAh5sOwCnr5EFiR9y05WwVk69dvXBj+6RwYD5498HUOrk2Jk252lIpmBiCnqG5PFeVwsNldDVCus7pNNYQ7XUvlWVST1MaWhxnyezf1ZpCEqrpdtWV/PM3yEr9S7DEZnVcmgUxqfl8xVLSnCTzcmvPZmtYseRv/vpa+Gdl0Jbo9QAKbUU6cmKCggPCglKxj+JM/ED6f51nGYDlTv73s43nv4Enq1FU7+KY10nfPRaKbDVWMUfrIVEGh7dIzUqfcf/0VJqQR3TMtjIAr2sRLpdtdXBpm44pQvaGiRwKAlJimnIkV9bDEenflkLeU/atg+MQe8o7DgoXdNyntTy5PMzKXInUKxvDFRWwGmr4cOvh6YaTa1VS5sGKyoYbBI38RtCgx/DJIZmKhqP4z/DEM838NtD7+DLT0rXLy2mLw4DlJXDX18H528u3mJCHWGtpKj85jH45YOSuqJvBOVnhiPDZR1HCsub6uGUTimG39gJnU3SgfDo/6iYmyOH59TM/HM0CQdHYdch2D8C+welfscCtnDk5OaFPotVlXDBqfC+K+SUSTd+1FKnwYryPy+Nk91HSf/bMfEDUDi+RHqLIZpv4pf7/5Sbdv930vlW9ESluIwD730NXH2uDItTxWMtZHJw20Pwm0dksaSpXypoZocglrhQUir/W1clwyk3dkhnrLYmGVo52yGrmCmoFml5nM1LJnOuIJ3GRiLSZWxvPwyEZXZNJif/gXfUCLGaKrj4THjTK6Wmx9UTFbUMaLCifM7DZHsIjf9P3LGfQyHL8bRXmQ1Ubtn7X/l173uZTK9Ba1T84RWnwnuulBxvrVspjnwBYin45UNw1xMQiUnHNqWCyjJzwmAkJaq0BCpKoK4G6qqhuQ7Wt8PW1bB6hb+ePQVPgpZ0GuIZOXmJxKQ98oERSSELx+TvdcU5cOkZsLJRU7/U8qEF9srXTH4EN3oLztTvjztQKdgQiUIttx94P7/qfR/h9Go0UPGPgXEYCUuqhp8WDMtFLg8TMbjzSfjNoxCLy2JJqSA7/CixckKYz0ux/mRMfq6sFJ7ZDwdH4M9eK/UtfjHbJrm8RAKrjibJdE6mpaPYbJcxz4MLts6cqGiSgFpGfPRxVepZCjGc+F24ke9i0mGON1CZzjVzd9913Ljr46TzK9BAxV8iCegbhbPXa1LeYsvlYWxagpTfPQ6xBEUfZqfUgpq5v7NZGAvD9l4Ix/274J/dwHGNdDyrroDOZnjZeglgDLrJo5YfDVaUTxVwsnslUIntOfKUfhEe7uGuX1958l9xnXJ0Oew/sQT0j0s+tutqcehiKXgQicMt98PdT0knIqWWi9mYPJWF/UPQUOXPYOXZjg5MHH1YqmUqAB9Vtfx4mNwkofFP4cQePCoZ+YVZDLF8A3ccfDffeuZ/EnIq0Nvbv0anYGwK3dVfJNbKrIcb7oB7n9ZARS1TVibPbz8oNSJKqWDQ1ZzyGQs2ixv9Bib2EORSL9lL1WKYzrXws30f4T93/xUFW4fV/XrfshbGI3BoDD1WWQSZnJxkffN2eHKfLNaUWq4yOdh+QDvfKRUkGqwof/FiuLHbcSe+h8lMgH3xyl8Pl+lcC7fs+3N+1ft+4tl2/HJbOwaqA5JqsJgMEE/JNPuTneKsXlwyAweG4Tu/lQVaIqlfb7W85QswMiW1W1kNWJQKBF1GKf/wUji5A7iTX8AkB8B78S3gvC1hOtfM7Qfez637/wuTKf90/Sotgc4VcM15UFujucbPlsxAz5AELbp4XhjJNOzph5vugsf2yP+vX2u13FlPGk3s6oN0tthXo5Q6HhqsKJ8oYAojuJNfw5l64CUHP84GKnccfA/f3fF3xLMd+CVQKSuDlc3wtkvhbZfA6jYIhbSDy9E8D1IZSU/ydAE97xJp2DMAP74PntoHXl4DFaVmeXnYcVCK7fVjoZT/abCifMBiCgnc6G244f+EwkvXqMTyjfz24Hv42lOfxLN1+OVWdl1Y2wHvuwouOUNOWDZ1Q2WFvhSP4ckMhD39OuNjPlkLhYIUEH/vd/BMj+wk672n1BHWyryVZAr9cCgVAP5Y4anlzXo4iTtwJ78OmSQv9vawGCK5FdzW8yG+u+NvCTmlWB/cxgZwHDh9PbzrUjhj9ZGf39QJtZXFvDp/yuRg35Ccsqj5kSvAAzulRqV3aKYmqNgXpZTPeBaGwzAS0boVpYKg+Ks8tcxZnOx23KnvYJJ9YF+4n6TFMJVbwU/3/Ddu3f8hcl4DfriFDXKi8vKt8I5L4JROKC898u/bm6C5Dl01Hs3MBCsDEM/o6crJshaiCbjrSbjxThiZkLx8pdRzWQt5D/YMSsqkUsrfir/SU8tYAVMYxQ1/GRN9DPLJF/6VNsR0roVbez7MHYfeyXSmEz/cvsZAVSVcsBXeciGsbYfK8mN/TWM1tDZISpg6wvMgloRDo7q7eTIsMBmDe5+Bnz8AQ+OQzRX7qpTyN2NhT58MStV6LqX8rfirPbVMeRgvgRu9FSfya0xm/AV/Zd6WMJVbwa8O/Ck/2fvnRNLd+OHWdRyoq4Ez1sM7Xw1r2qCi9NhfYwyUlci/q60pznX6lbUy62DHQR1SOFeehcko3PcM/OwB6B/VtDqljouF0Yikg2msopS/FX/Fp5YnL4VJP4M78f9h0mMvuLUlJyrN3NH7Hr617Z9J5Vfgh9t29kTl/E3wgauhs+XFT05Wt0JL7eJdX1Dk81Jkn8rp7uaJmj2Z+s1jcNsDMDpZ7CtSKjgMEInB8ISkoerzRyn/Kv6qTy1DFpPvJzT2T5jYCNjnzwGyGKL5Rn578F18e/s/4ppy/HLLlpbCFS+Dd10hQchLzVFprpe5K8Yf3ZV9w7Owf1jzxk+U50nNz833wW8egYnpYl+RUsFikbqugQmYSiDRi1LKl0LFvgC1zFiLyR8kFP4mTvQx8HI83yG8dP1q42d7P8LPej4MVGJ98DZxDFTXwOsvgCvOgtoKSQd7KXWVsHoFuAYKRnfxZlkrwwoPjUkjgsqyYl+R/+ULUqPygzvhsd06lV6pObPQNwajYWiuQQMWpXzKH9vUatkw3hRu7Hac8E8gl+D5AhUPh3C2jZt3/yW/7n2fb1K/Qi401UvHryvPhoZq+bmXYgyUhqC9GeprdWF5NGvBK8C2AxDVRfdLmt0JvvEueHgHxJPaSU2pubIWwjE53VVK+VfxV4Bq+bBZTOphnPCNmPTg865M87aESLaV2/Z/kDsOvpNIpgs/3KalJTKV/o2vgsvOPP5AZZYx0FwLbQ3o7t2zWegdhnC02Bfib9k8HByFW/8ID+2QgXZaTK/U3BkjdV97ByStUinlT8VfBarlwXqY3CFCkS/iJJ553u3gvC0hkm/ll/s/yA93/3ei2Q78cIuWlUBHC7zpIrjqXGlN7J7gZRkDtVWwsRMNVp7HeFQ68+ji+7mslUBlaBJ+cj88sA0SCe1gpNTJslY6EY5NyQmLfqaU8qfirwTVMmDB5ghNfA4z9RjkUs9ZsHu4TOVWcHvPB/n29n8i79Xjh9vTdWFVG7z9MrjsDEnneqli+hdSVQ5bV/vhb+U/U9PQPyGLck0FO8JaqVEZGIOv3CapX4kUGvAqNU+MgWhM6uY0WlHKn3TdpBaeF8ON34Qz/QtMLsyz3wgWQzi7ktt6PsxNu/6KEieEH1ZjxoH1XfCeK+HcjXKaYk7isspLoaMZmhpO/GRmqTMO9I9J4bg6IpODniH4ws9h/4BOpVdqIcTSsHdQYxWl/EqXTGph2SROZg+hkc9gUhNSTX30vzaGyWw7N+/+S27b/0EKXi1+CFRKS+C0tfChq2Fzl6SCnUygMquiFNa1y4mNOtbQhAxo88G3v+ishXgKdvXB12+H/hHIZot9VUotPdZCKiVNPgoFPdlVyo80WFELx+ZxsvsJTXwGk9gP3rFjyguEmMy08+Pdf8mdfW8llm2bn4jgJFVVwjmnwLteYCr9XBmgLAQb2qFEm4Yfw1iIxOHAsC4WQDqjPboXvvs76B2aSY8r9kUptUTlCjAegcEJSbtUSvmLBitqgVhMYQQndgvO1O9ly+ooeVtKONvGL/Z/kNt730sk3Umxb0cD1FbD2RvgbZfClm5J3ZrP+Km0BLZ2Q2ieTmqWCot0t+obhXR2eQcs03F4ZA/ccj/09ENB63iUWnCZPOw4JBsDSil/0WBFLYxCEmf6V7gT34dMlKP3hfO2hEhuBb/c/0F+sPNvSOVXYEzxA5WqSjh/C7z9Eli/cu6F9C+mxJXTmtoKTQV7tlwBJmIwEWVZpoJ5HiTS8OBu+PE9cOD5u3srpeaZtZDPwe4BOVnRz51S/qLBipp/1sPJPIU7fSMmcYCjAxWLYTrXwq8O/Cnf2f7/Yqik2CtTA7gl8Jpz4W2XQHfrwp16OI6crmxZI6c26liTEegdYVnmPKVz8Lsn4Xu/k/odpdTiyeVh1yFpaqGn3kr5iwYran7ZPKYwTGjiUzixJ4/9V8Ywke3gp3s/yg93f4yQE8IWOVBxDJRXwFsuhteeD021C/+iMkZObso1FewYxkIiAzsPFftKFt9EFH58H/zwbogndGdXqcVW8GB8CobCkoqqlPIPDVbUPLIYL4Eb/gom9jjk4odXXRbDRKaTH+3+OL85+F4yhSaKfaLiOtBUD2+9BF7zMmiskTStheYYGQ5ZU7UsDxBekAVSadndTGfBWwZfHIt0QLvtQfj94xCPP6e8Sym1CKyFfB6e6oFk5qV/vVJq8WiwouaNKUzjJO/AnfwBJnNknkreljCRbeeWvX/OnX1vZSrTgSlyoBIKQXsLXPtKuPKcxQtUQIKVlY1yirNYf2ZQ5ArSCat/XHY6l7KCB31jcPvDcM9TEI7qiYpSRWVhb788g/SzqJR/aLCi5oeXwmT3445/HpMaA0/O0XO2lMlsO7f2/Fd+3vNhptPtRQ9USkKwshledwFceTbUVS7ukEZjoKIM1rRDebm+FI9hJWd8d//SHYA4O5V+aBJ+ch/c9RRMTqPHbEr5wNCkbBwopfxDgxV18mwBk+/HjXwJJ/rI4XkqBUKEs23c2vMRvrv978gWGjBFLNIwRoKSFY3wjsvg1WdBZXlx6kYMcEon1FVI0b2aYSGbgW0HJSVjqQVys4FKOCYzVB7dBdFjm+UppYrFSt3KcFhaGSul/EGXSeokWUwhijv9c9zwzyB/dI1KO7fu+wg/2v0xylwHP9SodLbCR98A522cv6n0c9XeBG1NWmR/DCNzDnYdhFSOYt8y867gSQHvl26FJ/dCPKlxilK+MfO86RmGKW10oZRv6BxtdXJsHif5K9ypb0MmDlgshrHMKn6466/5/aG3YamgqKtOI22CV7XCB6+BNa3zP+xxLlpqpXYFkBXrEluYz5W1EE9B/xjUVEBlWbGvaH6ks7B/GH5wF+w5CNmcBipK+VHPAIz9/+3dWZBc53ne8f93Tq+z7ztmwb4SFEACJEGQ4L5bpGhLlCyTXsoqly055ar4Nncp5yJXqaSyVCWpxBUpkUhZdllSXGIci1qtWLTMDSBAYpkZzL7vPb2cXLw9mCFFUlhmpk93P7+qJlWkAB7M9PT5nvN97/tOQ8s2dIcUkV9NOytyCwK8ldfxJ/8zbnGAIMiRxWd0pYevnf1Tvj/4GRbTzQWtUXEOqivgtl3w0qOwp8PqRQp9A3IO4jHobIbqKhRUNlg7KvXGxdJpIZpKw1tX4H9+H85fgdSqntqKhFJguypXJ9DnskhIKKzITcrgsiP4k/8Wt/AmZJbJBDEmUl1868If8Lf9v87MSkdBa1QCoKoCbt8Nn38AjvRZcX2hg8oaz4OuJqivKvSVhI8L4OKI7bAU86I+F1jgeusy/MWP4J2LsKK2qCKh5RwsLcPINORKvCOhSLHQMTC5CTlcdh5/7ut4c6/i0pP5rl/tfOvCH/LyhT8kF1QWNKgAVCZtR+XX74Nd7eEJKWsc0FQLnY1weRidCdogAK6O51uIUpwPOHOBBZNzg/Bf/jcMjdvRLxEJL+egMgE1Sasx873w3TtEyo12VuTG5ZZxy6/jj/5L3Mo4uZxjMtXBX5z/I/7HO39KEFQW/OiXH4FTR+DFR2B3R3hvNg1VcKg3vNdXKEEA49N2FCNVhAv8ANtR+adL8G/+AvpHFFREikEyCc/dC48cg1iIduJFypnCitygHN7qeSKT/wK3NANBwNhKD6+c/wrfeu9L+SGHhQ0qlUl4/j74zQehrb5gl3JdkgnobsnXrcgHOAfvD8H8UqGv5MbNL8HP3oX/+NcwNVvcR9lEyoFzUFEBLz4MD9xu9xEFFZFw0DEwuX5BgEtfxJ/8D3izbxIEWUaWe/ja2X/O9wc/QzpbU9g5KthU+EdPwGN3WC3Idg57vBmeg7oqq105O69F7UZBABeuwvgsNNcWx8IhCGB6AX74Fvz1T2FyRufeRcIu4kN9LXzuDNx9wLoQhv3eIVJO9OMo181lJ/Hn/xJv9rtkV1OMLnfz9XN/wg8Gn2M+1VrQoOLlZ6g8fhc8fAwaq4vjZhMEUJWE3hZwRXC92yqwoDIwVhzlPEEAY7Pwvdfh2z+B4QkFFZGwi0bs3vEb98N9h6GmAny/0FclIhtpeSTXJ0jhpX6GN/VVMkvjjK108c0LX+ZvrnyB2VRbQYOK70NHEzx1Eh47Dq11xfEUHvJHD2JwqM92WYrlurdDAMwvwuCk1a2Eedcpm4XJefjbf4Tv/tSaAyioiIRbLGrzt567Fx44ChUJe/AlIuGiY2ByHbK49BX88X9NbuFdJlbaeeX8V/jG+S/jO7+gQSXiQ0MtfOEhOLbbZqoUm0Qc9nRCIgFLi8Wxi7BdsjkYnYLZRUiEtP4ok7W5DN/5f7ajsqip9HITIr7VsGVzFn4zWchl9V7aCs7Zzntbg+2o3LkP4lE9LBIJK4UV+RUCyK0SGf8z3PwbjC+18sqFL/Py+T8i4nwKWUzve9BYD3/wNBzuhWSsYJdyS3wPKmOwZwecfT8/MLDQFxUSQc6OUw1O2I5Z2HoYBwFMzMHLr8H3/sEWmWHeAZJwcg7amuD5e22HbmDc6rXGpi28BGu7dHpvbQoHtDfB7z8NB7sVVETCTmFFPpHLTuMvfhU3/zcMzTXx9Xe+wvf6P4/nIhRy5ZiIw452+L1HYVcHJIr8ZhONwN4OuHAZVgp9MSEzvWQLt2O7w5VVggAujcDXX4Ofn4dMptBXJMUsk4V4DJ6402b0pNIwPmPv/Xcuw+ictfNeXrF/vxZgnFNAvhHxOPS0wu8+DjvbFFREioHCiny83AJu5Z9wY/+e4ck6vvrWn/CjoWdYSdcX9OhXIg6Hd9pTyL1ddu642O81kQgc6IZXfw6LK1p8bLS0BBf6bU5JGBYWQWCv94fglR/CL96zidciNysXwNIKXBqGuw9C1LdNlIZqa21+8gDMLsHMgs0e6h+FgVGYWYbZBQvKQbD+OajPj1+21tZ+dye88ID9vdgfcomUC4UV+WhBGi99gWDi3zEymuKVs1/hB1d/jYXVloIGlaokHN4Fz9wF+3dYUCkFEQ92tdufb2bejhOJWU3DxDyMTsOO5sIuLgIgnYGLw/DyD+CtS9YEQORWOGyI6FuXLXhEfWu4EY/aq7YSOpsshCytwNyyHREbnobBMRidgYlZ++xYStnuy1qoFlNZYQN4P3MKDvSooYlIMVFYkY8Q4LKjZGe/xfT4eV4+98/4zqWXSGerCxZUnLPi00M74QsP2NPGaAm9e33f5sL0tsHEDCzqSf06Z0MWL43Ygq1QzXqCAJZTVj/z316F9wdsYSiyGVZXYWjSalbaouQH7Jq1j13n7IFGZQLa6+EokM5aeJmYtRB9bgCuDMNiClZSFvZTq3bMrFxVJiyofO5+21Ephrb2IrKuhJZ7smmCNG7ur5i6+n2+8Ysv8fL5PyLuU9igEodje+G3H4OW2tK92RzphXcu2dNTPRU1QWBH484OwD2HCncNqTRcHIH/9G24MgqZdGGuRUpXNgvvXLE5UdFPmPWx8aM46kNjlb32dcETd9jPy8C4HVV8bwTeuwojE5ANrMNYLlceOy/OWZe1o3vghTOws127KSLFSGFFPiSHt/IjRoZ+yjf/8XN8++KLxH0oWFWIg6pKO8f9Ww/bwC6vhG82fW1QU23DEMU47MnwO5fWF1nbueAIAljNwC/ehz//ng2p1AwV2QrpDLzTDyf2w/V2Yf+lnwUHFXHY3WGfJw/mbPdldEOx/uAEjEzCwtoOblCahfqxKJw8DL/1kD3kUlARKU4KK7IuyEB2gNH+r/LVnz3JDy8/RDaowBUwqDTWwv23wdN327ntkj5n7KCtEZpr4JKzolsxuRxMLUL/OPS02Dn+7RAEsLwKPzsH3/wBDE2onki2TiZruyHLq3ArY4U8z15rPyZBYLvT7fU2U2Q5ZYX5AxMWYC6PwNS81V+tbtgxdEHxdkuuq4H7jlp9Y1ON7bCISHFSWJG8LLnsHNOD3+ZrP3mMn/afZmm1qXBHvzxbuD/wKXjwaHk8FXNAVQK6WuDty7CgAZHX5HJ27OrcFeho2J6wkstZ0fPfvQl/8zMrZF7V0S/ZQkF+COr4jB0F26z3uXMQi9irGvtcyTbZsajje2B6HsZmYWTK6mYGRmF6wWrFVlY/tONSBB9KjXVw+jZ44oQFtFK/d4iUOoUVAQKy6RWmJt/h2z9p4AcXH2Jxta6gNSrtjfD4CbjvNttpKBe+b0c3qitgYYmiWBhsl9VVePsKnDpsBbNb+fbM5uzr/+Oz8Mr3YXLWjuiIbKVcYEXxb1+xJiJbFcod1oGwKmmv1jrrrphKW7H++DQMTMKlIdtNnF22XZelVUitQCYHrNW8BISmd7xz0FAL9x+FJ09CW52CikgpUFgRstmAqdlF/uq1CN9847MEgV+QoOKc3UBrquH5++DuA3b0q6wE0NUITbUwPF7oiwmXTBbeH15/0rtVb9FszmZa/ORt+O+v2pwX1ajIdsnlrK7knoNQV7k9i+21/0YiZgGpuQYO9kJwDOaXbbfn8qg1mDjXb/NeUmnIrFpwyWQKf2zVc1BVBY/eCQ9/ygKYgopIaVBYEWYX0rz6epxv/ONd+ASFm6PioKEOfvcJuGOP3TjLUVOtHc948yKgRfI1ucAWTSMz9jWKb0FHuCCA2UV49XV4+TUb9lhqRccSbs7Ze3xyziatF+K/v1FNEmo6YU8n4Oyhwcg0nB+Es/1waRQuD8JqvstYIYr1PQ9iMfj8A3DfEXvIpaAiUjoUVspYgBVZvvqLKH/98yi+A4LCfMJHIrCz02aoHOotnWGPN2ptjkJnk4W15RQ6CrZBgNXz9LVu/hGZILBz+9/5e/je6+uD9US2U5CDqRnr3pXJfnIL4632UQt+39nxqsZquHOPhZSFZXh/BN7thytjNsB1cmZDe+QtPC7meVBfA1940LpGViUVVERKjcJKmQqCgJlFx3d/Bv/ndcfcgivYojgagcM74dl7YX+Xtd0sZ74HbQ22ezAwWuirCZcgZ8dQ7jtsQzQ3a1GSzdnT4r/8Mfz9OzC/oKNfUiDO6qP6R22Xr7E6XIvva53GIkDcwkh9FTTXwtE+K8qfXYThtaNjQ1bAP7toO5U4rtW73Oqfy/ehsxk+fcqOzVUmSncGl0g5U1gpW4633h3m9XNVLCxVEgQO3Pa3qoxG4chOGfG1HQAAG2FJREFU+My9sG8HJMv06NeHNdVCR5PN9NDOygYBDE/CxBx0t27Og9rVtC2svv338KO3YG6h8OfvpbwFAVwatqn0jdWFvppP5pzttlQm7EFTY41d/4FuCygzCzA8bYX6w5M2Q2piBhZSsLxsM2AcN76L6fvQ02aNWO4+ANXaUREpWQor5SjI4OUmaM7+V07tepD3mo4zNOmxkobFJVhJQ3rVjiBs1aLNc5BMwK4u+J3HoKOxfGtUPsw5qE3CwR6b7xForsc6B9NztuhJ9UIiemsLlFTa2rW+8kMrqF9eVjbcTg57Eh6LQiqjGTZrAmBsBq6Mwt7O4lmEr12nc/lC/VporoO9XXY/WUrB1Fx+vsuQBbLpedtxWUrZg4N0FnKf8D5wznZ2Opvh2VNwYp91TxSR0qWwUnZyuNws/sKfc2TnRQ7UPkPG91hcsanGV0bg4ihcGLSbZSZrwSWXy782YSXnOahMwuFd8HuP2w1NA7s+qKoC9nVBzIeUFnDrAsgEdrxkccXCys1KZ+w9/43X4IdvADkFle0WjUJLvU1b//l5q31QnZCZWbDFfC6AYj3ZtDFkRXzb/ahOWuOAew9DahXG52wo5fvD8N5V201eWYV02o5n5nLrtS/OWbhtqoffeRyO9Oohl0g5UFgpJ0EAuUVc6g3cys/JNPwrAr8T3/lUJezp1+4OeDCwhdz4rD39Oj8AVyZgcHR99kcud+3o8Q2rSMLx/bajUldlRwjkg3zPvjY7Wm3WgZ44r4v5dlzQ827+iXMQWCejb7wGb7xntTCyvaIR2NUJX3rKvh8XR61NrgD5z+DRWZhZtKNVpfAx+eGf13jUdtXb6+Hkfns4Nr1odS7n+u2+c3nYjmZms3b0q6kOvvKsPcyJx4pn10lEbp7CSllJ42X78VJ/R6bhzwj8dnARcLbb4cG1R3jRCHRGoaXO2gin0vbUs3/cbiIXR2zK8uy83WCut9alrtomC3/6HivKVDHkx0vGobfVdrsUVvJHS2LwxEl48gRUJ2789wgCe1L9xkX42v+1IJjR13bbJeJwuA9+O38ENJuzz4NhX8M31wQ5G844PJmvWynBRblz4EP+LxCL2Ku+Eo702K7ySgquTsG5AWvn/Ngxa6OcUFARKRsKK2UjwOUmcdl+slWfI4j02j/+mE97z63fOCoT+UVeHXQ2wpE+a3k8OW8306uT1rlmYtYmHS8urm/ZbzzS0VRrA7vuP2ohSEHlkyVjtqD70Vt2JKKc+R5UVsBjd1hBbWN1vhvRDQgCq8f6xXvw8g+hfxiWVrbmeuXjVSTgxEF4+qS16I76Nk5oX7c9RZ+dpyQX5jfKOStQf7vf2rmXy5ck4turIt9pLMCOCu7L173UVdp9SUFFpHworJSNLC5YIBc7QuC13/An/VrHl4qEPfFvroHd2M1jbtmKJEenbUDY4KiFlsl8x5f0qtWoPHwcHjluRxoUVH61WBT274BEwp4ulutZ/ogPDbX5HblTdub9Zmqc0hkYHIf/9Rr0j0AqtfnXKh/P82wBenw/PHcKelrWA6cHHOyGn75lC3QVD5nFZXj7EmRPgfPLb4HurEklyZi9NqPdsYgUH4WVchFkyUV6sG/5rSWFjTeLaAQaquy1q92Gcq0VTV6dsEFhl0eso80Td2hg142I+NBQDe2NsLRkX9dyE/GhsRaePAmP32lh2bvJ908ma0MfhyZgtQy/loW01lTj+F744sO2y/qBYYeBvc9bG2FgvHyD+UZBYD/zI1MwMZ9vRFLmn526d4iUJ4WVcuG2btLixhuIw84S72iy110HAD0NuykOKyg92AMDI+UXVpyzGqfPnIaHjuXPqN/C7xePWROJWASW0cP77VRZYTtjLz1sLcs/ame1qRra6i3YqIwoz1m94IWrVscRUecrESlDOowjm865Da9CX0yR8x3s77K6obIKfJ49ZX/pcThzFOKRW38veQ4qorB3hxV4l9XXs4Aa6uCh47ajkvyYnTHn7Njjjlaordn+awwrF9gR0DcvqsmGiJQvhRXZcloU3jzPs+N1yTJ6ohqPwc52m6NwfFf+6NcmfFI5ZztV+7puvDhfbk5LAzxxAn7tbqs18j+h3bQDuhqgvgI95cgLsEGJ71yG1ayOx4lIeVJYEQkxz7OWrm315TFTIBmHnZ3whQfhU7ugpvLma1Q+iu9ZWElu3alIwd637U3w1El48Hart7ie72NLPXS3bv31FZNMDkZnYGQaVtXWWUTKkMKKSIg5rMj80M71FtKlKMB2UHZ1wQtn4MQB6xy12eHM96G3zYq9N2O3Rn5ZNGKD+54+CQ99ar0O5VdxDmorrK5I3QLXBTnIZGw4b7nVrYmIgMKKSPg5G4JWV13oC9k6iRjs6YYXHoBje+yDaSt2kTwHNRWws8PqVmRzRXyozzdFeOxO+983Ihm3rmCVOgr2AUEW3rkCy6ul+8BCROTjKKyIFIH2RnuV4gLOObh9D7z0CNzWZ4FiK4+7OQeHe6BSRfabxmFfyx2t8OJj8OQJC6A3o6HKhkWqXdu6HDbDamFF71kRKT8KKyIh54CaJLTUWcekUlnDrXWAuv8YvPgI9LZu0/GfwI6CNdWVzteykFz+L/t74cVH4eS+Ty6k/1Vqq2DfDvBuYvBnqQoCGJ+GsRnVrYhI+VFYESkCER/6WqGusjSerHoOqqvgzKfgN05DewPEo9v332+ptfC3mcX75cg5q/050Aufvd+m0Fckbu33q4jD4d719udiYSWdgXcHYWG50FcjIrK9FFZEikRXMzTXUfTbAc5BQy2cPgLPnYKupu0NKs7Zgrqz2Qrt5eas7Ywd3AlfeAgOdUPVJnw9EzHoboH6GoXJjYIcvNsP0wtF/xEgInJDFFZEioBz0FAD+7qhIrn1dR1bxfOgrhbuvQ2ePw07WmzXaLv5PvS02pEjuXFefgdkVye89Cjs69y84Oc5qIjBni6IbmOILQaj0zA8pSJ7ESkvCisiRaKuCu7cB0d2QU01JJIQi9li3/PCX3vv5Xc0njoJz95jR7EKds0BdDRAax3h/8KFjMPed/t64cvPWqe6Wzn69VFiETjUBREN77zGARMz0D9q0+wVWESkXOhWIFIkfM9qAna1wdIqXB6DC4NwcRgGx2F4AnIB5LL5X+AIzXkRz4Nk0uoazhy14FXInSHnoLEa9u6A1y9o4XcjolG4Yz/85kMW+CJb8MgrEoGDfRD78eb/3sUqwH6+r07aUbDm2kJfkYjI9lBYESkSawMi/QQkE3bsZm+HzV5YWYWJObg4Au8NwNAkTC3A/CIQ2CKHtdc2hwTftxkxX3zYdoZqKsIx9K8iYbURiRisrIQm14VaPJY/wnfKhj1u1RG+aAR6mqGhGuYXrLhcgAAGx6wrWHNdoS9GRGR7KKyIFBnnLG9UxICYLf4BOhphdzvcvR+m5mF0xs63j07B0ATMLFgnoZWU/f+DbQgv0ajNh3nmbjh10AYxhiGogC20m2qgtQEuDxX6asLN9yCRgNO3wTMn7Xsa28K7h+csGO3bASNTCitrAuzn+OIwHOpBRxhFpCworIgUubXjVLEIxKqgttI6bOUCSK3C3DKMTcPgBFwetV2X2QV7pdIWXjI5Nn1rIRaD7lZ4/E64/4hNJw9TU4AgsAnrfW1weRhtrXwM34OaKrj3CDx7ChprILoNTRECYP8O+IdzsLiko3oABPbA4cIgpLP2fQjTz5SIyFZQWBEpMWuLF99ZQEjGrZD8SJ+FkrklGJ6EK2Nw/iq8PwjzyxZcMmnIZO11s4tD52zXorPJalSO77HWxGFbVDkH1Qk43AevvQFZPb3/Jb5nzRzOHIUXzth7abt2xhzQ0wJ1NTA+o7CyZiUFw9N27LOtXpsrIlL6FFZEStiHA0LEszqAhio7RvLknVbzMjwFF67CuQG4OASDo5BaW7zf4CLRATta4fefsifjYX76m0zA7g67xiCbr+2Ra6qq4OHj8LnTdoRvu7+PnU3QUAnkW3UrsAAO5hZgYBTa1M1ORMqAwopIGbm22NywwFkbwtdWD/ccgHRu/Vz8uX64Mm47MXPzGxbzH7FodM6OfvW1w5eetN8zEuKgAtalrKYSejvhvX7IaXflmpZ6qzV64FNWP7Ld30fnrNB+ZxecHYDZue3974dVkIOFFTg/DHfsLfTViIhsPYUVkTLnOfD89TqEACvab62DozvtjPzsoh09GRiznZfJeQs0S8vrU8arKuBAjx396mkN59GvD3NAPAJ72qF/CDIKK/i+NR349fwRvpoKC3WF4DnY1W7H9WbmUV0R9p5dWYG3LkL2dH7GUsh/zkREboXCioh8gMOCSzQJlYl8i9QA9qctuMwsWHAZzncZG5+FhUXbUXnmLvu754pnARX1LWS99ia4VHkfNYpHoa0Jnr4bTu4rbFBZ09kIXS3WIKKcvzfXOFjNWJe/kWlob7AdKBGRUqWPOBH5WBuPjSVj9mqqsTqPXACLK9YmeXoRmmtsYVksIWVNNAJ7uyDml3ddRDwKrU3w/Gm456AdDyz099I5q6/qas5/bwp7OaGSysC7g/bzqLAiIqVMH3EickM2dhurTtqrxxVvnW/Eh6Zqawowv2jtnsttURz1oavVjn6dPmT/rNBBZU0yYTOEKpM2IFIsUKdX4c1LcMee8LUFFxHZTCEZzyYixci59SGVxco5O+p0ZKcNPiy3oOIc7O2BLz5sA0Vd2I7wBRZWWmqL+3222TJZONsPq9mQfb9ERDaZwoqIlD0H7G6HqkT5LPzWQslteyyoHO4N53Ei56C5FnZ2gNuGYZTFIpOFsSkYmdrQZlxEpAQprIiIONjRAnVV5RFWHFaTcscB+PwZC2oV8UJf1cerSsKB7hDu+hRQEFhgeeMiLK0U+mpERLaOwoqIlD0H1FdaIXcixIv2zeB5UFUJx/bC5+6HPZ1QkSj0VX2yRCw/zb5aR8E+7MJVmF8u38YQIlL6FFZEpOw5B74He3fYU/xSXfc5BxVJq8/54sOwr8uCQNh5DqqroKfNZgLJuuFpaydequ9ZERGFFRGRvN4WaKlbH3RZShwQi8HdB+G3H7Njb4WeoXK9nIOKKPQ0aWdlIxfAyITVrWSzhb4aEZGtUSS3KhGRLeagpR46mii5FbEDojF4+Dg8fx+01hffHzERh9v3gB/CJgCFEmDHvy6NwMyijoKJSGlSWBERwRbvVUkbbFkMR6Oul+fZrJJnT8On74HWOogU4Sd/PArdLVBbBb6Ogl0TBHBhECbnKL4EKiJyHYrwliUisjUinu2s1FYV+ko2h+fZn+Xpe+DJO21HJVakOxMOqIhZnU08WuirCZEAJmZhYLzQFyIisjUUVkRENmirt7qVYn9KHYlAcz08eBw+cw80VBfnjsoa5yDi2zyYWAntfG2GuUUYGIPVdKGvRERk8xXxrUtEZHM5B/XVcKjXaiR8vzjnevgeNNbCkyfgs6ehutL+WbHzPdjVAclYcX5ftspKGq5OweySuoKJSOkpgduXiMjmqU7CHXvh8C6oqbZWuW7tkzIojg2Xulr47BkLK5Uhn6FyI3wfeluhMlk8ncy2gwtgdAKujqO0IiIlp0hPL4uIbI2ID31t8Me/BsurMDwFb1+G94dgbBbGp2A1C0Eu/wvyASYMa0Tfg+YGeOkxuL3PGgWU0g6E5yAagQM9MDINCwuFvqKQcDCzBGcH4PZdhb4YEZHNpbAiIvIh8eh6IXpjDexqtynhs4swPgND09A/bEFmZhHmFiAX5APMWjjY5vQSj0FbA3z+ITjaB1UVpTkvxnNwqAf+4Swsql2vCWBxCd65DOksRIv0+KKIyEdRWBER+Qhri71kzF71VUAzZHOwlLKQMjYLQ+PQPwpTCzA+bXUDyylYXrG8ci27bOGiuiIBPe3wzF1wx57S21H5sB3N0FhnYVHMahomZ23HqaMRIiX8/ReR8qKwIiJyHdYW/xEfaiqstmVHExzbaU+zZxZhbBoujsDZfrg6BisZWFqBdNoWk5ns5oeWZBz6OuCFB+C2PjsKVspBBQfNtfbyPU1uX+OcheSLw9bRThWpIlIqFFZERG7CWiBwDmLO2h231MLhPnjqBCyswOA4XBqGC8PwXn5wXyYL2YyFllzOjo/drEgEdnflg8pO28Up6aBCft5KArpbIZlU3cqaILAaq3cH4cR+UHdnESkVCisiIrfoWkDI/933bOdlXxfs6YQHs7CagbEZeH8Yzl6BwUkYnoDFZat1ueEdFweHd8KLD8PO9tKsT/kkO9uhuUZhZaPUKpy7YmFYaUVESoXCiojIJnMOfLc+2yQehWRgbYQ7GuDOfbCSsoL9gTE4NwBXxmByHubm1482BYG9PrxbkozDsf3w+TPQ3mAdsspKYH/urma4PLKhM1uZy+asZuXqJPRF7X0nIlLsyu0WJyJSEJ6zDmOxCFTBtQV3XyvcvttqXibnbFbGyIz9fWrOppMvr0IuCzioqbRjPs+egq6mMgwqWHirq4C+dvjxW6CyFZPLWX3UuQHobFRYEZHSUIa3ORGRwnL5v0R8iCStBqOtwf5dOgNzSzA1DwP5mpeRSZhetN2YPV3w3L3Q3VIcAyq3SiIO3c1QWQHz8+GYcxMGmQyc64d7DkJVsvRrmESk9CmsiIgU2MYFZSwCjdX22t0BD9wGK2kYnYbFFWiqhda68g4qYBPsG2uhtcHCiphcAJdGrb22iEgpUFgREQmZa53G8n9JxqG39Zf/fVkLoKEa9nXCe/1oayUvm7XGDWMzNm8lpru8iBQ5dWIXEQm5tZbEay+xr0NlHA71QaCvyQcEOXj7MswvFfpKRERuncKKiIgUpVgUupugttKOhYnJBTaYdGp+84eQiohsN328i4hIUfIcVCZtMGbEL/TVhEhgNU5jMworIlL8FFZERKQoOQfxCBzshqja9K5zMLsAQxOwqr7OIlLkFFZERKRoxaKwrxsiUdXzXBNAJguDkzC/rN4DIlLcFFZERKRoRSOwuw0qoqpb2SjIQf8ojE4V+kpERG6NPtpFRKRoeQ7iMdtdScTRAJoNJufgyqjqVkSkuCmsiIhI0XLOdlQO90IyVuirCZeFJXh3AFbTCiwiUrwUVkREpKh5wO4OqK4s9JWES2rVOoJNzRf6SkREbp7CioiIFDcHnY1QlVDdygc4mJ6HqxOFvhARkZunj3URESlqnoNk3OatVCYLfTXh4QJYSsH5YVTLIyJFS2FFRESKn4NDPVBXUegLCQ/nQ2MtHNiB+heLSNFSWBERkZLQ2QRtTWgXAWvpfGQnfPEh2NehGTQiUrwihb4AERGRWxZAQxW01YPvQbZMJ7c7wI/A4V3w7Ck42K0uaSJS3BRWRESk6Ll83UpnE1QkYX6h0Fe0/ZyDeBT2dMNvPgS9rQoqIlL8dAxMRERKgudgRzM01xb6SrafczYUc2cXfOlJ2NWuoCIipUFhRURESkZzHXS3giuju5sD4jE40Ad//Cx0t0BM5yZEpESU0ce5iIiUMuegrhIOdBf6SraPA5JJuOsQ/MFT6zU7IiKlQh9pIiJSMhIxGxBZXVXoK9l6DqisgPuPwvP3QkutdQFT5y8RKSUKKyIiUjI8B/VVFlhKec3ueRZU7jkMz9xlR7+iOvolIiVIYUVEREqGc1BdCXs7wfMLfTVbw/ehqgJOHIAXzlgHtEiJ/llFRBRWRESkpCRjcKjPdh9K7UiU59kRt9NH4UtPQVOtgoqIlDaFFRERKSmJKOxstx0Wr5TCioP6GnjkOPzWg1AZVzG9iJQ+fcyJiEhJcR5UxGBfN0Sjhb6azdNcB0/fDc+chMqk7bKIiJQ6fdSJiEhJcUAkAvs6IVYCYcXzoL0JPn0KztwG9dUltmMkIvIJ1DtERERKTtSHvV3FH1YiPjTXw5Mn4cxRmyNTanU4IiKfRGFFRERKju/BrnaoScLSEqSzkMlCEBT6yq5fNAINNfDcvfDA7VARL/QViYhsP7e8Wkwf3SIiItfvB2/BG5fg3X4YGINsDnK5fGgJ7MhYGG+CnoPuNnj+Pnjw9kJfjYhI4SisiIhIyVpO2Y5KKgOzi3BpBM5dgYFJGJ6E2XnIBhBk7f8fhvDiHOzphudPw7FdUJEo8AWJiBSQwoqIiJS8ILBdlVQallZgMWXhZWQKLo3CpSGYnIfZBVhJQS6/8wLbHGAc7OuB3zgNh3uhumK7/sMiIuGksCIiImVl7a4XBLbjsrgC03MwOgtXJyzAjM/C+BQsrOZrXjIbfm2AJZhN5LA2y/t64Pl7Yf8OBRUREVBYERERuRZgsjk7OjY1D0NTcHEULl6FiVlYXLZgs5qGdNp2XzbjDuqAZBz6OuDFR2ygpY5+iYgYhRUREZENPnxXTGdhbBYGJ+D9IXhvGPqHYHEVshnIpCGbtdqXG+WAeAx2d8PvPgq7OqxdsYiIGIUVERGRTxCw3kFsrfZlKQVXxuH8IFy4CheHYGwKcBDkuO4il0gEThyAF85Abzv4mqEiIvIBCisiIiI3KJuD1YwdB0tlrHB/fA7OD9hrZNoK9ufmwHn5X7ThbuuASBROHoLPnoauZogX+QBLEZGtoLAiIiJyC9buouksLC3DfMq6ik3OwfAUXB6FoXGYWYKFJat5iUXg/tvh6bugsxESscL+GUREwkphRUREZBMF+W5hQWBtkKcXrUB/cAL6R614v6bSun411VpwERGRj6awIiIiskWu3WHztSjpjAUY56zjl+997C8VEREUVkRERLbV2l3XqZheRORX0uaziIjINlJIERG5ftqAFhERERGRUFJYERERERGRUFJYERERERGRUFJYERERERGRUFJYERERERGRUFJYERERERGRUFJYERERERGRUFJYERERERGRUFJYERERERGRUFJYERERERGRUFJYERERERGRUFJYERERERGRUFJYERERERGRUFJYERERERGRUFJYERERERGRUFJYERERERGRUFJYERERERGRUFJYERERERGRUFJYERERERGRUFJYERERERGRUFJYERERERGRUFJYERERERGRUFJYERERERGRUFJYERERERGRUFJYERERERGRUFJYERERERGRUFJYERERERGRUFJYERERERGRUFJYERERERGRUFJYERERERGRUFJYERERERGRUFJYERERERGRUFJYERERERGRUFJYERERERGRUFJYERERERGRUFJYERERERGRUFJYERERERGRUFJYERERERGRUFJYERERERGRUFJYERERERGRUFJYERERERGRUFJYERERERGRUFJYERERERGRUFJYERERERGRUFJYERERERGRUFJYERERERGRUFJYERERERGRUFJYERERERGRUFJYERERERGRUPr/hR5XC0euklMAAAAASUVORK5CYII=;" vertex="1" parent="Nsw7TsLwHat9_7TwNP2g-33">
          <mxGeometry x="77" y="40" width="290" height="281.06" as="geometry" />
        </mxCell>
        <mxCell id="Nsw7TsLwHat9_7TwNP2g-6" value="Simulador de Sistema de ar condicionado Educacional" style="text;html=1;strokeColor=none;fillColor=none;align=center;verticalAlign=middle;whiteSpace=wrap;rounded=0;fontSize=17;fontFamily=Helvetica;" vertex="1" parent="Nsw7TsLwHat9_7TwNP2g-33">
          <mxGeometry x="12" y="10" width="420" height="30" as="geometry" />
        </mxCell>
        <mxCell id="Nsw7TsLwHat9_7TwNP2g-34" value="Veículo: Temperatura interna" style="text;html=1;strokeColor=none;fillColor=none;align=center;verticalAlign=middle;whiteSpace=wrap;rounded=0;dashed=1;fontFamily=Helvetica;fontSize=24;fontStyle=1" vertex="1" parent="1">
          <mxGeometry x="710" y="940" width="340" height="30" as="geometry" />
        </mxCell>
        <mxCell id="Nsw7TsLwHat9_7TwNP2g-35" value="Computador: Condições iniciais" style="text;html=1;strokeColor=none;fillColor=none;align=center;verticalAlign=middle;whiteSpace=wrap;rounded=0;dashed=1;fontFamily=Helvetica;fontSize=24;fontStyle=1" vertex="1" parent="1">
          <mxGeometry x="209.05" y="925" width="340" height="30" as="geometry" />
        </mxCell>
        <mxCell id="Nsw7TsLwHat9_7TwNP2g-36" value="Temperatura externa" style="text;html=1;strokeColor=none;fillColor=none;align=center;verticalAlign=middle;whiteSpace=wrap;rounded=0;dashed=1;fontFamily=Helvetica;fontSize=24;fontStyle=1" vertex="1" parent="1">
          <mxGeometry x="1179" y="895" width="340" height="30" as="geometry" />
        </mxCell>
        <mxCell id="Nsw7TsLwHat9_7TwNP2g-37" value="Motorista/Passageiros" style="text;html=1;strokeColor=none;fillColor=none;align=center;verticalAlign=middle;whiteSpace=wrap;rounded=0;dashed=1;fontFamily=Helvetica;fontSize=24;fontStyle=1" vertex="1" parent="1">
          <mxGeometry x="170" y="375" width="340" height="30" as="geometry" />
        </mxCell>
        <mxCell id="Nsw7TsLwHat9_7TwNP2g-38" value="Umidade" style="text;html=1;strokeColor=none;fillColor=none;align=center;verticalAlign=middle;whiteSpace=wrap;rounded=0;dashed=1;fontFamily=Helvetica;fontSize=24;fontStyle=1" vertex="1" parent="1">
          <mxGeometry x="1190" y="365" width="340" height="30" as="geometry" />
        </mxCell>
      </root>
    </mxGraphModel>
  </diagram>
</mxfile>
